<svg width="73" height="88" viewBox="0 0 73 88" fill="none" xmlns="http://www.w3.org/2000/svg">
<path d="M57.5 21.5C57.5 18.7422 56.9568 16.0115 55.9015 13.4636C54.8461 10.9158 53.2993 8.60079 51.3492 6.65076C49.3992 4.70073 47.0842 3.15388 44.5364 2.09853C41.9885 1.04318 39.2578 0.5 36.5 0.5C33.7422 0.5 31.0115 1.04318 28.4636 2.09853C25.9158 3.15388 23.6008 4.70073 21.6508 6.65076C19.7007 8.60079 18.1539 10.9158 17.0985 13.4636C16.0432 16.0115 15.5 18.7422 15.5 21.5C15.5 27.0695 17.7125 32.411 21.6508 36.3492C25.589 40.2875 30.9305 42.5 36.5 42.5C42.0695 42.5 47.411 40.2875 51.3492 36.3492C55.2875 32.411 57.5 27.0695 57.5 21.5ZM19 21.5C19 16.8587 20.8437 12.4075 24.1256 9.12563C27.4075 5.84374 31.8587 4 36.5 4C41.1413 4 45.5925 5.84374 48.8744 9.12563C52.1563 12.4075 54 16.8587 54 21.5C54 26.1413 52.1563 30.5925 48.8744 33.8744C45.5925 37.1563 41.1413 39 36.5 39C31.8587 39 27.4075 37.1563 24.1256 33.8744C20.8437 30.5925 19 26.1413 19 21.5ZM33 17.125C33 17.4697 32.9321 17.8111 32.8002 18.1295C32.6683 18.448 32.4749 18.7374 32.2312 18.9812C31.9874 19.2249 31.698 19.4183 31.3795 19.5502C31.0611 19.6821 30.7197 19.75 30.375 19.75C30.0303 19.75 29.6889 19.6821 29.3705 19.5502C29.052 19.4183 28.7626 19.2249 28.5188 18.9812C28.2751 18.7374 28.0817 18.448 27.9498 18.1295C27.8179 17.8111 27.75 17.4697 27.75 17.125C27.75 16.4288 28.0266 15.7611 28.5188 15.2688C29.0111 14.7766 29.6788 14.5 30.375 14.5C31.0712 14.5 31.7389 14.7766 32.2312 15.2688C32.7234 15.7611 33 16.4288 33 17.125ZM45.25 17.125C45.25 17.8212 44.9734 18.4889 44.4812 18.9812C43.9889 19.4734 43.3212 19.75 42.625 19.75C41.9288 19.75 41.2611 19.4734 40.7688 18.9812C40.2766 18.4889 40 17.8212 40 17.125C40 16.4288 40.2766 15.7611 40.7688 15.2688C41.2611 14.7766 41.9288 14.5 42.625 14.5C43.3212 14.5 43.9889 14.7766 44.4812 15.2688C44.9734 15.7611 45.25 16.4288 45.25 17.125ZM29.962 31.377C33.1995 27.541 39.797 27.541 43.038 31.377C43.1826 31.563 43.3633 31.718 43.5693 31.8325C43.7752 31.947 44.0022 32.0187 44.2366 32.0434C44.4709 32.068 44.7078 32.0451 44.9331 31.976C45.1584 31.9068 45.3674 31.7929 45.5475 31.641C45.7277 31.4892 45.8754 31.3025 45.9816 31.0921C46.0879 30.8818 46.1506 30.6522 46.1659 30.417C46.1813 30.1819 46.149 29.9461 46.071 29.7237C45.993 29.5013 45.8709 29.297 45.712 29.123C41.0745 23.628 31.922 23.628 27.288 29.123C27.1291 29.297 27.007 29.5013 26.929 29.7237C26.851 29.9461 26.8187 30.1819 26.8341 30.417C26.8494 30.6522 26.9121 30.8818 27.0184 31.0921C27.1246 31.3025 27.2723 31.4892 27.4525 31.641C27.6326 31.7929 27.8416 31.9068 28.0669 31.976C28.2922 32.0451 28.5291 32.068 28.7634 32.0434C28.9978 32.0187 29.2248 31.947 29.4307 31.8325C29.6367 31.718 29.8174 31.563 29.962 31.377Z" fill="#F21E1E" fill-opacity="0.93"/>
<path d="M1.9258 81.5V66.034H4.9178V81.5H1.9258ZM4.1258 81.5V78.86H12.6838V81.5H4.1258ZM4.1258 74.878V72.326H11.9138V74.878H4.1258ZM4.1258 68.674V66.034H12.5738V68.674H4.1258ZM17.3602 75.032V72.7H20.9462C21.6795 72.7 22.2442 72.5167 22.6402 72.15C23.0508 71.7687 23.2562 71.248 23.2562 70.588C23.2562 69.9867 23.0508 69.488 22.6402 69.092C22.2442 68.6813 21.6795 68.476 20.9462 68.476H17.3602V66.034H21.2102C22.2075 66.034 23.0802 66.232 23.8282 66.628C24.5908 67.0093 25.1775 67.5373 25.5882 68.212C26.0135 68.8867 26.2262 69.664 26.2262 70.544C26.2262 71.4533 26.0135 72.2453 25.5882 72.92C25.1775 73.58 24.5908 74.1007 23.8282 74.482C23.0655 74.8487 22.1782 75.032 21.1662 75.032H17.3602ZM15.1602 81.5V66.034H18.1522V81.5H15.1602ZM23.6082 81.5L18.5042 74.812L21.2542 73.954L27.2382 81.5H23.6082ZM31.1317 75.032V72.7H34.7177C35.451 72.7 36.0157 72.5167 36.4117 72.15C36.8223 71.7687 37.0277 71.248 37.0277 70.588C37.0277 69.9867 36.8223 69.488 36.4117 69.092C36.0157 68.6813 35.451 68.476 34.7177 68.476H31.1317V66.034H34.9817C35.979 66.034 36.8517 66.232 37.5997 66.628C38.3623 67.0093 38.949 67.5373 39.3597 68.212C39.785 68.8867 39.9977 69.664 39.9977 70.544C39.9977 71.4533 39.785 72.2453 39.3597 72.92C38.949 73.58 38.3623 74.1007 37.5997 74.482C36.837 74.8487 35.9497 75.032 34.9377 75.032H31.1317ZM28.9317 81.5V66.034H31.9237V81.5H28.9317ZM37.3797 81.5L32.2757 74.812L35.0257 73.954L41.0097 81.5H37.3797ZM49.8122 81.742C48.6829 81.742 47.6269 81.5367 46.6442 81.126C45.6762 80.7153 44.8256 80.1507 44.0922 79.432C43.3736 78.6987 42.8089 77.848 42.3982 76.88C41.9876 75.8973 41.7822 74.8487 41.7822 73.734C41.7822 72.6193 41.9802 71.5853 42.3762 70.632C42.7869 69.664 43.3516 68.8207 44.0702 68.102C44.8036 67.3687 45.6542 66.804 46.6222 66.408C47.5902 65.9973 48.6389 65.792 49.7682 65.792C50.9122 65.792 51.9682 65.9973 52.9362 66.408C53.9042 66.804 54.7476 67.3687 55.4662 68.102C56.1996 68.8207 56.7716 69.664 57.1822 70.632C57.5929 71.6 57.7982 72.6413 57.7982 73.756C57.7982 74.8707 57.5929 75.912 57.1822 76.88C56.7716 77.848 56.1996 78.6987 55.4662 79.432C54.7476 80.1507 53.9042 80.7153 52.9362 81.126C51.9829 81.5367 50.9416 81.742 49.8122 81.742ZM49.7682 78.948C50.7656 78.948 51.6309 78.728 52.3642 78.288C53.0976 77.848 53.6696 77.2393 54.0802 76.462C54.5056 75.6847 54.7182 74.7753 54.7182 73.734C54.7182 72.9713 54.6009 72.2747 54.3662 71.644C54.1316 71.0133 53.7942 70.4707 53.3542 70.016C52.9142 69.5467 52.3936 69.1873 51.7922 68.938C51.1909 68.6887 50.5162 68.564 49.7682 68.564C48.8002 68.564 47.9422 68.784 47.1942 69.224C46.4609 69.6493 45.8816 70.2507 45.4562 71.028C45.0456 71.8053 44.8402 72.7073 44.8402 73.734C44.8402 74.5113 44.9576 75.2227 45.1922 75.868C45.4416 76.5133 45.7789 77.0633 46.2042 77.518C46.6442 77.9727 47.1649 78.3247 47.7662 78.574C48.3822 78.8233 49.0496 78.948 49.7682 78.948ZM62.3699 75.032V72.7H65.9559C66.6893 72.7 67.2539 72.5167 67.6499 72.15C68.0606 71.7687 68.2659 71.248 68.2659 70.588C68.2659 69.9867 68.0606 69.488 67.6499 69.092C67.2539 68.6813 66.6893 68.476 65.9559 68.476H62.3699V66.034H66.2199C67.2173 66.034 68.0899 66.232 68.8379 66.628C69.6006 67.0093 70.1873 67.5373 70.5979 68.212C71.0233 68.8867 71.2359 69.664 71.2359 70.544C71.2359 71.4533 71.0233 72.2453 70.5979 72.92C70.1873 73.58 69.6006 74.1007 68.8379 74.482C68.0753 74.8487 67.1879 75.032 66.1759 75.032H62.3699ZM60.1699 81.5V66.034H63.1619V81.5H60.1699ZM68.6179 81.5L63.5139 74.812L66.2639 73.954L72.2479 81.5H68.6179Z" fill="#F32E2E"/>
</svg>
