<svg width="183" height="86" viewBox="0 0 183 86" fill="none" xmlns="http://www.w3.org/2000/svg">
<path d="M112.5 25.5006C110.82 33.9088 104.487 41.826 95.6001 43.5951C91.2659 44.4592 86.7699 43.9324 82.7522 42.0897C78.7346 40.247 75.4 37.1825 73.2235 33.3323C71.0469 29.4822 70.1393 25.0428 70.6298 20.6462C71.1203 16.2497 72.9839 12.1201 75.9554 8.8455C82.05 2.12562 92.3411 0.275804 100.741 3.63911" stroke="#20AE5C" stroke-width="4" stroke-linecap="round" stroke-linejoin="round"/>
<path d="M83.9414 22.137L92.3409 30.5453L112.5 8.68384" stroke="#20AE5C" stroke-width="4" stroke-linecap="round" stroke-linejoin="round"/>
<path d="M8.46391 80.2C7.43724 80.2 6.48391 80.02 5.60391 79.66C4.72391 79.2867 3.95057 78.7733 3.28391 78.12C2.63057 77.4533 2.12391 76.68 1.76391 75.8C1.41724 74.92 1.24391 73.9733 1.24391 72.96C1.24391 71.9467 1.41724 71 1.76391 70.12C2.12391 69.24 2.63057 68.4733 3.28391 67.82C3.95057 67.1667 4.71724 66.6533 5.58391 66.28C6.46391 65.9067 7.42391 65.72 8.46391 65.72C9.58391 65.72 10.5706 65.9067 11.4239 66.28C12.2772 66.64 13.0306 67.14 13.6839 67.78L11.8439 69.62C11.4572 69.1933 10.9839 68.86 10.4239 68.62C9.86391 68.38 9.21057 68.26 8.46391 68.26C7.81057 68.26 7.21057 68.3733 6.66391 68.6C6.13057 68.8133 5.66391 69.1333 5.26391 69.56C4.86391 69.9733 4.55724 70.4733 4.34391 71.06C4.13057 71.6333 4.02391 72.2667 4.02391 72.96C4.02391 73.6667 4.13057 74.3067 4.34391 74.88C4.55724 75.4533 4.86391 75.9533 5.26391 76.38C5.66391 76.7933 6.13057 77.1133 6.66391 77.34C7.21057 77.5667 7.81057 77.68 8.46391 77.68C9.25057 77.68 9.92391 77.56 10.4839 77.32C11.0572 77.08 11.5372 76.74 11.9239 76.3L13.7639 78.14C13.1106 78.7933 12.3506 79.3 11.4839 79.66C10.6172 80.02 9.61057 80.2 8.46391 80.2ZM21.6684 80.22C20.6418 80.22 19.6818 80.0333 18.7884 79.66C17.9084 79.2867 17.1351 78.7733 16.4684 78.12C15.8151 77.4533 15.3018 76.68 14.9284 75.8C14.5551 74.9067 14.3684 73.9533 14.3684 72.94C14.3684 71.9267 14.5484 70.9867 14.9084 70.12C15.2818 69.24 15.7951 68.4733 16.4484 67.82C17.1151 67.1533 17.8884 66.64 18.7684 66.28C19.6484 65.9067 20.6018 65.72 21.6284 65.72C22.6684 65.72 23.6284 65.9067 24.5084 66.28C25.3884 66.64 26.1551 67.1533 26.8084 67.82C27.4751 68.4733 27.9951 69.24 28.3684 70.12C28.7418 71 28.9284 71.9467 28.9284 72.96C28.9284 73.9733 28.7418 74.92 28.3684 75.8C27.9951 76.68 27.4751 77.4533 26.8084 78.12C26.1551 78.7733 25.3884 79.2867 24.5084 79.66C23.6418 80.0333 22.6951 80.22 21.6684 80.22ZM21.6284 77.68C22.5351 77.68 23.3218 77.48 23.9884 77.08C24.6551 76.68 25.1751 76.1267 25.5484 75.42C25.9351 74.7133 26.1284 73.8867 26.1284 72.94C26.1284 72.2467 26.0218 71.6133 25.8084 71.04C25.5951 70.4667 25.2884 69.9733 24.8884 69.56C24.4884 69.1333 24.0151 68.8067 23.4684 68.58C22.9218 68.3533 22.3084 68.24 21.6284 68.24C20.7484 68.24 19.9684 68.44 19.2884 68.84C18.6218 69.2267 18.0951 69.7733 17.7084 70.48C17.3351 71.1867 17.1484 72.0067 17.1484 72.94C17.1484 73.6467 17.2551 74.2933 17.4684 74.88C17.6951 75.4667 18.0018 75.9667 18.3884 76.38C18.7884 76.7933 19.2618 77.1133 19.8084 77.34C20.3684 77.5667 20.9751 77.68 21.6284 77.68ZM31.0845 80V65.94H32.9845L33.8045 68.66V80H31.0845ZM40.8045 80L32.4645 69.2L32.9845 65.94L41.3245 76.74L40.8045 80ZM40.8045 80L40.0245 77.36V65.94H42.7645V80H40.8045ZM52.1158 80.2C51.1158 80.2 50.1758 80.02 49.2958 79.66C48.4291 79.2867 47.6624 78.7667 46.9958 78.1C46.3424 77.4333 45.8291 76.6667 45.4558 75.8C45.0958 74.92 44.9158 73.9733 44.9158 72.96C44.9158 71.9333 45.1024 70.9867 45.4758 70.12C45.8491 69.24 46.3691 68.4733 47.0358 67.82C47.7024 67.1533 48.4824 66.64 49.3758 66.28C50.2691 65.9067 51.2358 65.72 52.2758 65.72C53.4358 65.72 54.5024 65.94 55.4758 66.38C56.4491 66.8067 57.2558 67.4133 57.8958 68.2L56.0558 70.04C55.6158 69.4667 55.0691 69.0267 54.4158 68.72C53.7624 68.4133 53.0424 68.26 52.2558 68.26C51.3624 68.26 50.5691 68.46 49.8758 68.86C49.1958 69.2467 48.6624 69.7933 48.2758 70.5C47.8891 71.1933 47.6958 72.0067 47.6958 72.94C47.6958 73.8733 47.8824 74.7 48.2558 75.42C48.6424 76.1267 49.1624 76.68 49.8158 77.08C50.4824 77.48 51.2424 77.68 52.0958 77.68C52.9758 77.68 53.7291 77.52 54.3558 77.2C54.9824 76.8667 55.4624 76.3867 55.7958 75.76C56.1291 75.12 56.2958 74.34 56.2958 73.42L58.0758 74.64L51.9358 74.58V72.22H59.0958V72.6C59.0958 74.28 58.7958 75.6867 58.1958 76.82C57.5958 77.94 56.7691 78.7867 55.7158 79.36C54.6758 79.92 53.4758 80.2 52.1158 80.2ZM63.1822 74.12V72H66.4422C67.1089 72 67.6222 71.8333 67.9822 71.5C68.3555 71.1533 68.5422 70.68 68.5422 70.08C68.5422 69.5333 68.3555 69.08 67.9822 68.72C67.6222 68.3467 67.1089 68.16 66.4422 68.16H63.1822V65.94H66.6822C67.5889 65.94 68.3822 66.12 69.0622 66.48C69.7555 66.8267 70.2889 67.3067 70.6622 67.92C71.0489 68.5333 71.2422 69.24 71.2422 70.04C71.2422 70.8667 71.0489 71.5867 70.6622 72.2C70.2889 72.8 69.7555 73.2733 69.0622 73.62C68.3689 73.9533 67.5622 74.12 66.6422 74.12H63.1822ZM61.1822 80V65.94H63.9022V80H61.1822ZM68.8622 80L64.2222 73.92L66.7222 73.14L72.1622 80H68.8622ZM72.2125 80L77.8725 65.94H80.0925L85.7325 80H82.8325L78.4725 68.46H79.4725L75.0525 80H72.2125ZM75.2125 77.38V75.1H82.7725V77.38H75.2125ZM89.1934 80V66.24H91.9334V80H89.1934ZM84.7134 68.36V65.94H96.4134V68.36H84.7134ZM103.695 80.2C102.588 80.2 101.602 79.96 100.735 79.48C99.8815 78.9867 99.2082 78.3133 98.7148 77.46C98.2215 76.6067 97.9748 75.64 97.9748 74.56V65.94H100.695V74.64C100.695 75.2667 100.822 75.8067 101.075 76.26C101.342 76.7133 101.702 77.0667 102.155 77.32C102.622 77.56 103.135 77.68 103.695 77.68C104.268 77.68 104.775 77.56 105.215 77.32C105.655 77.0667 106.002 76.7133 106.255 76.26C106.522 75.8067 106.655 75.2733 106.655 74.66V65.94H109.395V74.58C109.395 75.66 109.148 76.6267 108.655 77.48C108.162 78.32 107.488 78.9867 106.635 79.48C105.795 79.96 104.815 80.2 103.695 80.2ZM112.081 80V65.94H114.801V80H112.081ZM114.081 80V77.58H121.241V80H114.081ZM121.724 80L127.384 65.94H129.604L135.244 80H132.344L127.984 68.46H128.984L124.564 80H121.724ZM124.724 77.38V75.1H132.284V77.38H124.724ZM138.705 80V66.24H141.445V80H138.705ZM134.225 68.36V65.94H145.925V68.36H134.225ZM147.803 80V65.94H150.523V80H147.803ZM159.989 80.22C158.962 80.22 158.002 80.0333 157.109 79.66C156.229 79.2867 155.455 78.7733 154.789 78.12C154.135 77.4533 153.622 76.68 153.249 75.8C152.875 74.9067 152.689 73.9533 152.689 72.94C152.689 71.9267 152.869 70.9867 153.229 70.12C153.602 69.24 154.115 68.4733 154.769 67.82C155.435 67.1533 156.209 66.64 157.089 66.28C157.969 65.9067 158.922 65.72 159.949 65.72C160.989 65.72 161.949 65.9067 162.829 66.28C163.709 66.64 164.475 67.1533 165.129 67.82C165.795 68.4733 166.315 69.24 166.689 70.12C167.062 71 167.249 71.9467 167.249 72.96C167.249 73.9733 167.062 74.92 166.689 75.8C166.315 76.68 165.795 77.4533 165.129 78.12C164.475 78.7733 163.709 79.2867 162.829 79.66C161.962 80.0333 161.015 80.22 159.989 80.22ZM159.949 77.68C160.855 77.68 161.642 77.48 162.309 77.08C162.975 76.68 163.495 76.1267 163.869 75.42C164.255 74.7133 164.449 73.8867 164.449 72.94C164.449 72.2467 164.342 71.6133 164.129 71.04C163.915 70.4667 163.609 69.9733 163.209 69.56C162.809 69.1333 162.335 68.8067 161.789 68.58C161.242 68.3533 160.629 68.24 159.949 68.24C159.069 68.24 158.289 68.44 157.609 68.84C156.942 69.2267 156.415 69.7733 156.029 70.48C155.655 71.1867 155.469 72.0067 155.469 72.94C155.469 73.6467 155.575 74.2933 155.789 74.88C156.015 75.4667 156.322 75.9667 156.709 76.38C157.109 76.7933 157.582 77.1133 158.129 77.34C158.689 77.5667 159.295 77.68 159.949 77.68ZM169.405 80V65.94H171.305L172.125 68.66V80H169.405ZM179.125 80L170.785 69.2L171.305 65.94L179.645 76.74L179.125 80ZM179.125 80L178.345 77.36V65.94H181.085V80H179.125Z" fill="#27AE60"/>
</svg>
