<svg width="97" height="90" viewBox="0 0 97 90" fill="none" xmlns="http://www.w3.org/2000/svg">
<path d="M69.4999 26.0006C67.82 34.4088 61.4868 42.326 52.6001 44.0951C48.2659 44.9592 43.7699 44.4324 39.7522 42.5897C35.7346 40.747 32.4 37.6825 30.2235 33.8323C28.0469 29.9822 27.1393 25.5428 27.6298 21.1462C28.1203 16.7497 29.9839 12.6201 32.9554 9.3455C39.05 2.62562 49.3411 0.775804 57.7406 4.13911" stroke="#20AE5C" stroke-width="4" stroke-linecap="round" stroke-linejoin="round"/>
<path d="M40.9414 22.6371L49.3409 31.0454L69.4997 9.1839" stroke="#20AE5C" stroke-width="4" stroke-linecap="round" stroke-linejoin="round"/>
<path d="M6.99485 83.72C5.74819 83.72 4.67752 83.5073 3.78285 83.082C2.90285 82.6567 2.10352 82.0187 1.38485 81.168L3.36485 79.188C3.81952 79.7893 4.34752 80.2587 4.94885 80.596C5.55019 80.9187 6.28352 81.08 7.14885 81.08C7.92619 81.08 8.54219 80.926 8.99685 80.618C9.46619 80.31 9.70085 79.8847 9.70085 79.342C9.70085 78.8727 9.56885 78.4913 9.30485 78.198C9.04085 77.9047 8.68885 77.6553 8.24885 77.45C7.82352 77.2447 7.34685 77.0613 6.81885 76.9C6.30552 76.724 5.78485 76.526 5.25685 76.306C4.74352 76.086 4.26685 75.8147 3.82685 75.492C3.40152 75.1547 3.05685 74.7293 2.79285 74.216C2.52885 73.688 2.39685 73.028 2.39685 72.236C2.39685 71.2973 2.62418 70.498 3.07885 69.838C3.53352 69.178 4.15685 68.672 4.94885 68.32C5.74085 67.968 6.63552 67.792 7.63285 67.792C8.68885 67.792 9.64219 67.99 10.4929 68.386C11.3435 68.782 12.0402 69.2953 12.5829 69.926L10.6029 71.906C10.1482 71.4073 9.67885 71.0407 9.19485 70.806C8.72552 70.5713 8.19019 70.454 7.58885 70.454C6.89952 70.454 6.35685 70.586 5.96085 70.85C5.56485 71.114 5.36685 71.4953 5.36685 71.994C5.36685 72.4193 5.49885 72.764 5.76285 73.028C6.02685 73.292 6.37152 73.5193 6.79685 73.71C7.23685 73.9007 7.71352 74.084 8.22685 74.26C8.75485 74.436 9.27552 74.634 9.78885 74.854C10.3169 75.074 10.7935 75.36 11.2189 75.712C11.6589 76.064 12.0109 76.5187 12.2749 77.076C12.5389 77.6187 12.6709 78.2933 12.6709 79.1C12.6709 80.5373 12.1649 81.6667 11.1529 82.488C10.1409 83.3093 8.75485 83.72 6.99485 83.72ZM21.3841 83.72C20.1667 83.72 19.0814 83.456 18.1281 82.928C17.1894 82.3853 16.4487 81.6447 15.9061 80.706C15.3634 79.7673 15.0921 78.704 15.0921 77.516V68.034H18.0841V77.604C18.0841 78.2933 18.2234 78.8873 18.5021 79.386C18.7954 79.8847 19.1914 80.2733 19.6901 80.552C20.2034 80.816 20.7681 80.948 21.3841 80.948C22.0147 80.948 22.5721 80.816 23.0561 80.552C23.5401 80.2733 23.9214 79.8847 24.2001 79.386C24.4934 78.8873 24.6401 78.3007 24.6401 77.626V68.034H27.6541V77.538C27.6541 78.726 27.3827 79.7893 26.8401 80.728C26.2974 81.652 25.5567 82.3853 24.6181 82.928C23.6941 83.456 22.6161 83.72 21.3841 83.72ZM37.7804 83.72C36.6511 83.72 35.6024 83.522 34.6344 83.126C33.6664 82.7153 32.8157 82.1507 32.0824 81.432C31.3637 80.6987 30.8064 79.848 30.4104 78.88C30.0291 77.912 29.8384 76.8707 29.8384 75.756C29.8384 74.6413 30.0291 73.6 30.4104 72.632C30.8064 71.664 31.3637 70.8207 32.0824 70.102C32.8157 69.3833 33.6591 68.8187 34.6124 68.408C35.5804 67.9973 36.6364 67.792 37.7804 67.792C39.0124 67.792 40.0977 67.9973 41.0364 68.408C41.9751 68.804 42.8037 69.354 43.5224 70.058L41.4984 72.082C41.0731 71.6127 40.5524 71.246 39.9364 70.982C39.3204 70.718 38.6017 70.586 37.7804 70.586C37.0617 70.586 36.4017 70.7107 35.8004 70.96C35.2137 71.1947 34.7004 71.5467 34.2604 72.016C33.8204 72.4707 33.4831 73.0207 33.2484 73.666C33.0137 74.2967 32.8964 74.9933 32.8964 75.756C32.8964 76.5333 33.0137 77.2373 33.2484 77.868C33.4831 78.4987 33.8204 79.0487 34.2604 79.518C34.7004 79.9727 35.2137 80.3247 35.8004 80.574C36.4017 80.8233 37.0617 80.948 37.7804 80.948C38.6457 80.948 39.3864 80.816 40.0024 80.552C40.6331 80.288 41.1611 79.914 41.5864 79.43L43.6104 81.454C42.8917 82.1727 42.0557 82.73 41.1024 83.126C40.1491 83.522 39.0417 83.72 37.7804 83.72ZM52.2394 83.72C51.1101 83.72 50.0614 83.522 49.0934 83.126C48.1254 82.7153 47.2747 82.1507 46.5414 81.432C45.8227 80.6987 45.2654 79.848 44.8694 78.88C44.4881 77.912 44.2974 76.8707 44.2974 75.756C44.2974 74.6413 44.4881 73.6 44.8694 72.632C45.2654 71.664 45.8227 70.8207 46.5414 70.102C47.2747 69.3833 48.1181 68.8187 49.0714 68.408C50.0394 67.9973 51.0954 67.792 52.2394 67.792C53.4714 67.792 54.5567 67.9973 55.4954 68.408C56.4341 68.804 57.2627 69.354 57.9814 70.058L55.9574 72.082C55.5321 71.6127 55.0114 71.246 54.3954 70.982C53.7794 70.718 53.0607 70.586 52.2394 70.586C51.5207 70.586 50.8607 70.7107 50.2594 70.96C49.6727 71.1947 49.1594 71.5467 48.7194 72.016C48.2794 72.4707 47.9421 73.0207 47.7074 73.666C47.4727 74.2967 47.3554 74.9933 47.3554 75.756C47.3554 76.5333 47.4727 77.2373 47.7074 77.868C47.9421 78.4987 48.2794 79.0487 48.7194 79.518C49.1594 79.9727 49.6727 80.3247 50.2594 80.574C50.8607 80.8233 51.5207 80.948 52.2394 80.948C53.1047 80.948 53.8454 80.816 54.4614 80.552C55.0921 80.288 55.6201 79.914 56.0454 79.43L58.0694 81.454C57.3507 82.1727 56.5147 82.73 55.5614 83.126C54.6081 83.522 53.5007 83.72 52.2394 83.72ZM60.1494 83.5V68.034H63.1414V83.5H60.1494ZM62.3494 83.5V80.86H70.9074V83.5H62.3494ZM62.3494 76.878V74.326H70.1374V76.878H62.3494ZM62.3494 70.674V68.034H70.7974V70.674H62.3494ZM77.4851 83.72C76.2384 83.72 75.1678 83.5073 74.2731 83.082C73.3931 82.6567 72.5938 82.0187 71.8751 81.168L73.8551 79.188C74.3098 79.7893 74.8378 80.2587 75.4391 80.596C76.0404 80.9187 76.7738 81.08 77.6391 81.08C78.4164 81.08 79.0324 80.926 79.4871 80.618C79.9564 80.31 80.1911 79.8847 80.1911 79.342C80.1911 78.8727 80.0591 78.4913 79.7951 78.198C79.5311 77.9047 79.1791 77.6553 78.7391 77.45C78.3138 77.2447 77.8371 77.0613 77.3091 76.9C76.7958 76.724 76.2751 76.526 75.7471 76.306C75.2338 76.086 74.7571 75.8147 74.3171 75.492C73.8918 75.1547 73.5471 74.7293 73.2831 74.216C73.0191 73.688 72.8871 73.028 72.8871 72.236C72.8871 71.2973 73.1144 70.498 73.5691 69.838C74.0238 69.178 74.6471 68.672 75.4391 68.32C76.2311 67.968 77.1258 67.792 78.1231 67.792C79.1791 67.792 80.1324 67.99 80.9831 68.386C81.8338 68.782 82.5304 69.2953 83.0731 69.926L81.0931 71.906C80.6384 71.4073 80.1691 71.0407 79.6851 70.806C79.2158 70.5713 78.6804 70.454 78.0791 70.454C77.3898 70.454 76.8471 70.586 76.4511 70.85C76.0551 71.114 75.8571 71.4953 75.8571 71.994C75.8571 72.4193 75.9891 72.764 76.2531 73.028C76.5171 73.292 76.8618 73.5193 77.2871 73.71C77.7271 73.9007 78.2038 74.084 78.7171 74.26C79.2451 74.436 79.7658 74.634 80.2791 74.854C80.8071 75.074 81.2838 75.36 81.7091 75.712C82.1491 76.064 82.5011 76.5187 82.7651 77.076C83.0291 77.6187 83.1611 78.2933 83.1611 79.1C83.1611 80.5373 82.6551 81.6667 81.6431 82.488C80.6311 83.3093 79.2451 83.72 77.4851 83.72ZM89.6238 83.72C88.3771 83.72 87.3064 83.5073 86.4118 83.082C85.5318 82.6567 84.7324 82.0187 84.0138 81.168L85.9938 79.188C86.4484 79.7893 86.9764 80.2587 87.5778 80.596C88.1791 80.9187 88.9124 81.08 89.7778 81.08C90.5551 81.08 91.1711 80.926 91.6258 80.618C92.0951 80.31 92.3298 79.8847 92.3298 79.342C92.3298 78.8727 92.1978 78.4913 91.9338 78.198C91.6698 77.9047 91.3178 77.6553 90.8778 77.45C90.4524 77.2447 89.9758 77.0613 89.4478 76.9C88.9344 76.724 88.4138 76.526 87.8858 76.306C87.3724 76.086 86.8958 75.8147 86.4558 75.492C86.0304 75.1547 85.6858 74.7293 85.4218 74.216C85.1578 73.688 85.0258 73.028 85.0258 72.236C85.0258 71.2973 85.2531 70.498 85.7078 69.838C86.1624 69.178 86.7858 68.672 87.5778 68.32C88.3698 67.968 89.2644 67.792 90.2618 67.792C91.3178 67.792 92.2711 67.99 93.1218 68.386C93.9724 68.782 94.6691 69.2953 95.2118 69.926L93.2318 71.906C92.7771 71.4073 92.3078 71.0407 91.8238 70.806C91.3544 70.5713 90.8191 70.454 90.2178 70.454C89.5284 70.454 88.9858 70.586 88.5898 70.85C88.1938 71.114 87.9958 71.4953 87.9958 71.994C87.9958 72.4193 88.1278 72.764 88.3918 73.028C88.6558 73.292 89.0004 73.5193 89.4258 73.71C89.8658 73.9007 90.3424 74.084 90.8558 74.26C91.3838 74.436 91.9044 74.634 92.4178 74.854C92.9458 75.074 93.4224 75.36 93.8478 75.712C94.2878 76.064 94.6398 76.5187 94.9038 77.076C95.1678 77.6187 95.2998 78.2933 95.2998 79.1C95.2998 80.5373 94.7938 81.6667 93.7818 82.488C92.7698 83.3093 91.3838 83.72 89.6238 83.72Z" fill="#27AE60"/>
</svg>
