<svg width="187" height="68" viewBox="0 0 187 68" fill="none" xmlns="http://www.w3.org/2000/svg">
<rect width="186.847" height="67.9996" rx="10.2641" fill="#F2E7D7"/>
<path d="M42.8273 35.0301C42.8641 32.1571 44.4011 29.4387 46.8392 27.9339C45.3011 25.7286 42.7248 24.3304 40.0445 24.2462C37.1857 23.945 34.4142 25.9636 32.9574 25.9636C31.4724 25.9636 29.2294 24.2761 26.8141 24.326C23.6659 24.4281 20.7309 26.225 19.1993 28.9882C15.9067 34.7109 18.3627 43.1214 21.5166 47.7472C23.0946 50.0124 24.9388 52.5426 27.3519 52.4528C29.7133 52.3545 30.5953 50.9412 33.4457 50.9412C36.2696 50.9412 37.097 52.4528 39.5591 52.3958C42.093 52.3545 43.6895 50.1206 45.2121 47.834C46.3459 46.22 47.2183 44.4362 47.7971 42.5486C44.8193 41.2843 42.8308 38.2759 42.8273 35.0301Z" fill="#090909"/>
<path d="M38.1768 21.204C39.5584 19.539 40.239 17.399 40.0742 15.2383C37.9634 15.4608 36.0137 16.4736 34.6135 18.0747C33.2442 19.6391 32.5317 21.7415 32.6664 23.8196C34.7779 23.8414 36.8537 22.8561 38.1768 21.204Z" fill="#090909"/>
<path d="M127.051 32.0629V35.5443H124.878V37.8274H127.051V45.5849C127.051 48.2338 128.245 49.2933 131.248 49.2933C131.776 49.2933 132.278 49.2303 132.718 49.1546V46.8967C132.341 46.9346 132.102 46.9598 131.688 46.9598C130.343 46.9598 129.753 46.3291 129.753 44.8911V37.8274H132.718V35.5443H129.753V32.0629H127.051Z" fill="#090909"/>
<path d="M140.368 49.4825C144.364 49.4825 146.814 46.7958 146.814 42.3431C146.814 37.9157 144.351 35.2163 140.368 35.2163C136.372 35.2163 133.91 37.9157 133.91 42.3431C133.91 46.7958 136.36 49.4825 140.368 49.4825ZM140.368 47.0733C138.018 47.0733 136.699 45.3452 136.699 42.3431C136.699 39.3663 138.018 37.6256 140.368 37.6256C142.705 37.6256 144.037 39.3663 144.037 42.3431C144.037 45.3326 142.705 47.0733 140.368 47.0733Z" fill="#090909"/>
<path d="M148.91 49.2177H151.611V41.107C151.611 39.1771 153.056 37.8779 155.104 37.8779C155.582 37.8779 156.386 37.9661 156.612 38.0418V35.3677C156.323 35.292 155.808 35.2542 155.406 35.2542C153.622 35.2542 152.101 36.2381 151.712 37.5877H151.511V35.4812H148.91V49.2177Z" fill="#090909"/>
<path d="M163.32 37.5247C165.318 37.5247 166.624 38.9248 166.687 41.0818H159.776C159.927 38.9374 161.322 37.5247 163.32 37.5247ZM166.675 45.5092C166.172 46.5814 165.054 47.1742 163.42 47.1742C161.259 47.1742 159.864 45.648 159.776 43.2387V43.0873H169.439V42.1413C169.439 37.8274 167.139 35.2163 163.332 35.2163C159.475 35.2163 157.025 38.004 157.025 42.3936C157.025 46.7832 159.425 49.4825 163.345 49.4825C166.474 49.4825 168.66 47.9689 169.275 45.5092H166.675Z" fill="#090909"/>
<path d="M109.336 44.145C109.544 47.5181 112.344 49.6752 116.511 49.6752C120.965 49.6752 123.752 47.4135 123.752 43.8051C123.752 40.9681 122.163 39.3992 118.309 38.4971L116.238 37.9872C113.79 37.412 112.8 36.6406 112.8 35.294C112.8 33.5944 114.337 32.4832 116.642 32.4832C118.83 32.4832 120.34 33.5683 120.614 35.3071H123.453C123.283 32.1302 120.497 29.8945 116.681 29.8945C112.579 29.8945 109.844 32.1302 109.844 35.4901C109.844 38.2618 111.393 39.9091 114.792 40.7066L117.215 41.2949C119.702 41.8832 120.796 42.7461 120.796 44.1842C120.796 45.8577 119.077 47.0735 116.733 47.0735C114.219 47.0735 112.474 45.9361 112.227 44.145H109.336Z" fill="#090909"/>
<path d="M81.3518 35.2542C79.4922 35.2542 77.8839 36.1876 77.0547 37.7517H76.8536V35.4812H74.2527V53.7839H76.9542V47.1364H77.1678C77.8839 48.587 79.4294 49.4447 81.377 49.4447C84.8323 49.4447 87.0311 46.7075 87.0311 42.3431C87.0311 37.9788 84.8323 35.2542 81.3518 35.2542ZM80.5854 47.0102C78.3237 47.0102 76.9039 45.2191 76.9039 42.3557C76.9039 39.4798 78.3237 37.6886 80.5979 37.6886C82.8847 37.6886 84.2543 39.442 84.2543 42.3431C84.2543 45.2569 82.8847 47.0102 80.5854 47.0102Z" fill="#090909"/>
<path d="M96.4838 35.2542C94.6242 35.2542 93.0159 36.1876 92.1867 37.7517H91.9856V35.4812H89.3847V53.7839H92.0861V47.1364H92.2997C93.0159 48.587 94.5614 49.4447 96.5089 49.4447C99.9643 49.4447 102.163 46.7075 102.163 42.3431C102.163 37.9788 99.9643 35.2542 96.4838 35.2542ZM95.7174 47.0102C93.4557 47.0102 92.0359 45.2191 92.0359 42.3557C92.0359 39.4798 93.4557 37.6886 95.7299 37.6886C98.0167 37.6886 99.3863 39.442 99.3863 42.3431C99.3863 45.2569 98.0167 47.0102 95.7174 47.0102Z" fill="#090909"/>
<path d="M69.4059 49.2177H72.5054L65.7204 30.3521H62.5819L55.7969 49.2177H58.7922L60.5242 44.2104H67.6869L69.4059 49.2177ZM64.0014 33.7775H64.2228L66.9446 41.7525H61.2665L64.0014 33.7775Z" fill="#090909"/>
<path d="M55.7197 17.0456V24.5027H58.4017C60.6152 24.5027 61.8969 23.1332 61.8969 20.7509C61.8969 18.4047 60.6049 17.0456 58.4017 17.0456H55.7197ZM56.8728 18.0998H58.273C59.8121 18.0998 60.7233 19.0817 60.7233 20.7664C60.7233 22.4769 59.8276 23.4485 58.273 23.4485H56.8728V18.0998Z" fill="#090909"/>
<path d="M65.8225 24.6112C67.4595 24.6112 68.4633 23.5105 68.4633 21.6863C68.4633 19.8724 67.4543 18.7665 65.8225 18.7665C64.1856 18.7665 63.1766 19.8724 63.1766 21.6863C63.1766 23.5105 64.1804 24.6112 65.8225 24.6112ZM65.8225 23.6242C64.8599 23.6242 64.3194 22.9162 64.3194 21.6863C64.3194 20.4667 64.8599 19.7535 65.8225 19.7535C66.78 19.7535 67.3256 20.4667 67.3256 21.6863C67.3256 22.911 66.78 23.6242 65.8225 23.6242Z" fill="#090909"/>
<path d="M77.0115 18.875H75.9047L74.9061 23.1694H74.8186L73.6655 18.875H72.6051L71.452 23.1694H71.3696L70.3658 18.875H69.2437L70.788 24.5027H71.9256L73.0787 20.3581H73.1662L74.3244 24.5027H75.4723L77.0115 18.875Z" fill="#090909"/>
<path d="M78.286 24.5027H79.3928V21.2108C79.3928 20.3323 79.9127 19.7845 80.7312 19.7845C81.5496 19.7845 81.9409 20.2341 81.9409 21.1385V24.5027H83.0476V20.8594C83.0476 19.521 82.3578 18.7665 81.1069 18.7665C80.2627 18.7665 79.7068 19.1437 79.434 19.769H79.3516V18.875H78.286V24.5027Z" fill="#090909"/>
<path d="M84.7906 24.5027H85.8974V16.6787H84.7906V24.5027Z" fill="#090909"/>
<path d="M90.0598 24.6112C91.6967 24.6112 92.7005 23.5105 92.7005 21.6863C92.7005 19.8724 91.6916 18.7665 90.0598 18.7665C88.4228 18.7665 87.4139 19.8724 87.4139 21.6863C87.4139 23.5105 88.4177 24.6112 90.0598 24.6112ZM90.0598 23.6242C89.0971 23.6242 88.5566 22.9162 88.5566 21.6863C88.5566 20.4667 89.0971 19.7535 90.0598 19.7535C91.0172 19.7535 91.5629 20.4667 91.5629 21.6863C91.5629 22.911 91.0172 23.6242 90.0598 23.6242Z" fill="#090909"/>
<path d="M95.9981 23.6603C95.3958 23.6603 94.9583 23.3658 94.9583 22.8593C94.9583 22.3632 95.3083 22.0997 96.0805 22.048L97.4497 21.9602V22.4304C97.4497 23.1281 96.832 23.6603 95.9981 23.6603ZM95.715 24.5957C96.4511 24.5957 97.0637 24.2753 97.3983 23.712H97.4858V24.5027H98.5513V20.6579C98.5513 19.4693 97.7586 18.7665 96.3533 18.7665C95.0818 18.7665 94.1758 19.3866 94.0626 20.353H95.1333C95.2568 19.9551 95.6841 19.7277 96.3018 19.7277C97.0585 19.7277 97.4497 20.0636 97.4497 20.6579V21.1436L95.9312 21.2315C94.5979 21.3142 93.8464 21.8981 93.8464 22.911C93.8464 23.9394 94.634 24.5957 95.715 24.5957Z" fill="#090909"/>
<path d="M102.307 24.5957C103.079 24.5957 103.733 24.2288 104.068 23.6138H104.155V24.5027H105.215V16.6787H104.109V19.769H104.026C103.723 19.1489 103.074 18.782 102.307 18.782C100.891 18.782 99.9803 19.9086 99.9803 21.6863C99.9803 23.4691 100.881 24.5957 102.307 24.5957ZM102.621 19.7794C103.548 19.7794 104.129 20.5183 104.129 21.6914C104.129 22.8697 103.553 23.5983 102.621 23.5983C101.684 23.5983 101.123 22.88 101.123 21.6863C101.123 20.5028 101.689 19.7794 102.621 19.7794Z" fill="#090909"/>
<path d="M112.392 24.6112C114.029 24.6112 115.033 23.5105 115.033 21.6863C115.033 19.8724 114.024 18.7665 112.392 18.7665C110.755 18.7665 109.746 19.8724 109.746 21.6863C109.746 23.5105 110.75 24.6112 112.392 24.6112ZM112.392 23.6242C111.43 23.6242 110.889 22.9162 110.889 21.6863C110.889 20.4667 111.43 19.7535 112.392 19.7535C113.35 19.7535 113.895 20.4667 113.895 21.6863C113.895 22.911 113.35 23.6242 112.392 23.6242Z" fill="#090909"/>
<path d="M116.498 24.5027H117.605V21.2108C117.605 20.3323 118.125 19.7845 118.943 19.7845C119.762 19.7845 120.153 20.2341 120.153 21.1385V24.5027H121.26V20.8594C121.26 19.521 120.57 18.7665 119.319 18.7665C118.475 18.7665 117.919 19.1437 117.646 19.769H117.564V18.875H116.498V24.5027Z" fill="#090909"/>
<path d="M126.357 17.4745V18.9008H125.466V19.8362H126.357V23.0144C126.357 24.0996 126.846 24.5337 128.076 24.5337C128.292 24.5337 128.498 24.5079 128.679 24.4768V23.5518C128.524 23.5673 128.426 23.5777 128.256 23.5777C127.706 23.5777 127.464 23.3193 127.464 22.7301V19.8362H128.679V18.9008H127.464V17.4745H126.357Z" fill="#090909"/>
<path d="M130.164 24.5027H131.271V21.216C131.271 20.3633 131.775 19.7897 132.681 19.7897C133.464 19.7897 133.881 20.2445 133.881 21.1436V24.5027H134.987V20.8698C134.987 19.5313 134.251 18.7717 133.057 18.7717C132.213 18.7717 131.621 19.1489 131.348 19.7794H131.261V16.6787H130.164V24.5027Z" fill="#090909"/>
<path d="M138.98 19.7122C139.798 19.7122 140.334 20.2858 140.36 21.1695H137.528C137.59 20.291 138.162 19.7122 138.98 19.7122ZM140.354 22.9834C140.149 23.4226 139.69 23.6655 139.021 23.6655C138.136 23.6655 137.564 23.0402 137.528 22.0532V21.9912H141.487V21.6036C141.487 19.8362 140.545 18.7665 138.985 18.7665C137.405 18.7665 136.401 19.9086 136.401 21.7069C136.401 23.5053 137.384 24.6112 138.99 24.6112C140.272 24.6112 141.168 23.9911 141.42 22.9834H140.354Z" fill="#090909"/>
</svg>
