<svg width="15" height="16" viewBox="0 0 15 16" fill="none" xmlns="http://www.w3.org/2000/svg">
<path d="M13.6643 10.6955L12.3893 9.42047C12.0098 9.04409 11.4976 8.83192 10.963 8.82967C10.4285 8.82743 9.91454 9.03529 9.53184 9.40847C9.32766 9.61396 9.05821 9.74181 8.7699 9.77001C8.4816 9.79821 8.19248 9.72499 7.95234 9.56297C7.00324 8.93082 6.18776 8.11814 5.55234 7.17122C5.39338 6.92844 5.32293 6.6383 5.35285 6.34965C5.38276 6.06101 5.51122 5.79149 5.71659 5.58647C6.08671 5.20333 6.29208 4.6905 6.28872 4.1578C6.28536 3.6251 6.07352 3.1149 5.69859 2.73647L4.42359 1.46147C4.04247 1.08152 3.52626 0.868164 2.98809 0.868164C2.44993 0.868164 1.93372 1.08152 1.55259 1.46147L1.18659 1.82822C-0.715407 3.74222 -0.572157 7.75772 3.40059 11.729C5.79609 14.129 8.20734 15.1287 10.1626 15.1287C10.7381 15.1479 11.3117 15.0523 11.8499 14.8475C12.3882 14.6428 12.8803 14.333 13.2976 13.9362L13.6643 13.5695C14.0454 13.1883 14.2595 12.6714 14.2595 12.1325C14.2595 11.5935 14.0454 11.0766 13.6643 10.6955Z" fill="white"/>
</svg>
