<svg width="46" height="69" viewBox="0 0 46 69" fill="none" xmlns="http://www.w3.org/2000/svg">
<path fill-rule="evenodd" clip-rule="evenodd" d="M5.87877 18.5077C5.07958 17.8131 3.86863 17.898 3.17416 18.6973C2.47982 19.4964 2.56468 20.7071 3.36372 21.4015L9.15049 26.4308L10.5329 27.6328C11.3667 28.3577 12.6303 28.2693 13.3549 27.4353L14.5574 26.0513L16.1969 24.167C16.9217 23.3339 18.1845 23.2459 19.0178 23.9703L21.8484 26.4308L23.2323 27.6332C24.0663 28.3579 25.3299 28.269 26.0543 27.4347L27.2553 26.0513L28.8911 24.1699C29.6158 23.3364 30.8789 23.2481 31.7125 23.9726L34.5406 26.4308L35.9244 27.6332C36.7585 28.3579 38.0221 28.269 38.7464 27.4347L39.9475 26.0513L42.463 23.159C43.1579 22.36 43.0732 21.1488 42.2738 20.4542C41.4748 19.76 40.2644 19.8448 39.57 20.6436L38.3672 22.0274C37.6426 22.8609 36.3795 22.9494 35.5458 22.2248L30.728 18.0376C30.2275 17.6026 29.4692 17.6558 29.0343 18.1563L27.3083 20.1427C27.3078 20.1433 27.3082 20.1442 27.309 20.1442C27.3097 20.1442 27.3101 20.145 27.3097 20.1456L25.2862 22.4743C24.7764 23.061 23.8875 23.1233 23.3008 22.6135L18.6391 18.562C17.8054 17.8374 16.5422 17.9259 15.8176 18.7596L15.4372 19.1973L12.9771 22.0274C12.2525 22.8609 10.9894 22.9494 10.1557 22.2248L5.87877 18.5077Z" fill="#FF9F29"/>
<path fill-rule="evenodd" clip-rule="evenodd" d="M5.87877 41.5077C5.07958 40.8131 3.86863 40.898 3.17416 41.6973C2.47982 42.4964 2.56468 43.7071 3.36372 44.4015L9.15049 49.4308L10.5329 50.6328C11.3667 51.3577 12.6303 51.2693 13.3549 50.4353L14.5574 49.0513L16.1969 47.167C16.9217 46.3339 18.1845 46.2459 19.0178 46.9703L21.8484 49.4308L23.2323 50.6332C24.0663 51.3579 25.3299 51.269 26.0543 50.4347L27.2553 49.0513L28.8911 47.1699C29.6158 46.3364 30.8789 46.2481 31.7125 46.9726L34.5406 49.4308L35.9244 50.6332C36.7585 51.3579 38.0221 51.269 38.7464 50.4347L39.9475 49.0513L42.463 46.159C43.1579 45.36 43.0732 44.1488 42.2738 43.4542C41.4748 42.76 40.2644 42.8448 39.57 43.6436L38.3672 45.0274C37.6426 45.8609 36.3795 45.9494 35.5458 45.2248L30.728 41.0376C30.2275 40.6026 29.4692 40.6558 29.0343 41.1563L27.3083 43.1427C27.3078 43.1433 27.3082 43.1442 27.309 43.1442C27.3097 43.1442 27.3101 43.145 27.3097 43.1456L25.2862 45.4743C24.7764 46.061 23.8875 46.1233 23.3008 45.6135L18.6391 41.562C17.8054 40.8374 16.5422 40.9259 15.8176 41.7596L15.4372 42.1973L12.9771 45.0274C12.2525 45.8609 10.9894 45.9494 10.1557 45.2248L5.87877 41.5077Z" fill="#FF9F29"/>
</svg>
