<svg width="1693" height="653" viewBox="0 0 1693 653" fill="none" xmlns="http://www.w3.org/2000/svg">
<path fill-rule="evenodd" clip-rule="evenodd" d="M98.8788 166.508C98.0796 165.813 96.8686 165.898 96.1742 166.697C95.4798 167.496 95.5647 168.707 96.3637 169.402L102.15 174.431L103.533 175.633C104.367 176.358 105.63 176.269 106.355 175.435L107.557 174.051L109.197 172.167C109.922 171.334 111.184 171.246 112.018 171.97L114.848 174.431L116.232 175.633C117.066 176.358 118.33 176.269 119.054 175.435L120.255 174.051L121.891 172.17C122.616 171.336 123.879 171.248 124.712 171.973L127.541 174.431L128.924 175.633C129.758 176.358 131.022 176.269 131.746 175.435L132.947 174.051L135.463 171.159C136.158 170.36 136.073 169.149 135.274 168.454C134.475 167.76 133.264 167.845 132.57 168.644L131.367 170.027C130.643 170.861 129.379 170.949 128.546 170.225L123.728 166.038C123.227 165.603 122.469 165.656 122.034 166.156L120.308 168.143C120.308 168.143 120.308 168.144 120.309 168.144C120.31 168.144 120.31 168.145 120.31 168.146L118.286 170.474C117.776 171.061 116.887 171.123 116.301 170.613L111.639 166.562C110.805 165.837 109.542 165.926 108.818 166.76L108.437 167.197L105.977 170.027C105.253 170.861 103.989 170.949 103.156 170.225L98.8788 166.508Z" fill="#FF9F29"/>
<path opacity="0.5" d="M1844.5 653C2024.82 653 2171 506.821 2171 326.5C2171 146.179 2024.82 0 1844.5 0C1664.18 0 1518 146.179 1518 326.5C1518 506.821 1664.18 653 1844.5 653Z" fill="url(#paint0_linear_6004_10872)"/>
<rect x="1045" y="323.917" width="12" height="12" rx="3" transform="rotate(-25 1045 323.917)" fill="#F2C94C"/>
<path fill-rule="evenodd" clip-rule="evenodd" d="M98.8788 189.508C98.0796 188.813 96.8686 188.898 96.1742 189.697C95.4798 190.496 95.5647 191.707 96.3637 192.402L102.15 197.431L103.533 198.633C104.367 199.358 105.63 199.269 106.355 198.435L107.557 197.051L109.197 195.167C109.922 194.334 111.184 194.246 112.018 194.97L114.848 197.431L116.232 198.633C117.066 199.358 118.33 199.269 119.054 198.435L120.255 197.051L121.891 195.17C122.616 194.336 123.879 194.248 124.712 194.973L127.541 197.431L128.924 198.633C129.758 199.358 131.022 199.269 131.746 198.435L132.947 197.051L135.463 194.159C136.158 193.36 136.073 192.149 135.274 191.454C134.475 190.76 133.264 190.845 132.57 191.644L131.367 193.027C130.643 193.861 129.379 193.949 128.546 193.225L123.728 189.038C123.227 188.603 122.469 188.656 122.034 189.156L120.308 191.143C120.308 191.143 120.308 191.144 120.309 191.144C120.31 191.144 120.31 191.145 120.31 191.146L118.286 193.474C117.776 194.061 116.887 194.123 116.301 193.613L111.639 189.562C110.805 188.837 109.542 188.926 108.818 189.76L108.437 190.197L105.977 193.027C105.253 193.861 103.989 193.949 103.156 193.225L98.8788 189.508Z" fill="#FF9F29"/>
<rect y="461.071" width="12" height="12" rx="3" transform="rotate(-25 0 461.071)" fill="#EB0029"/>
<defs>
<linearGradient id="paint0_linear_6004_10872" x1="1191.5" y1="326.5" x2="1844.5" y2="979.5" gradientUnits="userSpaceOnUse">
<stop stop-color="#FCEEE9"/>
<stop offset="1" stop-color="#ECF8F8"/>
</linearGradient>
</defs>
</svg>
