<svg width="1600" height="653" viewBox="0 0 1600 653" fill="none" xmlns="http://www.w3.org/2000/svg">
<path opacity="0.5" d="M1751.5 653C1931.82 653 2078 506.821 2078 326.5C2078 146.179 1931.82 0 1751.5 0C1571.18 0 1425 146.179 1425 326.5C1425 506.821 1571.18 653 1751.5 653Z" fill="url(#paint0_linear_6003_10876)"/>
<rect x="952" y="323.917" width="12" height="12" rx="3" transform="rotate(-25 952 323.917)" fill="#F2C94C"/>
<path fill-rule="evenodd" clip-rule="evenodd" d="M5.87877 166.508C5.07958 165.813 3.86863 165.898 3.17416 166.697C2.47982 167.496 2.56468 168.707 3.36372 169.402L9.15049 174.431L10.5329 175.633C11.3667 176.358 12.6303 176.269 13.3549 175.435L14.5574 174.051L16.1969 172.167C16.9217 171.334 18.1845 171.246 19.0178 171.97L21.8484 174.431L23.2323 175.633C24.0663 176.358 25.3299 176.269 26.0543 175.435L27.2553 174.051L28.8911 172.17C29.6158 171.336 30.8789 171.248 31.7125 171.973L34.5406 174.431L35.9244 175.633C36.7585 176.358 38.0221 176.269 38.7464 175.435L39.9475 174.051L42.463 171.159C43.1579 170.36 43.0732 169.149 42.2738 168.454C41.4748 167.76 40.2644 167.845 39.57 168.644L38.3672 170.027C37.6426 170.861 36.3795 170.949 35.5458 170.225L30.728 166.038C30.2275 165.603 29.4692 165.656 29.0343 166.156L27.3083 168.143C27.3078 168.143 27.3082 168.144 27.309 168.144C27.3097 168.144 27.3101 168.145 27.3097 168.146L25.2862 170.474C24.7764 171.061 23.8875 171.123 23.3008 170.613L18.6391 166.562C17.8054 165.837 16.5422 165.926 15.8176 166.76L15.4372 167.197L12.9771 170.027C12.2525 170.861 10.9894 170.949 10.1557 170.225L5.87877 166.508Z" fill="#FF9F29"/>
<path fill-rule="evenodd" clip-rule="evenodd" d="M5.87877 189.508C5.07958 188.813 3.86863 188.898 3.17416 189.697C2.47982 190.496 2.56468 191.707 3.36372 192.402L9.15049 197.431L10.5329 198.633C11.3667 199.358 12.6303 199.269 13.3549 198.435L14.5574 197.051L16.1969 195.167C16.9217 194.334 18.1845 194.246 19.0178 194.97L21.8484 197.431L23.2323 198.633C24.0663 199.358 25.3299 199.269 26.0543 198.435L27.2553 197.051L28.8911 195.17C29.6158 194.336 30.8789 194.248 31.7125 194.973L34.5406 197.431L35.9244 198.633C36.7585 199.358 38.0221 199.269 38.7464 198.435L39.9475 197.051L42.463 194.159C43.1579 193.36 43.0732 192.149 42.2738 191.454C41.4748 190.76 40.2644 190.845 39.57 191.644L38.3672 193.027C37.6426 193.861 36.3795 193.949 35.5458 193.225L30.728 189.038C30.2275 188.603 29.4692 188.656 29.0343 189.156L27.3083 191.143C27.3078 191.143 27.3082 191.144 27.309 191.144C27.3097 191.144 27.3101 191.145 27.3097 191.146L25.2862 193.474C24.7764 194.061 23.8875 194.123 23.3008 193.613L18.6391 189.562C17.8054 188.837 16.5422 188.926 15.8176 189.76L15.4372 190.197L12.9771 193.027C12.2525 193.861 10.9894 193.949 10.1557 193.225L5.87877 189.508Z" fill="#FF9F29"/>
<defs>
<linearGradient id="paint0_linear_6003_10876" x1="1098.5" y1="326.5" x2="1751.5" y2="979.5" gradientUnits="userSpaceOnUse">
<stop stop-color="#FCEEE9"/>
<stop offset="1" stop-color="#ECF8F8"/>
</linearGradient>
</defs>
</svg>
