<svg width="18" height="14" viewBox="0 0 18 14" fill="none" xmlns="http://www.w3.org/2000/svg">
<path d="M15 0H3C2.20508 0.00237409 1.4434 0.319207 0.881302 0.881302C0.319207 1.4434 0.00237409 2.20508 0 3L0 10.5C0.00237409 11.2949 0.319207 12.0566 0.881302 12.6187C1.4434 13.1808 2.20508 13.4976 3 13.5H15C15.7949 13.4976 16.5566 13.1808 17.1187 12.6187C17.6808 12.0566 17.9976 11.2949 18 10.5V3C17.9976 2.20508 17.6808 1.4434 17.1187 0.881302C16.5566 0.319207 15.7949 0.00237409 15 0ZM16.2 4.35L10.275 8.325C9.89105 8.56147 9.45084 8.69094 9 8.7C8.54916 8.69094 8.10895 8.56147 7.725 8.325L1.8 4.35C1.64986 4.22432 1.55148 4.04758 1.52379 3.85374C1.4961 3.65991 1.54105 3.46269 1.65 3.3C1.77568 3.14986 1.95242 3.05148 2.14626 3.02379C2.34009 2.9961 2.53731 3.04105 2.7 3.15L8.625 7.125C8.74998 7.19868 8.89242 7.23754 9.0375 7.23754C9.18258 7.23754 9.32502 7.19868 9.45 7.125L15.375 3.15C15.4578 3.09292 15.5514 3.05336 15.65 3.03375C15.7486 3.01414 15.8502 3.0149 15.9485 3.03597C16.0469 3.05704 16.1399 3.09798 16.2218 3.15628C16.3037 3.21458 16.3729 3.28901 16.425 3.375C16.5007 3.53951 16.5196 3.72447 16.4789 3.9009C16.4382 4.07734 16.3401 4.23528 16.2 4.35Z" fill="white"/>
</svg>
