<svg width="36" height="37" viewBox="0 0 36 37" fill="none" xmlns="http://www.w3.org/2000/svg">
<path d="M18.8939 12.1548C18.7329 12.1548 18.5914 12.0938 18.4694 11.9718C18.3474 11.8498 18.2874 11.7083 18.2894 11.5473V9.90479C18.2894 9.27779 18.5074 8.74628 18.9434 8.31028C19.3794 7.87328 19.9109 7.65479 20.5379 7.65479H22.1819C22.3439 7.65479 22.4854 7.71528 22.6064 7.83628C22.7274 7.95828 22.7879 8.09978 22.7879 8.26078V9.90479C22.7879 10.5318 22.5699 11.0638 22.1339 11.5008C21.6969 11.9368 21.1649 12.1548 20.5379 12.1548H18.8939ZM10.9619 19.6548C9.91591 19.6548 9.02941 19.2908 8.30241 18.5628C7.57541 17.8358 7.21191 16.9493 7.21191 15.9033V13.3653C7.21191 13.0173 7.32691 12.7283 7.55691 12.4983C7.78691 12.2683 8.07541 12.1533 8.42241 12.1533H10.9619C12.0079 12.1533 12.8944 12.5168 13.6214 13.2438C14.3484 13.9708 14.7119 14.8573 14.7119 15.9033V18.4428C14.7119 18.7908 14.5969 19.0793 14.3669 19.3083C14.1369 19.5373 13.8479 19.6528 13.4999 19.6548H10.9619ZM23.9999 31.6248C23.1019 31.6248 22.2474 31.4748 21.4364 31.1748C20.6254 30.8748 19.8964 30.4623 19.2494 29.9373L17.0294 32.1558C16.8894 32.2958 16.7179 32.3708 16.5149 32.3808C16.3109 32.3908 16.1289 32.3158 15.9689 32.1558C15.8089 31.9958 15.7339 31.8138 15.7439 31.6098C15.7539 31.4068 15.8289 31.2348 15.9689 31.0938L18.1874 28.8753C17.6624 28.2273 17.2499 27.4983 16.9499 26.6883C16.6499 25.8783 16.4999 25.0238 16.4999 24.1248C16.4999 22.0478 17.2309 20.2773 18.6929 18.8133C20.1539 17.3483 21.9229 16.6158 23.9999 16.6158H29.9219C30.3619 16.6158 30.7319 16.7658 31.0319 17.0658C31.3309 17.3638 31.4804 17.7333 31.4804 18.1743V24.1248C31.4804 26.2018 30.7529 27.9708 29.2979 29.4318C27.8429 30.8938 26.0769 31.6248 23.9999 31.6248ZM23.9999 30.1248C25.6749 30.1248 27.0874 29.5373 28.2374 28.3623C29.3874 27.1873 29.9624 25.7748 29.9624 24.1248V18.1248H23.9999C22.3499 18.1248 20.9374 18.7063 19.7624 19.8693C18.5874 21.0323 17.9999 22.4508 17.9999 24.1248C17.9999 24.8148 18.1119 25.4738 18.3359 26.1018C18.5599 26.7298 18.8669 27.2978 19.2569 27.8058L23.4689 23.5938C23.6289 23.4338 23.8059 23.3538 23.9999 23.3538C24.1939 23.3538 24.3709 23.4338 24.5309 23.5938C24.6909 23.7538 24.7709 23.9308 24.7709 24.1248C24.7709 24.3188 24.6909 24.4958 24.5309 24.6558L20.3189 28.8678C20.8269 29.2578 21.3949 29.5648 22.0229 29.7888C22.6509 30.0128 23.3099 30.1248 23.9999 30.1248Z" fill="#F86A2E"/>
</svg>
