<svg width="184" height="68" viewBox="0 0 184 68" fill="none" xmlns="http://www.w3.org/2000/svg">
<rect x="0.84668" width="182.444" height="67.9996" rx="10.2641" fill="#F2E7D7"/>
<g filter="url(#filter0_ii_4010_34655)">
<path d="M19.0579 17.2184C18.6637 17.6373 18.4307 18.2874 18.4307 19.1292V49.2068C18.4307 50.05 18.6637 50.6987 19.0579 51.1176L19.1581 51.2155L35.9416 34.3666V34.168V33.9694L19.1581 17.1191L19.0579 17.2184Z" fill="url(#paint0_linear_4010_34655)"/>
<path d="M41.535 39.9846L35.9414 34.3664V34.1679V33.9693L41.5363 28.3525L41.6623 28.4246L48.2909 32.2054C50.1834 33.2852 50.1834 35.0519 48.2909 36.1331L41.6623 39.9138L41.535 39.9846Z" fill="url(#paint1_linear_4010_34655)"/>
<g filter="url(#filter1_i_4010_34655)">
<path d="M41.6613 39.9126L35.939 34.168L19.0566 51.1176C19.6798 51.7812 20.7107 51.8628 21.8717 51.2019L41.6613 39.9126Z" fill="url(#paint2_linear_4010_34655)"/>
</g>
<path d="M41.6613 28.4237L21.8717 17.1358C20.7107 16.4735 19.6798 16.5564 19.0566 17.2201L35.9403 34.1697L41.6613 28.4237Z" fill="url(#paint3_linear_4010_34655)"/>
</g>
<path d="M92.2755 35.8135C89.2661 35.8135 86.8134 38.1013 86.8134 41.2523C86.8134 44.3842 89.2661 46.6912 92.2755 46.6912C95.2861 46.6912 97.7388 44.3842 97.7388 41.2523C97.7375 38.1013 95.2848 35.8135 92.2755 35.8135ZM92.2755 44.5504C90.6262 44.5504 89.2047 43.191 89.2047 41.2536C89.2047 39.2957 90.6275 37.9568 92.2755 37.9568C93.9247 37.9568 95.3462 39.2957 95.3462 41.2536C95.3462 43.1897 93.9247 44.5504 92.2755 44.5504ZM80.3584 35.8135C77.3491 35.8135 74.8964 38.1013 74.8964 41.2523C74.8964 44.3842 77.3491 46.6912 80.3584 46.6912C83.369 46.6912 85.8218 44.3842 85.8218 41.2523C85.8218 38.1013 83.369 35.8135 80.3584 35.8135ZM80.3584 44.5504C78.7092 44.5504 77.2877 43.191 77.2877 41.2536C77.2877 39.2957 78.7105 37.9568 80.3584 37.9568C82.0077 37.9568 83.4292 39.2957 83.4292 41.2536C83.4305 43.1897 82.0077 44.5504 80.3584 44.5504ZM66.1844 37.4836V39.7906H71.7092C71.5441 41.0886 71.1117 42.0362 70.4515 42.6948C69.6479 43.4979 68.3902 44.3841 66.1844 44.3841C62.7836 44.3841 60.1248 41.6436 60.1248 38.2445C60.1248 34.8454 62.7836 32.1049 66.1844 32.1049C68.0192 32.1049 69.3588 32.8261 70.3478 33.7533L71.9766 32.1253C70.5948 30.8068 68.7613 29.7979 66.1844 29.7979C61.5258 29.7979 57.6094 33.5883 57.6094 38.2445C57.6094 42.9007 61.5258 46.6912 66.1844 46.6912C68.6986 46.6912 70.596 45.8663 72.079 44.3215C73.6041 42.7971 74.0788 40.6538 74.0788 38.9236C74.0788 38.389 74.0378 37.8941 73.9547 37.4823L66.1844 37.4836ZM124.155 39.2752C123.702 38.0604 122.32 35.8135 119.496 35.8135C116.693 35.8135 114.363 38.0182 114.363 41.2523C114.363 44.301 116.672 46.6912 119.764 46.6912C122.257 46.6912 123.701 45.1668 124.299 44.2806L122.444 43.0439C121.826 43.9506 120.98 44.5478 119.764 44.5478C118.548 44.5478 117.682 43.9916 117.125 42.8994L124.402 39.8916L124.155 39.2752ZM116.734 41.0886C116.672 38.9862 118.363 37.9158 119.579 37.9158C120.528 37.9158 121.331 38.3903 121.6 39.0693L116.734 41.0886ZM110.819 46.3625H113.209V30.3759H110.819V46.3625ZM106.901 37.0296H106.819C106.283 36.3902 105.252 35.8135 103.955 35.8135C101.233 35.8135 98.7394 38.2036 98.7394 41.274C98.7394 44.3228 101.233 46.6924 103.955 46.6924C105.253 46.6924 106.283 46.1157 106.819 45.4571H106.901V46.2397C106.901 48.3204 105.788 49.433 103.995 49.433C102.532 49.433 101.625 48.383 101.254 47.4968L99.1718 48.3626C99.7693 49.8038 101.356 51.5763 103.995 51.5763C106.799 51.5763 109.17 49.9279 109.17 45.9098V36.1447H106.902L106.901 37.0296ZM104.16 44.5504C102.511 44.5504 101.131 43.1693 101.131 41.274C101.131 39.3571 102.511 37.9568 104.16 37.9568C105.788 37.9568 107.066 39.3571 107.066 41.274C107.066 43.1693 105.788 44.5504 104.16 44.5504ZM135.355 30.3759H129.635V46.3625H132.021V40.306H135.354C138 40.306 140.602 38.3916 140.602 35.3416C140.602 32.2916 138.001 30.3759 135.355 30.3759ZM135.417 38.0808H132.021V32.601H135.417C137.202 32.601 138.215 34.0781 138.215 35.3416C138.215 36.5795 137.202 38.0808 135.417 38.0808ZM150.172 35.7853C148.443 35.7853 146.653 36.5462 145.912 38.233L148.031 39.1167C148.484 38.233 149.329 37.944 150.213 37.944C151.447 37.944 152.702 38.6844 152.723 40.0003V40.1653C152.29 39.9185 151.364 39.5489 150.233 39.5489C147.949 39.5489 145.623 40.8034 145.623 43.1475C145.623 45.287 147.496 46.6643 149.595 46.6643C151.199 46.6643 152.084 45.9443 152.64 45.1003H152.722V46.3344H155.027V40.2049C155.029 37.3685 152.907 35.7853 150.172 35.7853ZM149.883 44.5466C149.102 44.5466 148.011 44.1552 148.011 43.1884C148.011 41.9544 149.369 41.4812 150.543 41.4812C151.591 41.4812 152.086 41.7076 152.723 42.0158C152.537 43.4979 151.262 44.5466 149.883 44.5466ZM163.423 36.1344L160.686 43.0657H160.605L157.764 36.1344H155.192L159.452 45.8216L157.023 51.2105H159.513L166.078 36.1344H163.423ZM141.92 46.3625H144.307V30.3759H141.92V46.3625Z" fill="#090909"/>
<path d="M65.8872 20.9203C65.8872 21.9725 65.5701 22.81 64.9348 23.4353C64.2138 24.1787 63.273 24.5504 62.1174 24.5504C61.0103 24.5504 60.0682 24.1737 59.2948 23.4203C58.5201 22.6656 58.1328 21.7314 58.1328 20.6164C58.1328 19.5001 58.5201 18.5659 59.2948 17.8125C60.0682 17.0579 61.0103 16.6812 62.1174 16.6812C62.667 16.6812 63.1924 16.7866 63.691 16.9963C64.1908 17.2073 64.5909 17.4873 64.8901 17.8376L64.2164 18.5006C63.7089 17.9042 63.0096 17.6066 62.1161 17.6066C61.3082 17.6066 60.6102 17.8853 60.0209 18.4429C59.4316 19.0004 59.1376 19.7249 59.1376 20.6151C59.1376 21.5054 59.4316 22.2299 60.0209 22.7874C60.6102 23.3449 61.3082 23.6237 62.1161 23.6237C62.9726 23.6237 63.6872 23.3437 64.2586 22.7824C64.6293 22.417 64.844 21.9085 64.9016 21.2568H62.1161V20.3515H65.8322C65.8705 20.5486 65.8872 20.7382 65.8872 20.9203Z" fill="#090909"/>
<path d="M71.7804 17.7737H68.288V20.1619H71.4378V21.0672H68.288V23.4555H71.7804V24.3822H67.3024V16.8482H71.7804V17.7737Z" fill="#090909"/>
<path d="M75.9361 24.3822H74.9505V17.7737H72.808V16.8482H78.0786V17.7737H75.9361V24.3822Z" fill="#090909"/>
<path d="M81.8918 24.3822V16.8482H82.8773V24.3822H81.8918Z" fill="#090909"/>
<path d="M87.2482 24.3822H86.2626V17.7737H84.1201V16.8482H89.3906V17.7737H87.2482V24.3822Z" fill="#090909"/>
<path d="M99.3677 23.409C98.6135 24.17 97.6765 24.5504 96.5554 24.5504C95.4343 24.5504 94.4973 24.17 93.7443 23.409C92.9901 22.6481 92.6143 21.7164 92.6143 20.6152C92.6143 19.514 92.9901 18.5823 93.7443 17.8214C94.4973 17.0604 95.4343 16.6787 96.5554 16.6787C97.6701 16.6787 98.6058 17.0617 99.3626 17.8264C100.119 18.5911 100.498 19.5203 100.498 20.6152C100.498 21.7164 100.121 22.6481 99.3677 23.409ZM94.4717 22.7774C95.0393 23.3425 95.7334 23.6238 96.5554 23.6238C97.3773 23.6238 98.0728 23.3412 98.6391 22.7774C99.2066 22.2124 99.4917 21.4916 99.4917 20.6152C99.4917 19.7387 99.2066 19.018 98.6391 18.453C98.0728 17.8879 97.3773 17.6066 96.5554 17.6066C95.7334 17.6066 95.0393 17.8892 94.4717 18.453C93.9054 19.018 93.6203 19.7387 93.6203 20.6152C93.6203 21.4916 93.9054 22.2124 94.4717 22.7774Z" fill="#090909"/>
<path d="M101.881 24.3822V16.8482H103.08L106.808 22.7084H106.85L106.808 21.2569V16.8482H107.793V24.3822H106.764L102.864 18.237H102.822L102.864 19.6885V24.3822H101.881Z" fill="#090909"/>
<path d="M65.8872 20.9203C65.8872 21.9725 65.5701 22.81 64.9348 23.4353C64.2138 24.1787 63.273 24.5504 62.1174 24.5504C61.0103 24.5504 60.0682 24.1737 59.2948 23.4203C58.5201 22.6656 58.1328 21.7314 58.1328 20.6164C58.1328 19.5001 58.5201 18.5659 59.2948 17.8125C60.0682 17.0579 61.0103 16.6812 62.1174 16.6812C62.667 16.6812 63.1924 16.7866 63.691 16.9963C64.1908 17.2073 64.5909 17.4873 64.8901 17.8376L64.2164 18.5006C63.7089 17.9042 63.0096 17.6066 62.1161 17.6066C61.3082 17.6066 60.6102 17.8853 60.0209 18.4429C59.4316 19.0004 59.1376 19.7249 59.1376 20.6151C59.1376 21.5054 59.4316 22.2299 60.0209 22.7874C60.6102 23.3449 61.3082 23.6237 62.1161 23.6237C62.9726 23.6237 63.6872 23.3437 64.2586 22.7824C64.6293 22.417 64.844 21.9085 64.9016 21.2568H62.1161V20.3515H65.8322C65.8705 20.5486 65.8872 20.7382 65.8872 20.9203Z" stroke="white" stroke-width="0.0524781" stroke-miterlimit="10"/>
<path d="M71.7804 17.7737H68.288V20.1619H71.4378V21.0672H68.288V23.4555H71.7804V24.3822H67.3024V16.8482H71.7804V17.7737Z" stroke="white" stroke-width="0.0524781" stroke-miterlimit="10"/>
<path d="M75.9361 24.3822H74.9505V17.7737H72.808V16.8482H78.0786V17.7737H75.9361V24.3822Z" stroke="white" stroke-width="0.0524781" stroke-miterlimit="10"/>
<path d="M81.8918 24.3822V16.8482H82.8773V24.3822H81.8918Z" stroke="white" stroke-width="0.0524781" stroke-miterlimit="10"/>
<path d="M87.2482 24.3822H86.2626V17.7737H84.1201V16.8482H89.3906V17.7737H87.2482V24.3822Z" stroke="white" stroke-width="0.0524781" stroke-miterlimit="10"/>
<path d="M99.3677 23.409C98.6135 24.17 97.6765 24.5504 96.5554 24.5504C95.4343 24.5504 94.4973 24.17 93.7443 23.409C92.9901 22.6481 92.6143 21.7164 92.6143 20.6152C92.6143 19.514 92.9901 18.5823 93.7443 17.8214C94.4973 17.0604 95.4343 16.6787 96.5554 16.6787C97.6701 16.6787 98.6058 17.0617 99.3626 17.8264C100.119 18.5911 100.498 19.5203 100.498 20.6152C100.498 21.7164 100.121 22.6481 99.3677 23.409ZM94.4717 22.7774C95.0393 23.3425 95.7334 23.6238 96.5554 23.6238C97.3773 23.6238 98.0728 23.3412 98.6391 22.7774C99.2066 22.2124 99.4917 21.4916 99.4917 20.6152C99.4917 19.7387 99.2066 19.018 98.6391 18.453C98.0728 17.8879 97.3773 17.6066 96.5554 17.6066C95.7334 17.6066 95.0393 17.8892 94.4717 18.453C93.9054 19.018 93.6203 19.7387 93.6203 20.6152C93.6203 21.4916 93.9054 22.2124 94.4717 22.7774Z" stroke="white" stroke-width="0.0524781" stroke-miterlimit="10"/>
<path d="M101.881 24.3822V16.8482H103.08L106.808 22.7084H106.85L106.808 21.2569V16.8482H107.793V24.3822H106.764L102.864 18.237H102.822L102.864 19.6885V24.3822H101.881Z" stroke="white" stroke-width="0.0524781" stroke-miterlimit="10"/>
<defs>
<filter id="filter0_ii_4010_34655" x="18.4307" y="16.6787" width="31.2793" height="34.9795" filterUnits="userSpaceOnUse" color-interpolation-filters="sRGB">
<feFlood flood-opacity="0" result="BackgroundImageFix"/>
<feBlend mode="normal" in="SourceGraphic" in2="BackgroundImageFix" result="shape"/>
<feColorMatrix in="SourceAlpha" type="matrix" values="0 0 0 0 0 0 0 0 0 0 0 0 0 0 0 0 0 0 127 0" result="hardAlpha"/>
<feOffset dy="-0.203999"/>
<feComposite in2="hardAlpha" operator="arithmetic" k2="-1" k3="1"/>
<feColorMatrix type="matrix" values="0 0 0 0 0 0 0 0 0 0 0 0 0 0 0 0 0 0 0.12 0"/>
<feBlend mode="normal" in2="shape" result="effect1_innerShadow_4010_34655"/>
<feColorMatrix in="SourceAlpha" type="matrix" values="0 0 0 0 0 0 0 0 0 0 0 0 0 0 0 0 0 0 127 0" result="hardAlpha"/>
<feOffset dy="0.203999"/>
<feComposite in2="hardAlpha" operator="arithmetic" k2="-1" k3="1"/>
<feColorMatrix type="matrix" values="0 0 0 0 1 0 0 0 0 1 0 0 0 0 1 0 0 0 0.25 0"/>
<feBlend mode="normal" in2="effect1_innerShadow_4010_34655" result="effect2_innerShadow_4010_34655"/>
</filter>
<filter id="filter1_i_4010_34655" x="19.0566" y="34.168" width="22.6045" height="17.4902" filterUnits="userSpaceOnUse" color-interpolation-filters="sRGB">
<feFlood flood-opacity="0" result="BackgroundImageFix"/>
<feBlend mode="normal" in="SourceGraphic" in2="BackgroundImageFix" result="shape"/>
<feColorMatrix in="SourceAlpha" type="matrix" values="0 0 0 0 0 0 0 0 0 0 0 0 0 0 0 0 0 0 127 0" result="hardAlpha"/>
<feOffset dy="-0.203999"/>
<feComposite in2="hardAlpha" operator="arithmetic" k2="-1" k3="1"/>
<feColorMatrix type="matrix" values="0 0 0 0 0 0 0 0 0 0 0 0 0 0 0 0 0 0 0.08 0"/>
<feBlend mode="normal" in2="shape" result="effect1_innerShadow_4010_34655"/>
</filter>
<linearGradient id="paint0_linear_4010_34655" x1="34.4538" y1="18.811" x2="11.6306" y2="41.5455" gradientUnits="userSpaceOnUse">
<stop stop-color="#00A0FF"/>
<stop offset="0.0066" stop-color="#00A1FF"/>
<stop offset="0.2601" stop-color="#00BEFF"/>
<stop offset="0.5122" stop-color="#00D2FF"/>
<stop offset="0.7604" stop-color="#00DFFF"/>
<stop offset="1" stop-color="#00E3FF"/>
</linearGradient>
<linearGradient id="paint1_linear_4010_34655" x1="50.7544" y1="34.1679" x2="17.9761" y2="34.1679" gradientUnits="userSpaceOnUse">
<stop stop-color="#FFE000"/>
<stop offset="0.4087" stop-color="#FFBD00"/>
<stop offset="0.7754" stop-color="#FFA500"/>
<stop offset="1" stop-color="#FF9C00"/>
</linearGradient>
<linearGradient id="paint2_linear_4010_34655" x1="38.5537" y1="37.2877" x2="7.60254" y2="68.1185" gradientUnits="userSpaceOnUse">
<stop stop-color="#FF3A44"/>
<stop offset="1" stop-color="#C31162"/>
</linearGradient>
<linearGradient id="paint3_linear_4010_34655" x1="14.8048" y1="7.20755" x2="28.6253" y2="20.9744" gradientUnits="userSpaceOnUse">
<stop stop-color="#32A071"/>
<stop offset="0.0685" stop-color="#2DA771"/>
<stop offset="0.4762" stop-color="#15CF74"/>
<stop offset="0.8009" stop-color="#06E775"/>
<stop offset="1" stop-color="#00F076"/>
</linearGradient>
</defs>
</svg>
