<svg width="184" height="69" viewBox="0 0 184 69" fill="none" xmlns="http://www.w3.org/2000/svg">
<rect x="0.84668" y="0.5" width="182.444" height="67.9996" rx="10.2641" fill="#F4F4F4"/>
<g filter="url(#filter0_ii_4010_32178)">
<path d="M19.0579 17.7184C18.6637 18.1373 18.4307 18.7874 18.4307 19.6292V49.7068C18.4307 50.55 18.6637 51.1987 19.0579 51.6176L19.1581 51.7155L35.9416 34.8666V34.668V34.4694L19.1581 17.6191L19.0579 17.7184Z" fill="url(#paint0_linear_4010_32178)"/>
<path d="M41.535 40.4841L35.9414 34.8659V34.6674V34.4688L41.5363 28.8521L41.6623 28.9241L48.2909 32.7049C50.1834 33.7847 50.1834 35.5514 48.2909 36.6326L41.6623 40.4134L41.535 40.4841Z" fill="url(#paint1_linear_4010_32178)"/>
<g filter="url(#filter1_i_4010_32178)">
<path d="M41.6613 40.4131L35.939 34.6685L19.0566 51.618C19.6798 52.2817 20.7107 52.3633 21.8717 51.7024L41.6613 40.4131Z" fill="url(#paint2_linear_4010_32178)"/>
</g>
<path d="M41.6613 28.9237L21.8717 17.6358C20.7107 16.9735 19.6798 17.0564 19.0566 17.7201L35.9403 34.6697L41.6613 28.9237Z" fill="url(#paint3_linear_4010_32178)"/>
</g>
<path d="M92.2755 36.3139C89.2661 36.3139 86.8134 38.6018 86.8134 41.7528C86.8134 44.8846 89.2661 47.1916 92.2755 47.1916C95.2861 47.1916 97.7388 44.8846 97.7388 41.7528C97.7375 38.6018 95.2848 36.3139 92.2755 36.3139ZM92.2755 45.0509C90.6262 45.0509 89.2047 43.6915 89.2047 41.7541C89.2047 39.7962 90.6275 38.4573 92.2755 38.4573C93.9247 38.4573 95.3462 39.7962 95.3462 41.7541C95.3462 43.6902 93.9247 45.0509 92.2755 45.0509ZM80.3584 36.3139C77.3491 36.3139 74.8964 38.6018 74.8964 41.7528C74.8964 44.8846 77.3491 47.1916 80.3584 47.1916C83.369 47.1916 85.8218 44.8846 85.8218 41.7528C85.8218 38.6018 83.369 36.3139 80.3584 36.3139ZM80.3584 45.0509C78.7092 45.0509 77.2877 43.6915 77.2877 41.7541C77.2877 39.7962 78.7105 38.4573 80.3584 38.4573C82.0077 38.4573 83.4292 39.7962 83.4292 41.7541C83.4305 43.6902 82.0077 45.0509 80.3584 45.0509ZM66.1844 37.9841V40.2911H71.7092C71.5441 41.5891 71.1117 42.5367 70.4515 43.1953C69.6479 43.9984 68.3902 44.8846 66.1844 44.8846C62.7836 44.8846 60.1248 42.1441 60.1248 38.745C60.1248 35.3459 62.7836 32.6053 66.1844 32.6053C68.0192 32.6053 69.3588 33.3266 70.3478 34.2538L71.9766 32.6258C70.5948 31.3073 68.7613 30.2983 66.1844 30.2983C61.5258 30.2983 57.6094 34.0888 57.6094 38.745C57.6094 43.4012 61.5258 47.1916 66.1844 47.1916C68.6986 47.1916 70.596 46.3668 72.079 44.822C73.6041 43.2976 74.0788 41.1543 74.0788 39.424C74.0788 38.8895 74.0378 38.3946 73.9547 37.9828L66.1844 37.9841ZM124.155 39.7757C123.702 38.5608 122.32 36.3139 119.496 36.3139C116.693 36.3139 114.363 38.5186 114.363 41.7528C114.363 44.8015 116.672 47.1916 119.764 47.1916C122.257 47.1916 123.701 45.6673 124.299 44.7811L122.444 43.5444C121.826 44.4511 120.98 45.0483 119.764 45.0483C118.548 45.0483 117.682 44.492 117.125 43.3999L124.402 40.3921L124.155 39.7757ZM116.734 41.5891C116.672 39.4867 118.363 38.4163 119.579 38.4163C120.528 38.4163 121.331 38.8908 121.6 39.5698L116.734 41.5891ZM110.819 46.863H113.209V30.8764H110.819V46.863ZM106.901 37.5301H106.819C106.283 36.8907 105.252 36.3139 103.955 36.3139C101.233 36.3139 98.7394 38.7041 98.7394 41.7745C98.7394 44.8233 101.233 47.1929 103.955 47.1929C105.253 47.1929 106.283 46.6162 106.819 45.9576H106.901V46.7402C106.901 48.8209 105.788 49.9334 103.995 49.9334C102.532 49.9334 101.625 48.8835 101.254 47.9973L99.1718 48.8631C99.7693 50.3043 101.356 52.0768 103.995 52.0768C106.799 52.0768 109.17 50.4284 109.17 46.4103V36.6452H106.902L106.901 37.5301ZM104.16 45.0509C102.511 45.0509 101.131 43.6698 101.131 41.7745C101.131 39.8576 102.511 38.4573 104.16 38.4573C105.788 38.4573 107.066 39.8576 107.066 41.7745C107.066 43.6698 105.788 45.0509 104.16 45.0509ZM135.355 30.8764H129.635V46.863H132.021V40.8065H135.354C138 40.8065 140.602 38.8921 140.602 35.8421C140.602 32.7921 138.001 30.8764 135.355 30.8764ZM135.417 38.5813H132.021V33.1015H135.417C137.202 33.1015 138.215 34.5786 138.215 35.8421C138.215 37.08 137.202 38.5813 135.417 38.5813ZM150.172 36.2858C148.443 36.2858 146.653 37.0467 145.912 38.7335L148.031 39.6172C148.484 38.7335 149.329 38.4445 150.213 38.4445C151.447 38.4445 152.702 39.1849 152.723 40.5008V40.6658C152.29 40.419 151.364 40.0494 150.233 40.0494C147.949 40.0494 145.623 41.3039 145.623 43.648C145.623 45.7875 147.496 47.1648 149.595 47.1648C151.199 47.1648 152.084 46.4448 152.64 45.6008H152.722V46.8349H155.027V40.7054C155.029 37.869 152.907 36.2858 150.172 36.2858ZM149.883 45.0471C149.102 45.0471 148.011 44.6557 148.011 43.6889C148.011 42.4549 149.369 41.9817 150.543 41.9817C151.591 41.9817 152.086 42.2081 152.723 42.5163C152.537 43.9984 151.262 45.0471 149.883 45.0471ZM163.423 36.6349L160.686 43.5662H160.605L157.764 36.6349H155.192L159.452 46.322L157.023 51.711H159.513L166.078 36.6349H163.423ZM141.92 46.863H144.307V30.8764H141.92V46.863Z" fill="#090909"/>
<path d="M65.8872 21.4203C65.8872 22.4725 65.5701 23.31 64.9348 23.9353C64.2138 24.6787 63.273 25.0504 62.1174 25.0504C61.0103 25.0504 60.0682 24.6737 59.2948 23.9203C58.5201 23.1656 58.1328 22.2314 58.1328 21.1164C58.1328 20.0001 58.5201 19.0659 59.2948 18.3125C60.0682 17.5579 61.0103 17.1812 62.1174 17.1812C62.667 17.1812 63.1924 17.2866 63.691 17.4963C64.1908 17.7073 64.5909 17.9873 64.8901 18.3376L64.2164 19.0006C63.7089 18.4042 63.0096 18.1066 62.1161 18.1066C61.3082 18.1066 60.6102 18.3853 60.0209 18.9429C59.4316 19.5004 59.1376 20.2249 59.1376 21.1151C59.1376 22.0054 59.4316 22.7299 60.0209 23.2874C60.6102 23.8449 61.3082 24.1237 62.1161 24.1237C62.9726 24.1237 63.6872 23.8437 64.2586 23.2824C64.6293 22.917 64.844 22.4085 64.9016 21.7568H62.1161V20.8515H65.8322C65.8705 21.0486 65.8872 21.2382 65.8872 21.4203Z" fill="#090909"/>
<path d="M71.7804 18.2737H68.288V20.6619H71.4378V21.5672H68.288V23.9555H71.7804V24.8822H67.3024V17.3482H71.7804V18.2737Z" fill="#090909"/>
<path d="M75.9361 24.8822H74.9505V18.2737H72.808V17.3482H78.0786V18.2737H75.9361V24.8822Z" fill="#090909"/>
<path d="M81.8918 24.8822V17.3482H82.8773V24.8822H81.8918Z" fill="#090909"/>
<path d="M87.2482 24.8822H86.2626V18.2737H84.1201V17.3482H89.3906V18.2737H87.2482V24.8822Z" fill="#090909"/>
<path d="M99.3677 23.909C98.6135 24.67 97.6765 25.0504 96.5554 25.0504C95.4343 25.0504 94.4973 24.67 93.7443 23.909C92.9901 23.1481 92.6143 22.2164 92.6143 21.1152C92.6143 20.014 92.9901 19.0823 93.7443 18.3214C94.4973 17.5604 95.4343 17.1787 96.5554 17.1787C97.6701 17.1787 98.6058 17.5617 99.3626 18.3264C100.119 19.0911 100.498 20.0203 100.498 21.1152C100.498 22.2164 100.121 23.1481 99.3677 23.909ZM94.4717 23.2774C95.0393 23.8425 95.7334 24.1238 96.5554 24.1238C97.3773 24.1238 98.0728 23.8412 98.6391 23.2774C99.2066 22.7124 99.4917 21.9916 99.4917 21.1152C99.4917 20.2387 99.2066 19.518 98.6391 18.953C98.0728 18.3879 97.3773 18.1066 96.5554 18.1066C95.7334 18.1066 95.0393 18.3892 94.4717 18.953C93.9054 19.518 93.6203 20.2387 93.6203 21.1152C93.6203 21.9916 93.9054 22.7124 94.4717 23.2774Z" fill="#090909"/>
<path d="M101.881 24.8822V17.3482H103.08L106.808 23.2084H106.85L106.808 21.7569V17.3482H107.793V24.8822H106.764L102.864 18.737H102.822L102.864 20.1885V24.8822H101.881Z" fill="#090909"/>
<path d="M65.8872 21.4203C65.8872 22.4725 65.5701 23.31 64.9348 23.9353C64.2138 24.6787 63.273 25.0504 62.1174 25.0504C61.0103 25.0504 60.0682 24.6737 59.2948 23.9203C58.5201 23.1656 58.1328 22.2314 58.1328 21.1164C58.1328 20.0001 58.5201 19.0659 59.2948 18.3125C60.0682 17.5579 61.0103 17.1812 62.1174 17.1812C62.667 17.1812 63.1924 17.2866 63.691 17.4963C64.1908 17.7073 64.5909 17.9873 64.8901 18.3376L64.2164 19.0006C63.7089 18.4042 63.0096 18.1066 62.1161 18.1066C61.3082 18.1066 60.6102 18.3853 60.0209 18.9429C59.4316 19.5004 59.1376 20.2249 59.1376 21.1151C59.1376 22.0054 59.4316 22.7299 60.0209 23.2874C60.6102 23.8449 61.3082 24.1237 62.1161 24.1237C62.9726 24.1237 63.6872 23.8437 64.2586 23.2824C64.6293 22.917 64.844 22.4085 64.9016 21.7568H62.1161V20.8515H65.8322C65.8705 21.0486 65.8872 21.2382 65.8872 21.4203Z" stroke="white" stroke-width="0.0524781" stroke-miterlimit="10"/>
<path d="M71.7804 18.2737H68.288V20.6619H71.4378V21.5672H68.288V23.9555H71.7804V24.8822H67.3024V17.3482H71.7804V18.2737Z" stroke="white" stroke-width="0.0524781" stroke-miterlimit="10"/>
<path d="M75.9361 24.8822H74.9505V18.2737H72.808V17.3482H78.0786V18.2737H75.9361V24.8822Z" stroke="white" stroke-width="0.0524781" stroke-miterlimit="10"/>
<path d="M81.8918 24.8822V17.3482H82.8773V24.8822H81.8918Z" stroke="white" stroke-width="0.0524781" stroke-miterlimit="10"/>
<path d="M87.2482 24.8822H86.2626V18.2737H84.1201V17.3482H89.3906V18.2737H87.2482V24.8822Z" stroke="white" stroke-width="0.0524781" stroke-miterlimit="10"/>
<path d="M99.3677 23.909C98.6135 24.67 97.6765 25.0504 96.5554 25.0504C95.4343 25.0504 94.4973 24.67 93.7443 23.909C92.9901 23.1481 92.6143 22.2164 92.6143 21.1152C92.6143 20.014 92.9901 19.0823 93.7443 18.3214C94.4973 17.5604 95.4343 17.1787 96.5554 17.1787C97.6701 17.1787 98.6058 17.5617 99.3626 18.3264C100.119 19.0911 100.498 20.0203 100.498 21.1152C100.498 22.2164 100.121 23.1481 99.3677 23.909ZM94.4717 23.2774C95.0393 23.8425 95.7334 24.1238 96.5554 24.1238C97.3773 24.1238 98.0728 23.8412 98.6391 23.2774C99.2066 22.7124 99.4917 21.9916 99.4917 21.1152C99.4917 20.2387 99.2066 19.518 98.6391 18.953C98.0728 18.3879 97.3773 18.1066 96.5554 18.1066C95.7334 18.1066 95.0393 18.3892 94.4717 18.953C93.9054 19.518 93.6203 20.2387 93.6203 21.1152C93.6203 21.9916 93.9054 22.7124 94.4717 23.2774Z" stroke="white" stroke-width="0.0524781" stroke-miterlimit="10"/>
<path d="M101.881 24.8822V17.3482H103.08L106.808 23.2084H106.85L106.808 21.7569V17.3482H107.793V24.8822H106.764L102.864 18.737H102.822L102.864 20.1885V24.8822H101.881Z" stroke="white" stroke-width="0.0524781" stroke-miterlimit="10"/>
<defs>
<filter id="filter0_ii_4010_32178" x="18.4307" y="17.1787" width="31.2793" height="34.98" filterUnits="userSpaceOnUse" color-interpolation-filters="sRGB">
<feFlood flood-opacity="0" result="BackgroundImageFix"/>
<feBlend mode="normal" in="SourceGraphic" in2="BackgroundImageFix" result="shape"/>
<feColorMatrix in="SourceAlpha" type="matrix" values="0 0 0 0 0 0 0 0 0 0 0 0 0 0 0 0 0 0 127 0" result="hardAlpha"/>
<feOffset dy="-0.203999"/>
<feComposite in2="hardAlpha" operator="arithmetic" k2="-1" k3="1"/>
<feColorMatrix type="matrix" values="0 0 0 0 0 0 0 0 0 0 0 0 0 0 0 0 0 0 0.12 0"/>
<feBlend mode="normal" in2="shape" result="effect1_innerShadow_4010_32178"/>
<feColorMatrix in="SourceAlpha" type="matrix" values="0 0 0 0 0 0 0 0 0 0 0 0 0 0 0 0 0 0 127 0" result="hardAlpha"/>
<feOffset dy="0.203999"/>
<feComposite in2="hardAlpha" operator="arithmetic" k2="-1" k3="1"/>
<feColorMatrix type="matrix" values="0 0 0 0 1 0 0 0 0 1 0 0 0 0 1 0 0 0 0.25 0"/>
<feBlend mode="normal" in2="effect1_innerShadow_4010_32178" result="effect2_innerShadow_4010_32178"/>
</filter>
<filter id="filter1_i_4010_32178" x="19.0566" y="34.6685" width="22.6045" height="17.4902" filterUnits="userSpaceOnUse" color-interpolation-filters="sRGB">
<feFlood flood-opacity="0" result="BackgroundImageFix"/>
<feBlend mode="normal" in="SourceGraphic" in2="BackgroundImageFix" result="shape"/>
<feColorMatrix in="SourceAlpha" type="matrix" values="0 0 0 0 0 0 0 0 0 0 0 0 0 0 0 0 0 0 127 0" result="hardAlpha"/>
<feOffset dy="-0.203999"/>
<feComposite in2="hardAlpha" operator="arithmetic" k2="-1" k3="1"/>
<feColorMatrix type="matrix" values="0 0 0 0 0 0 0 0 0 0 0 0 0 0 0 0 0 0 0.08 0"/>
<feBlend mode="normal" in2="shape" result="effect1_innerShadow_4010_32178"/>
</filter>
<linearGradient id="paint0_linear_4010_32178" x1="34.4538" y1="19.311" x2="11.6306" y2="42.0455" gradientUnits="userSpaceOnUse">
<stop stop-color="#00A0FF"/>
<stop offset="0.0066" stop-color="#00A1FF"/>
<stop offset="0.2601" stop-color="#00BEFF"/>
<stop offset="0.5122" stop-color="#00D2FF"/>
<stop offset="0.7604" stop-color="#00DFFF"/>
<stop offset="1" stop-color="#00E3FF"/>
</linearGradient>
<linearGradient id="paint1_linear_4010_32178" x1="50.7544" y1="34.6674" x2="17.9761" y2="34.6674" gradientUnits="userSpaceOnUse">
<stop stop-color="#FFE000"/>
<stop offset="0.4087" stop-color="#FFBD00"/>
<stop offset="0.7754" stop-color="#FFA500"/>
<stop offset="1" stop-color="#FF9C00"/>
</linearGradient>
<linearGradient id="paint2_linear_4010_32178" x1="38.5537" y1="37.7881" x2="7.60254" y2="68.619" gradientUnits="userSpaceOnUse">
<stop stop-color="#FF3A44"/>
<stop offset="1" stop-color="#C31162"/>
</linearGradient>
<linearGradient id="paint3_linear_4010_32178" x1="14.8048" y1="7.70755" x2="28.6253" y2="21.4744" gradientUnits="userSpaceOnUse">
<stop stop-color="#32A071"/>
<stop offset="0.0685" stop-color="#2DA771"/>
<stop offset="0.4762" stop-color="#15CF74"/>
<stop offset="0.8009" stop-color="#06E775"/>
<stop offset="1" stop-color="#00F076"/>
</linearGradient>
</defs>
</svg>
