<svg width="30" height="30" viewBox="0 0 30 30" fill="none" xmlns="http://www.w3.org/2000/svg">
<g clip-path="url(#clip0_4041_11860)">
<path d="M19.7127 19.562C19.6177 19.6232 19.5079 19.6579 19.3949 19.6623C19.282 19.6667 19.1699 19.6408 19.0703 19.5872C18.9707 19.5336 18.8874 19.4543 18.8289 19.3575C18.7704 19.2607 18.7389 19.1501 18.7377 19.037V18.987C18.4877 10.187 14.9377 9.04826 12.6127 6.69951C11.9378 6.02137 11.4123 5.20948 11.07 4.31607C10.7277 3.42266 10.5762 2.4675 10.6252 1.51201C11.9985 0.878108 13.501 0.574181 15.0127 0.624513H15.0252C28.4377 0.624513 24.4002 16.4995 19.7127 19.562Z" fill="#FFE6C6"/>
<path d="M12.6122 6.7002C11.962 7.47197 11.1633 8.10523 10.2636 8.56238C9.36385 9.01954 8.38146 9.29127 7.37472 9.36144C7.11222 6.5877 7.46222 3.11145 10.6247 1.5127C10.5757 2.46818 10.7273 3.42334 11.0695 4.31675C11.4118 5.21017 11.9373 6.02205 12.6122 6.7002Z" fill="#FFE6C6"/>
<path d="M18.7374 18.9877C17.6937 19.896 16.3993 20.4669 15.0249 20.6252C13.2874 20.6252 9.41235 18.4739 8.86235 15.1752C8.8275 14.9732 8.74457 14.7826 8.62056 14.6195C8.49655 14.4563 8.33511 14.3254 8.14985 14.2377C6.79985 13.6252 6.46235 11.1752 7.54985 10.6252C7.48735 10.2252 7.42485 9.80019 7.37485 9.36144C8.3816 9.29127 9.36399 9.01954 10.2637 8.56238C11.1634 8.10523 11.9621 7.47197 12.6124 6.7002C14.9374 9.04895 18.4874 10.1877 18.7374 18.9877Z" fill="#FFF8EE"/>
<path d="M24.05 10.8745C23.5125 7.11201 21 3.96201 15.025 3.96201H15.0125C13.7087 3.93139 12.4109 4.1477 11.1875 4.59951C10.8128 3.61341 10.6221 2.56692 10.625 1.51201C11.9983 0.878108 13.5008 0.574181 15.0125 0.624513H15.025C22.7125 0.624513 24.6625 5.83701 24.05 10.8745Z" fill="#FFE6C6"/>
<path d="M11.1872 4.6002C10.9955 4.67361 10.8077 4.75706 10.6247 4.8502C9.77294 5.28858 9.04022 5.92704 8.48941 6.71081C7.93859 7.49459 7.58611 8.40028 7.46222 9.3502C7.43425 9.36045 7.40444 9.36471 7.37472 9.36269C7.11222 6.5877 7.46222 3.1127 10.6247 1.5127C10.6218 2.5676 10.8125 3.61409 11.1872 4.6002Z" fill="#FFE6C6"/>
<path d="M29.375 28.1246V29.3746H0.625013V28.1246C0.622711 27.1063 0.93318 26.1119 1.51444 25.2757C2.09569 24.4396 2.91969 23.8022 3.87501 23.4496L9.37501 21.5996V25.3871C9.37574 25.486 9.39991 25.5832 9.44554 25.6709C9.49116 25.7586 9.55693 25.8342 9.63745 25.8916C9.71797 25.9489 9.81095 25.9863 9.90874 26.0008C10.0065 26.0152 10.1064 26.0062 10.2 25.9746L15 24.3746L19.8 25.9746C19.8937 26.0062 19.9935 26.0152 20.0913 26.0008C20.1891 25.9863 20.2821 25.9489 20.3626 25.8916C20.4431 25.8342 20.5089 25.7586 20.5545 25.6709C20.6001 25.5832 20.6243 25.486 20.625 25.3871V21.5996L26.125 23.4496C27.0803 23.8022 27.9043 24.4396 28.4856 25.2757C29.0668 26.1119 29.3773 27.1063 29.375 28.1246Z" fill="#FFE6C6"/>
<path d="M15 24.3752L10.2 25.9752C10.1063 26.0068 10.0065 26.0158 9.90873 26.0014C9.81094 25.9869 9.71796 25.9495 9.63744 25.8922C9.55692 25.8348 9.49114 25.7592 9.44552 25.6715C9.3999 25.5838 9.37573 25.4865 9.375 25.3877V21.6002L10.55 21.2002L15 24.3752Z" fill="white"/>
<path d="M20.625 21.6002V25.3877C20.6243 25.4865 20.6001 25.5838 20.5545 25.6715C20.5089 25.7592 20.4431 25.8348 20.3626 25.8922C20.282 25.9495 20.1891 25.9869 20.0913 26.0014C19.9935 26.0158 19.8937 26.0068 19.8 25.9752L15 24.3752L19.45 21.2002L20.625 21.6002Z" fill="white"/>
<path d="M3.87502 23.4484L9.37502 21.5996V24.3496L3.87502 26.2109C3.1633 26.4709 2.52119 26.8916 1.99868 27.4403C1.47617 27.9891 1.08736 28.651 0.862516 29.3746H0.625016V28.1246C0.622457 27.1061 0.932807 26.1114 1.51408 25.275C2.09535 24.4386 2.9195 23.801 3.87502 23.4484Z" fill="#FFF8EE"/>
<path d="M29.375 28.1246V29.3746H29.1375C28.9125 28.6512 28.5236 27.9896 28.0011 27.4411C27.4786 26.8925 26.8366 26.472 26.125 26.2121L20.625 24.3496V21.5996L26.125 23.4484C27.0805 23.801 27.9047 24.4386 28.4859 25.275C29.0672 26.1114 29.3776 27.1061 29.375 28.1246Z" fill="#FFF8EE"/>
<path d="M13.125 16.25C13.5909 16.6665 14.1978 16.8899 14.8225 16.875H15.1775" stroke="#00303E" stroke-linecap="round" stroke-linejoin="round"/>
<path d="M13.75 11.25C13.6176 11.0425 13.4314 10.8749 13.2113 10.7648C12.9912 10.6548 12.7454 10.6064 12.5 10.625C12.2546 10.6064 12.0088 10.6548 11.7887 10.7648C11.5686 10.8749 11.3824 11.0425 11.25 11.25" stroke="#00303E" stroke-linecap="round" stroke-linejoin="round"/>
<path d="M15.025 0.62473H15.01C13.4987 0.573239 11.9966 0.878123 10.625 1.51473C10.7725 9.72973 18.3837 5.95973 18.735 19.0435C18.7349 19.1571 18.7658 19.2686 18.8243 19.366C18.8829 19.4634 18.9669 19.543 19.0673 19.5962C19.1677 19.6495 19.2807 19.6743 19.3942 19.6681C19.5076 19.6619 19.6173 19.6248 19.7113 19.561C24.3962 16.4997 28.4325 0.62473 15.025 0.62473Z" stroke="#00303E" stroke-linecap="round" stroke-linejoin="round"/>
<path d="M7.38086 9.35742C8.38726 9.29041 9.36972 9.02055 10.2691 8.56407C11.1686 8.10759 11.9664 7.47392 12.6146 6.70117" stroke="#00303E" stroke-linecap="round" stroke-linejoin="round"/>
<path d="M10.6249 1.51465C6.95985 3.37465 7.0711 7.74965 7.5486 10.6246C6.45985 11.1709 6.7986 13.6246 8.1461 14.2359C8.33258 14.3208 8.49533 14.4503 8.62001 14.6129C8.74469 14.7755 8.82748 14.9663 8.8611 15.1684C9.41235 18.4734 13.2911 20.6246 15.0249 20.6246C15.5037 20.6047 15.9755 20.5029 16.4199 20.3234" stroke="#00303E" stroke-linecap="round" stroke-linejoin="round"/>
<path d="M29.3753 29.3752V28.1252C29.3748 27.1068 29.0633 26.1128 28.4825 25.2762C27.9017 24.4397 27.0793 23.8004 26.1253 23.4439L19.4453 21.2002" stroke="#00303E" stroke-linecap="round" stroke-linejoin="round"/>
<path d="M10.555 21.2002L3.875 23.4439C2.921 23.8004 2.09859 24.4397 1.51779 25.2762C0.936996 26.1128 0.625509 27.1068 0.625 28.1252V29.3752" stroke="#00303E" stroke-linecap="round" stroke-linejoin="round"/>
<path d="M9.375 21.5964V25.3827C9.37488 25.4818 9.39831 25.5795 9.44338 25.6677C9.48844 25.756 9.55384 25.8322 9.63418 25.8902C9.71452 25.9482 9.8075 25.9863 9.90544 26.0013C10.0034 26.0163 10.1035 26.0078 10.1975 25.9764L15 24.3752L10.555 21.2002" stroke="#00303E" stroke-linecap="round" stroke-linejoin="round"/>
<path d="M20.625 21.5964V25.3827C20.6251 25.4818 20.6017 25.5795 20.5566 25.6677C20.5116 25.756 20.4462 25.8322 20.3658 25.8902C20.2855 25.9482 20.1925 25.9863 20.0946 26.0013C19.9966 26.0163 19.8965 26.0078 19.8025 25.9764L15 24.3752L19.445 21.2002" stroke="#00303E" stroke-linecap="round" stroke-linejoin="round"/>
<path d="M15 29.375V24.375" stroke="#00303E" stroke-linecap="round" stroke-linejoin="round"/>
<path d="M21.875 29.375H24.375" stroke="#00303E" stroke-linecap="round" stroke-linejoin="round"/>
</g>
<defs>
<clipPath id="clip0_4041_11860">
<rect width="30" height="30" fill="white"/>
</clipPath>
</defs>
</svg>
