<svg width="42" height="42" viewBox="0 0 42 42" fill="none" xmlns="http://www.w3.org/2000/svg">
<path d="M30.625 19.25H11.375C10.9109 19.25 10.4658 19.4344 10.1376 19.7626C9.80937 20.0908 9.625 20.5359 9.625 21V22.75C9.625 23.2141 9.80937 23.6592 10.1376 23.9874C10.4658 24.3156 10.9109 24.5 11.375 24.5H12.25L13.0095 35.1242C13.041 35.5665 13.2392 35.9803 13.564 36.2821C13.8888 36.5839 14.3161 36.7511 14.7595 36.75H27.251C27.6944 36.7511 28.1217 36.5839 28.4465 36.2821C28.7713 35.9803 28.9695 35.5665 29.001 35.1242L29.75 24.5H30.625C31.0891 24.5 31.5343 24.3156 31.8624 23.9874C32.1906 23.6592 32.375 23.2141 32.375 22.75V21C32.375 20.5359 32.1906 20.0908 31.8624 19.7626C31.5343 19.4344 31.0891 19.25 30.625 19.25Z" fill="#FFE6C6"/>
<path d="M18.375 19.25H23.625V36.75H18.375V19.25Z" fill="#FFE6C6"/>
<path d="M18.375 24.5H11.375C10.9109 24.5 10.4658 24.3156 10.1376 23.9874C9.80937 23.6592 9.625 23.2141 9.625 22.75V21C9.625 20.5359 9.80937 20.0908 10.1376 19.7626C10.4658 19.4344 10.9109 19.25 11.375 19.25H30.625C31.0891 19.25 31.5342 19.4344 31.8624 19.7626C32.1906 20.0908 32.375 20.5359 32.375 21V22.75C32.375 23.2141 32.1906 23.6592 31.8624 23.9874C31.5342 24.3156 31.0891 24.5 30.625 24.5H23.625" stroke="#00303E" stroke-linecap="round" stroke-linejoin="round"/>
<path d="M23.625 24.5H29.75L28.9905 35.1242C28.959 35.5665 28.7608 35.9803 28.436 36.2821C28.1112 36.5839 27.6839 36.7511 27.2405 36.75H14.7542C14.3109 36.7511 13.8836 36.5839 13.5587 36.2821C13.2339 35.9803 13.0357 35.5665 13.0043 35.1242L12.25 24.5H18.375" stroke="#00303E" stroke-linecap="round" stroke-linejoin="round"/>
<path d="M18.375 19.25V36.75" stroke="#00303E" stroke-linecap="round" stroke-linejoin="round"/>
<path d="M23.625 36.75V19.25" stroke="#00303E" stroke-linecap="round" stroke-linejoin="round"/>
<path d="M14.875 16.954C15.925 18.011 21 19.25 21 19.25C21 19.25 19.7593 14.175 18.704 13.125C18.1963 12.6173 17.5076 12.332 16.7895 12.332C16.0715 12.332 15.3828 12.6173 14.875 13.125C14.3673 13.6328 14.082 14.3215 14.082 15.0395C14.082 15.7576 14.3673 16.4463 14.875 16.954Z" stroke="#00303E" stroke-linecap="round" stroke-linejoin="round"/>
<path d="M27.125 16.954C26.075 18.011 21 19.25 21 19.25C21 19.25 22.2408 14.175 23.296 13.125C23.5474 12.8736 23.8459 12.6742 24.1744 12.5381C24.5029 12.4021 24.8549 12.332 25.2105 12.332C25.5661 12.332 25.9181 12.4021 26.2466 12.5381C26.5751 12.6742 26.8736 12.8736 27.125 13.125C27.3764 13.3765 27.5758 13.6749 27.7119 14.0034C27.848 14.3319 27.918 14.684 27.918 15.0395C27.918 15.3951 27.848 15.7472 27.7119 16.0757C27.5758 16.4042 27.3764 16.7026 27.125 16.954Z" stroke="#00303E" stroke-linecap="round" stroke-linejoin="round"/>
<path d="M21 7.875V5.25" stroke="#00303E" stroke-linecap="round" stroke-linejoin="round"/>
<path d="M33.374 13.0005L35.2308 11.1455" stroke="#00303E" stroke-linecap="round" stroke-linejoin="round"/>
<path d="M38.5 24.5H41.125" stroke="#00303E" stroke-linecap="round" stroke-linejoin="round"/>
<path d="M8.6253 13.0005L6.76855 11.1455" stroke="#00303E" stroke-linecap="round" stroke-linejoin="round"/>
<path d="M3.5 24.5H0.875" stroke="#00303E" stroke-linecap="round" stroke-linejoin="round"/>
</svg>
