<svg width="151" height="150" viewBox="0 0 151 150" fill="none" xmlns="http://www.w3.org/2000/svg">
<g clip-path="url(#clip0_4010_32796)">
<path d="M136.482 28.4949C134.201 25.3717 114.681 -0.44974 83.0358 0.809189C81.4524 0.873475 50.5912 2.50205 39.2074 22.7467C30.7864 37.7199 39.7012 51.0056 29.4285 61.2056C20.476 70.0931 9.47868 64.211 3.97733 71.4003C-4.40083 82.3503 8.94196 111.922 29.4446 128.416C50.6127 145.447 91.1134 157.94 122.586 135.22C157.924 109.709 157.57 57.3699 136.482 28.4949Z" fill="#F4F7FA"/>
<path d="M32.8958 134.015C32.8958 136.313 31.4788 138.177 29.7238 138.177C27.9741 138.177 26.5518 136.313 26.5518 134.015C26.5518 131.716 27.9687 129.852 29.7238 129.852C31.4788 129.852 32.8958 131.716 32.8958 134.015Z" fill="url(#paint0_linear_4010_32796)"/>
<path d="M33.7815 134.486C33.7815 136.784 32.3646 138.648 30.6095 138.648C28.8598 138.648 27.4375 136.784 27.4375 134.486C27.4375 132.188 28.8544 130.323 30.6095 130.323C32.3592 130.323 33.7815 132.188 33.7815 134.486Z" fill="url(#paint1_linear_4010_32796)"/>
<path d="M31.9346 134.572C31.9346 135.536 31.3388 136.318 30.6089 136.318C29.8736 136.318 29.2832 135.536 29.2832 134.572C29.2832 133.607 29.879 132.825 30.6089 132.825C31.3442 132.825 31.9346 133.607 31.9346 134.572Z" fill="url(#paint2_linear_4010_32796)"/>
<path d="M29.7236 129.407V133.977C29.7236 134.647 30.2711 135.193 30.942 135.193C31.3284 135.193 31.6934 135.006 31.9242 134.695L36.0408 129.064L29.7236 129.407Z" fill="#DADFE5"/>
<path d="M66.8323 130.366C66.8323 132.664 65.4153 134.529 63.6603 134.529C61.9106 134.529 60.4883 132.664 60.4883 130.366C60.4883 128.068 61.9052 126.204 63.6603 126.204C65.4153 126.204 66.8323 128.068 66.8323 130.366Z" fill="url(#paint3_linear_4010_32796)"/>
<path d="M67.718 130.837C67.718 133.136 66.3011 135 64.546 135C62.7963 135 61.374 133.136 61.374 130.837C61.374 128.539 62.791 126.675 64.546 126.675C66.2957 126.675 67.718 128.539 67.718 130.837Z" fill="url(#paint4_linear_4010_32796)"/>
<path d="M65.877 130.918C65.877 131.882 65.2812 132.664 64.5513 132.664C63.816 132.664 63.2256 131.882 63.2256 130.918C63.2256 129.954 63.8213 129.171 64.5513 129.171C65.2812 129.177 65.877 129.959 65.877 130.918Z" fill="url(#paint5_linear_4010_32796)"/>
<path d="M63.666 125.753V130.323C63.666 130.993 64.2135 131.539 64.8844 131.539C65.2708 131.539 65.6358 131.352 65.8666 131.041L69.9832 125.411L63.666 125.753Z" fill="#DADFE5"/>
<path d="M29.2512 130.114C28.8325 130.114 28.4729 129.804 28.4246 129.375C28.371 128.92 28.7037 128.507 29.1599 128.459L69.3493 123.938C71.5391 123.563 73.3586 121.902 73.949 119.716L90.7858 57.1501C91.6821 53.818 94.6019 51.4233 98.0476 51.1823L110.274 50.4537C110.736 50.4215 111.127 50.7751 111.154 51.2305C111.181 51.6858 110.832 52.0823 110.376 52.109L98.1603 52.8376C95.4284 53.0251 93.1098 54.9323 92.3959 57.5787L75.5591 120.145C74.8024 122.952 72.4569 125.084 69.5855 125.577L29.3478 130.104C29.3156 130.114 29.2834 130.114 29.2512 130.114Z" fill="#DADFE5"/>
<path d="M57.2142 105.487C56.8546 105.487 56.5218 105.252 56.4145 104.887L46.9522 71.8338C46.8233 71.3945 47.081 70.9338 47.5211 70.8105C47.9612 70.6873 48.4228 70.9391 48.5462 71.3784L58.0085 104.432C58.1373 104.871 57.8797 105.332 57.4396 105.455C57.3645 105.477 57.2893 105.487 57.2142 105.487Z" fill="#DADFE5"/>
<path d="M66.8969 104.106C66.4997 104.106 66.1508 103.822 66.081 103.42L60.2416 70.677C60.1611 70.227 60.4616 69.7931 60.9125 69.7127C61.3687 69.6324 61.798 69.9324 61.8785 70.3824L67.718 103.125C67.7985 103.575 67.498 104.009 67.0471 104.09C66.9935 104.1 66.9452 104.106 66.8969 104.106Z" fill="#DADFE5"/>
<path d="M72.9129 103.034C72.9022 103.034 72.8914 103.034 72.8753 103.034C72.4191 103.012 72.0595 102.627 72.081 102.171L73.4282 69.7713C73.4443 69.3159 73.8146 68.9517 74.2923 68.9784C74.7485 68.9999 75.1081 69.3856 75.0866 69.8409L73.7394 102.241C73.7233 102.68 73.353 103.034 72.9129 103.034Z" fill="#DADFE5"/>
<path d="M44.0057 106.698C43.6568 106.698 43.3348 106.479 43.2167 106.131L32.1067 73.0609C31.9618 72.627 32.1925 72.1555 32.6327 72.0109C33.0674 71.8662 33.5397 72.0966 33.6846 72.5359L44.7947 105.606C44.9396 106.039 44.7088 106.511 44.2687 106.656C44.1828 106.682 44.0969 106.698 44.0057 106.698Z" fill="#DADFE5"/>
<path d="M138.876 55.0017C138.827 55.0017 138.784 55.0017 138.736 54.9964L111.385 52.7517C110.473 52.6767 109.791 51.8732 109.866 50.9625C109.941 50.0464 110.746 49.366 111.659 49.4464L139.01 51.691C139.922 51.766 140.604 52.5696 140.529 53.4803C140.459 54.3428 139.734 55.0017 138.876 55.0017Z" fill="url(#paint6_linear_4010_32796)"/>
<path d="M62.6731 145.366C62.6731 147.664 61.2562 149.529 59.5011 149.529C57.7514 149.529 56.3291 147.664 56.3291 145.366C56.3291 143.068 57.746 141.204 59.5011 141.204C61.2508 141.204 62.6731 143.068 62.6731 145.366Z" fill="url(#paint7_linear_4010_32796)"/>
<path d="M63.553 145.837C63.553 148.136 62.136 150 60.381 150C58.6313 150 57.209 148.136 57.209 145.837C57.209 143.539 58.6259 141.675 60.381 141.675C62.136 141.675 63.553 143.539 63.553 145.837Z" fill="url(#paint8_linear_4010_32796)"/>
<path d="M61.7119 145.923C61.7119 146.887 61.1162 147.67 60.3862 147.67C59.6509 147.67 59.0605 146.887 59.0605 145.923C59.0605 144.959 59.6563 144.177 60.3862 144.177C61.1162 144.177 61.7119 144.959 61.7119 145.923Z" fill="url(#paint9_linear_4010_32796)"/>
<path d="M59.501 140.759V145.329C59.501 145.998 60.0484 146.545 60.7193 146.545C61.1058 146.545 61.4707 146.357 61.7015 146.046L65.8181 140.416L59.501 140.759Z" fill="#C1CAD4"/>
<path d="M92.0579 142.431C92.0579 144.729 90.6409 146.593 88.8859 146.593C87.1362 146.593 85.7139 144.729 85.7139 142.431C85.7139 140.132 87.1308 138.268 88.8859 138.268C90.6356 138.268 92.0579 140.132 92.0579 142.431Z" fill="url(#paint10_linear_4010_32796)"/>
<path d="M92.9377 142.902C92.9377 145.2 91.5208 147.064 89.7657 147.064C88.016 147.064 86.5938 145.2 86.5938 142.902C86.5938 140.604 88.0107 138.739 89.7657 138.739C91.5208 138.739 92.9377 140.604 92.9377 142.902Z" fill="url(#paint11_linear_4010_32796)"/>
<path d="M91.0967 142.988C91.0967 143.952 90.5009 144.734 89.771 144.734C89.0357 144.734 88.4453 143.952 88.4453 142.988C88.4453 142.023 89.0411 141.241 89.771 141.241C90.5009 141.241 91.0967 142.023 91.0967 142.988Z" fill="url(#paint12_linear_4010_32796)"/>
<path d="M88.8857 137.823V142.393C88.8857 143.063 89.4332 143.609 90.1041 143.609C90.4905 143.609 90.8555 143.422 91.0863 143.111L95.2029 137.48L88.8857 137.823Z" fill="#C1CAD4"/>
<path d="M16.7456 74.3838C16.3163 74.3838 15.9513 74.0517 15.9191 73.6124C15.8869 73.157 16.2304 72.7606 16.6866 72.7231L88.2686 67.5802C88.333 67.5749 88.4027 67.5802 88.4671 67.5909L118.099 72.6267C118.55 72.7017 118.856 73.1302 118.781 73.5856C118.706 74.0356 118.282 74.3409 117.82 74.2659L88.2847 69.2463L16.8047 74.3838C16.7886 74.3838 16.7671 74.3838 16.7456 74.3838Z" fill="#DADFE5"/>
<path d="M41.0699 81.7552C40.9894 81.7552 40.9089 81.7445 40.8284 81.7177L16.5044 74.3463C16.0643 74.2124 15.8174 73.7517 15.9516 73.3124C16.0858 72.8731 16.5527 72.6267 16.9874 72.7606L41.1504 80.0838L117.88 72.6267C118.346 72.5784 118.744 72.9159 118.787 73.3713C118.83 73.8267 118.497 74.2338 118.041 74.2767L41.1504 81.7499C41.1236 81.7552 41.0968 81.7552 41.0699 81.7552Z" fill="#C1CAD4"/>
<path d="M108.707 107.834C108.664 107.834 108.621 107.828 108.578 107.823L79.4184 103.355L35.0534 107.619C34.5971 107.662 34.1892 107.33 34.1463 106.875C34.1034 106.419 34.4361 106.012 34.8923 105.969L79.3594 101.7C79.4291 101.694 79.4989 101.694 79.5633 101.705L108.825 106.189C109.281 106.259 109.593 106.682 109.523 107.137C109.464 107.539 109.11 107.834 108.707 107.834Z" fill="#DADFE5"/>
<path d="M48.4609 99.6055V104.888C48.4609 106.597 59.1738 107.979 72.3824 107.979C85.5964 107.979 96.3039 106.597 96.3039 104.888V99.6055H48.4609Z" fill="url(#paint13_linear_4010_32796)"/>
<path d="M96.3039 99.6052C96.3039 101.314 85.591 102.696 72.3824 102.696C59.1684 102.696 48.4609 101.314 48.4609 99.6052C48.4609 97.8963 59.1738 96.5142 72.3824 96.5142C85.591 96.5142 96.3039 97.8963 96.3039 99.6052Z" fill="url(#paint14_linear_4010_32796)"/>
<path d="M72.3829 102.911C60.6825 102.911 48.4453 101.796 48.4453 99.6481C48.4453 99.5302 48.4882 99.3213 48.6063 99.3213C48.7244 99.3213 48.6761 99.482 48.6761 99.5999C48.6761 100.961 58.4122 102.477 72.3829 102.477C86.3536 102.477 96.0897 100.961 96.0897 99.5999C96.0897 99.482 96.1112 99.3695 96.2292 99.3695C96.3473 99.3695 96.3205 99.5249 96.3205 99.6427C96.3205 101.796 84.0833 102.911 72.3829 102.911Z" fill="url(#paint15_linear_4010_32796)"/>
<path d="M70.1234 99.7769C70.3596 99.6161 70.6065 99.4554 70.8749 99.3001C71.1378 99.1447 71.4867 99.0001 71.9 98.8715C72.3186 98.7429 72.8446 98.6411 73.4779 98.5608C74.1113 98.4804 74.9002 98.4376 75.8395 98.4322C76.7626 98.4269 77.6321 98.459 78.4426 98.5179C79.253 98.5822 79.9668 98.6733 80.5841 98.8019C81.1959 98.9251 81.7004 99.0804 82.0869 99.2679C82.4733 99.4501 82.6987 99.6644 82.7739 99.9001L85.4682 99.9269C85.6614 99.9269 85.8385 99.9429 85.9834 99.9751C86.1337 100.007 86.2089 100.045 86.2089 100.093V100.313L82.747 100.28C82.6236 100.548 82.3177 100.8 81.8185 101.025C81.3247 101.25 80.6914 101.443 79.9185 101.609L78.6573 101.432C78.5445 101.416 78.4533 101.395 78.3782 101.368C78.303 101.341 78.2708 101.314 78.2708 101.282C78.2708 101.239 78.3674 101.191 78.5606 101.138C78.7539 101.084 78.9739 101.014 79.2208 100.934C79.4677 100.854 79.7038 100.757 79.9454 100.65C80.1815 100.543 80.3372 100.409 80.4177 100.259L72.2435 100.179C72.0288 100.334 71.7873 100.489 71.5243 100.645C71.2559 100.795 70.9017 100.934 70.4616 101.057C70.0215 101.18 69.474 101.277 68.8192 101.352C68.1591 101.427 67.3379 101.47 66.3396 101.475C65.5882 101.48 64.8636 101.448 64.1444 101.389C63.4306 101.33 62.7973 101.239 62.2391 101.122C61.6863 101.004 61.23 100.854 60.8758 100.677C60.5216 100.5 60.323 100.297 60.2801 100.066L58.0634 100.045C57.8702 100.045 57.6931 100.029 57.5374 99.9965C57.3872 99.9644 57.3066 99.9269 57.3066 99.8786V99.659L60.3391 99.6858C60.4733 99.4554 60.747 99.2519 61.1656 99.0751C61.5843 98.9036 62.0995 98.7483 62.706 98.6144L63.7204 98.7536C64.0263 98.7965 64.182 98.8447 64.182 98.9036C64.182 98.9358 64.1176 98.9733 63.9941 99.0215C63.8653 99.0697 63.715 99.1233 63.5379 99.1876C63.3662 99.2519 63.1944 99.3269 63.0334 99.4126C62.867 99.4983 62.7436 99.5947 62.6631 99.7072L70.1234 99.7769ZM62.6416 100.077C62.7006 100.222 62.8402 100.345 63.0441 100.452C63.2481 100.559 63.5057 100.645 63.817 100.709C64.123 100.779 64.4718 100.827 64.8529 100.859C65.2393 100.891 65.6419 100.907 66.0659 100.902C66.5543 100.902 66.9837 100.88 67.3486 100.838C67.7136 100.8 68.0302 100.747 68.3093 100.677C68.5831 100.607 68.83 100.527 69.0339 100.441C69.2379 100.35 69.4203 100.254 69.5867 100.147L62.6416 100.077ZM80.4338 99.8786C80.3747 99.734 80.2245 99.6054 79.9937 99.4929C79.7629 99.3804 79.4677 99.2894 79.1081 99.2144C78.7485 99.1394 78.3299 99.0804 77.8522 99.0483C77.3745 99.0108 76.8485 98.9947 76.2742 99.0001C75.7643 99.0001 75.3189 99.0269 74.9539 99.0697C74.5836 99.1126 74.2669 99.1715 73.9932 99.2411C73.7248 99.3161 73.4887 99.3965 73.3008 99.4929C73.113 99.5894 72.9358 99.6911 72.7695 99.8036L80.4338 99.8786Z" fill="#FCB048"/>
<path d="M72.3832 96.8462C61.7186 96.8462 50.6086 97.7783 48.832 99.589C48.9018 99.6533 48.9662 99.723 49.0253 99.7926C50.5227 98.5337 59.6952 97.2694 72.3832 97.2694C85.3986 97.2694 94.716 98.598 95.8431 99.889C95.8968 99.8194 95.9558 99.7498 96.0202 99.6855C94.555 97.8158 83.241 96.8462 72.3832 96.8462Z" fill="url(#paint16_linear_4010_32796)"/>
<path d="M41.8057 94.0557V99.3378C41.8057 101.047 52.5185 102.429 65.7271 102.429C78.9411 102.429 89.6486 101.047 89.6486 99.3378V94.0557H41.8057Z" fill="url(#paint17_linear_4010_32796)"/>
<path d="M65.732 97.1465C78.9435 97.1465 89.6535 95.7626 89.6535 94.0554C89.6535 92.3483 78.9435 90.9644 65.732 90.9644C52.5206 90.9644 41.8105 92.3483 41.8105 94.0554C41.8105 95.7626 52.5206 97.1465 65.732 97.1465Z" fill="url(#paint18_linear_4010_32796)"/>
<path d="M65.7325 97.3608C54.0321 97.3608 41.7949 96.2465 41.7949 94.0983C41.7949 93.9804 41.8379 93.7715 41.9559 93.7715C42.074 93.7715 42.0257 93.9322 42.0257 94.0501C42.0257 95.4108 51.7618 96.9268 65.7325 96.9268C79.7033 96.9268 89.4393 95.4108 89.4393 94.0501C89.4393 93.9322 89.4608 93.8197 89.5788 93.8197C89.6969 93.8197 89.6701 93.9751 89.6701 94.0929C89.6701 96.2465 77.4329 97.3608 65.7325 97.3608Z" fill="url(#paint19_linear_4010_32796)"/>
<path d="M63.4672 94.2271C63.7034 94.0663 63.9502 93.9056 64.2186 93.7503C64.4816 93.5949 64.8305 93.4503 65.2437 93.3217C65.6624 93.1931 66.1884 93.0913 66.8217 93.011C67.455 92.9306 68.244 92.8878 69.1832 92.8824C70.1064 92.8771 70.9759 92.9092 71.7863 92.9681C72.5968 93.0324 73.3106 93.1235 73.9278 93.2521C74.5397 93.3753 75.0442 93.5306 75.4306 93.7181C75.8171 93.9003 76.0425 94.1146 76.1176 94.3503L78.8119 94.3771C79.0052 94.3771 79.1823 94.3931 79.3272 94.4253C79.4775 94.4574 79.5526 94.4949 79.5526 94.5431V94.7628L76.0908 94.7306C75.9673 94.9985 75.6614 95.2503 75.1623 95.4753C74.6685 95.7003 74.0352 95.8931 73.2623 96.0592L72.001 95.8824C71.8883 95.8663 71.797 95.8449 71.7219 95.8181C71.6468 95.7913 71.6146 95.7646 71.6146 95.7324C71.6146 95.6896 71.7112 95.6413 71.9044 95.5878C72.0976 95.5342 72.3177 95.4646 72.5646 95.3842C72.8114 95.3038 73.0476 95.2074 73.2891 95.1003C73.5253 94.9931 73.6809 94.8592 73.7614 94.7092L65.5872 94.6288C65.3725 94.7842 65.131 94.9396 64.868 95.0949C64.5997 95.2449 64.2454 95.3842 63.8053 95.5074C63.3652 95.6306 62.8178 95.7271 62.163 95.8021C61.5028 95.8771 60.6816 95.9199 59.6833 95.9253C58.9319 95.9306 58.2074 95.8985 57.4882 95.8396C56.7743 95.7806 56.141 95.6896 55.5828 95.5717C55.03 95.4538 54.5738 95.3038 54.2196 95.1271C53.8653 94.9503 53.6667 94.7467 53.6238 94.5163L51.4072 94.4949C51.2139 94.4949 51.0368 94.4788 50.8812 94.4467C50.7255 94.4199 50.6504 94.3771 50.6504 94.3288V94.1092L53.6828 94.136C53.817 93.9056 54.0907 93.7021 54.5094 93.5253C54.928 93.3538 55.4433 93.1985 56.0498 93.0646L57.0642 93.2038C57.3701 93.2467 57.5257 93.2949 57.5257 93.3538C57.5257 93.386 57.4613 93.4235 57.3379 93.4717C57.2091 93.5199 57.0588 93.5735 56.8817 93.6378C56.7099 93.7021 56.5382 93.7771 56.3772 93.8628C56.2108 93.9485 56.0873 94.0449 56.0068 94.1574L63.4672 94.2271ZM55.9907 94.5271C56.0498 94.6717 56.1893 94.7949 56.3933 94.9021C56.5972 95.0092 56.8548 95.0949 57.1661 95.1592C57.4721 95.2288 57.8209 95.2771 58.202 95.3092C58.5884 95.3413 58.991 95.3574 59.415 95.3521C59.9088 95.3521 60.3328 95.3306 60.6977 95.2878C61.0627 95.2503 61.3794 95.1967 61.6585 95.1271C61.9322 95.0574 62.1737 94.9771 62.383 94.8913C62.587 94.8003 62.7695 94.7038 62.9358 94.5967L55.9907 94.5271ZM73.7829 94.3288C73.7239 94.1842 73.5736 94.0556 73.3428 93.9431C73.112 93.8306 72.8168 93.7396 72.4572 93.6646C72.0976 93.5896 71.679 93.5306 71.2013 93.4985C70.7236 93.461 70.1976 93.4449 69.6233 93.4503C69.1135 93.4503 68.668 93.4771 68.303 93.5199C67.9327 93.5628 67.616 93.6217 67.3423 93.6913C67.0739 93.7663 66.8378 93.8467 66.6499 93.9431C66.4621 94.0396 66.285 94.1413 66.1186 94.2538L73.7829 94.3288Z" fill="#FCB048"/>
<path d="M65.7328 91.2964C55.0682 91.2964 43.9582 92.2285 42.1816 94.0392C42.2514 94.1035 42.3158 94.1732 42.3749 94.2428C43.8723 92.9839 53.0448 91.7196 65.7328 91.7196C78.7482 91.7196 88.0656 93.0482 89.1927 94.3392C89.2464 94.2696 89.3054 94.2 89.3698 94.1357C87.9046 92.266 76.5906 91.2964 65.7328 91.2964Z" fill="url(#paint20_linear_4010_32796)"/>
<path d="M47.5479 88.5161V93.7983C47.5479 95.5072 58.2607 96.8893 71.4693 96.8893C84.6833 96.8893 95.3908 95.5072 95.3908 93.7983V88.5161H47.5479Z" fill="url(#paint21_linear_4010_32796)"/>
<path d="M71.4693 91.6069C84.6808 91.6069 95.3908 90.223 95.3908 88.5159C95.3908 86.8087 84.6808 85.4248 71.4693 85.4248C58.2579 85.4248 47.5479 86.8087 47.5479 88.5159C47.5479 90.223 58.2579 91.6069 71.4693 91.6069Z" fill="url(#paint22_linear_4010_32796)"/>
<path d="M71.4698 91.8212C59.7694 91.8212 47.5322 90.7069 47.5322 88.5587C47.5322 88.4409 47.5752 88.2319 47.6932 88.2319C47.8113 88.2319 47.763 88.3926 47.763 88.5105C47.763 89.8712 57.4991 91.3873 71.4698 91.3873C85.4406 91.3873 95.1766 89.8712 95.1766 88.5105C95.1766 88.3926 95.1981 88.2801 95.3162 88.2801C95.4342 88.2801 95.4074 88.4355 95.4074 88.5534C95.4074 90.7123 83.1702 91.8212 71.4698 91.8212Z" fill="url(#paint23_linear_4010_32796)"/>
<path d="M69.2104 88.6929C69.4465 88.5322 69.6934 88.3714 69.9618 88.2161C70.2248 88.0607 70.5736 87.9161 70.9869 87.7875C71.4055 87.6589 71.9315 87.5572 72.5648 87.4768C73.1982 87.3964 73.9871 87.3536 74.9264 87.3482C75.8496 87.3429 76.719 87.375 77.5295 87.4339C78.3399 87.4982 79.0538 87.5893 79.671 87.7179C80.2828 87.8411 80.7874 87.9964 81.1738 88.1839C81.5602 88.3661 81.7856 88.5804 81.8608 88.8161L84.5551 88.8429C84.7483 88.8429 84.9254 88.859 85.0704 88.8911C85.2206 88.9232 85.2958 88.9607 85.2958 89.0089V89.2286L81.8339 89.1964C81.7105 89.4643 81.4046 89.7161 80.9054 89.9411C80.4116 90.1661 79.7783 90.359 79.0055 90.525L77.7442 90.3482C77.6315 90.3322 77.5402 90.3107 77.4651 90.284C77.3899 90.2572 77.3577 90.2304 77.3577 90.1982C77.3577 90.1554 77.4543 90.1072 77.6476 90.0536C77.8408 90 78.0608 89.9304 78.3077 89.85C78.5546 89.7697 78.7908 89.6732 79.0323 89.5661C79.2684 89.4589 79.4241 89.325 79.5046 89.175L71.3304 89.0947C71.1157 89.25 70.8742 89.4054 70.6112 89.5607C70.3428 89.7107 69.9886 89.85 69.5485 89.9732C69.1084 90.0964 68.5609 90.1929 67.9061 90.2679C67.246 90.3429 66.4248 90.3857 65.4265 90.3911C64.6751 90.3965 63.9505 90.3643 63.2313 90.3054C62.5175 90.2464 61.8842 90.1554 61.326 90.0375C60.7732 89.9197 60.317 89.7697 59.9627 89.5929C59.6085 89.4161 59.4099 89.2125 59.367 88.9822L57.1503 88.9607C56.9571 88.9607 56.78 88.9447 56.6243 88.9125C56.4741 88.8857 56.3936 88.8429 56.3936 88.7947V88.575L59.426 88.6018C59.5602 88.3714 59.8339 88.1679 60.2526 87.9911C60.6712 87.8197 61.1864 87.6643 61.7929 87.5304L62.8073 87.6697C63.1133 87.7125 63.2689 87.7607 63.2689 87.8197C63.2689 87.8518 63.2045 87.8893 63.0811 87.9375C62.9522 87.9857 62.802 88.0393 62.6248 88.1036C62.4531 88.1679 62.2813 88.2429 62.1203 88.3286C61.9539 88.4143 61.8305 88.5107 61.75 88.6232L69.2104 88.6929ZM61.7285 88.9929C61.7876 89.1375 61.9271 89.2607 62.1311 89.3679C62.335 89.475 62.5926 89.5607 62.9039 89.625C63.2099 89.6947 63.5587 89.7429 63.9398 89.775C64.3262 89.8072 64.7288 89.8232 65.1528 89.8179C65.6412 89.8179 66.0706 89.7964 66.4355 89.7536C66.8005 89.7161 67.1172 89.6572 67.3963 89.5929C67.67 89.5232 67.9115 89.4429 68.1208 89.3572C68.3248 89.2661 68.5073 89.1697 68.6736 89.0625L61.7285 88.9929ZM79.5207 88.7947C79.4617 88.65 79.3114 88.5215 79.0806 88.409C78.8498 88.2965 78.5546 88.2054 78.195 88.1304C77.8354 88.0554 77.4168 87.9964 76.9391 87.9643C76.4614 87.9268 75.9354 87.9107 75.3611 87.9161C74.8513 87.9161 74.4058 87.9429 74.0408 87.9857C73.6705 88.0286 73.3538 88.0875 73.0801 88.1572C72.8117 88.2322 72.5756 88.3125 72.3877 88.409C72.1999 88.5054 72.0228 88.6072 71.8564 88.7197L79.5207 88.7947Z" fill="#FCB048"/>
<path d="M71.4701 85.7622C60.8055 85.7622 49.6955 86.6997 47.9189 88.5051C47.9887 88.5693 48.0531 88.639 48.1122 88.7086C49.6096 87.4497 58.7821 86.1854 71.4701 86.1854C84.4855 86.1854 93.8029 87.514 94.93 88.8051C94.9837 88.7354 95.0427 88.6658 95.1071 88.6015C93.6419 86.7318 82.3279 85.7622 71.4701 85.7622Z" fill="url(#paint24_linear_4010_32796)"/>
<path d="M51.0264 82.9663V88.2485C51.0264 89.9574 61.7392 91.3395 74.9479 91.3395C88.1618 91.3395 98.8693 89.9574 98.8693 88.2485V82.9663H51.0264Z" fill="url(#paint25_linear_4010_32796)"/>
<path d="M74.9527 86.0571C88.1642 86.0571 98.8742 84.6732 98.8742 82.9661C98.8742 81.2589 88.1642 79.875 74.9527 79.875C61.7413 79.875 51.0312 81.2589 51.0312 82.9661C51.0312 84.6732 61.7413 86.0571 74.9527 86.0571Z" fill="url(#paint26_linear_4010_32796)"/>
<path d="M74.9532 86.2714C63.2528 86.2714 51.0156 85.1571 51.0156 83.0089C51.0156 82.8911 51.0586 82.6821 51.1766 82.6821C51.2947 82.6821 51.2464 82.8428 51.2464 82.9607C51.2464 84.3214 60.9825 85.8375 74.9532 85.8375C88.924 85.8375 98.66 84.3214 98.66 82.9607C98.66 82.8428 98.6815 82.7303 98.7996 82.7303C98.9176 82.7303 98.8908 82.8857 98.8908 83.0036C98.8908 85.1625 86.6536 86.2714 74.9532 86.2714Z" fill="url(#paint27_linear_4010_32796)"/>
<path d="M72.6879 83.1377C72.9241 82.977 73.1709 82.8163 73.4393 82.6609C73.7023 82.5056 74.0512 82.3609 74.4644 82.2323C74.8831 82.1038 75.4091 82.002 76.0424 81.9216C76.6757 81.8413 77.4647 81.7984 78.4039 81.7931C79.3271 81.7877 80.1966 81.8198 81.007 81.8788C81.8175 81.9431 82.5313 82.0341 83.1485 82.1627C83.7604 82.2859 84.2649 82.4413 84.6513 82.6288C85.0378 82.8109 85.2632 83.0252 85.3383 83.2609L88.0326 83.2877C88.2259 83.2877 88.403 83.3038 88.5479 83.3359C88.6982 83.3681 88.7733 83.4056 88.7733 83.4538V83.6734L85.3115 83.6413C85.188 83.9091 84.8821 84.1609 84.383 84.3859C83.8892 84.6109 83.2559 84.8038 82.483 84.9698L81.2217 84.7931C81.109 84.777 81.0177 84.7556 80.9426 84.7288C80.8675 84.702 80.8353 84.6752 80.8353 84.6431C80.8353 84.6002 80.9319 84.552 81.1251 84.4984C81.3183 84.4448 81.5384 84.3752 81.7853 84.2948C82.0321 84.2145 82.2683 84.1181 82.5098 84.0109C82.746 83.9038 82.9016 83.7698 82.9821 83.6198L74.8079 83.5395C74.5932 83.6948 74.3517 83.8502 74.0887 84.0056C73.8204 84.1556 73.4661 84.2948 73.026 84.4181C72.5859 84.5413 72.0385 84.6377 71.3837 84.7127C70.7235 84.7877 69.9023 84.8306 68.904 84.8359C68.1526 84.8413 67.4281 84.8091 66.7089 84.7502C65.995 84.6913 65.3617 84.6002 64.8035 84.4823C64.2507 84.3645 63.7945 84.2145 63.4403 84.0377C63.086 83.8609 62.8874 83.6573 62.8445 83.427L60.6279 83.4056C60.4346 83.4056 60.2575 83.3895 60.1019 83.3573C59.9462 83.3252 59.8711 83.2877 59.8711 83.2395V83.0198L62.9035 83.0466C63.0377 82.8163 63.3115 82.6127 63.7301 82.4359C64.1487 82.2645 64.664 82.1091 65.2705 81.9752L66.2849 82.1145C66.5908 82.1573 66.7464 82.2056 66.7464 82.2645C66.7464 82.2966 66.682 82.3341 66.5586 82.3823C66.4298 82.4306 66.2795 82.4841 66.1024 82.5484C65.9306 82.6127 65.7589 82.6877 65.5979 82.7734C65.4315 82.8591 65.308 82.9556 65.2275 83.0681L72.6879 83.1377ZM65.2114 83.4431C65.2705 83.5877 65.41 83.7109 65.614 83.8181C65.8179 83.9252 66.0755 84.0109 66.3868 84.0752C66.6928 84.1448 67.0416 84.1931 67.4227 84.2252C67.8091 84.2573 68.2117 84.2734 68.6357 84.2681C69.1295 84.2681 69.5535 84.2466 69.9184 84.2038C70.2834 84.1663 70.6001 84.1073 70.8792 84.0431C71.1529 83.9734 71.3998 83.8931 71.6037 83.8073C71.8077 83.7163 71.9902 83.6198 72.1566 83.5127L65.2114 83.4431ZM83.0036 83.2448C82.9446 83.1002 82.7943 82.9716 82.5635 82.8591C82.3327 82.7466 82.0375 82.6556 81.6779 82.5806C81.3183 82.5056 80.8997 82.4466 80.422 82.4145C79.9443 82.377 79.4183 82.3609 78.844 82.3663C78.3342 82.3663 77.8887 82.3931 77.5237 82.4359C77.1534 82.4788 76.8367 82.5377 76.563 82.6073C76.2946 82.6823 76.0585 82.7627 75.8706 82.8591C75.6828 82.9556 75.5057 83.0573 75.3393 83.1698L83.0036 83.2448Z" fill="#FCB048"/>
<path d="M74.9535 80.2124C64.2889 80.2124 53.1789 81.1445 51.4023 82.9553C51.4721 83.0195 51.5365 83.0892 51.5956 83.1588C53.093 81.8999 62.2655 80.6356 74.9535 80.6356C87.9689 80.6356 97.2863 81.9642 98.4134 83.2553C98.4671 83.1856 98.5261 83.116 98.5905 83.0517C97.1253 81.1767 85.8113 80.2124 74.9535 80.2124Z" fill="url(#paint28_linear_4010_32796)"/>
<path d="M55.8298 112.848C55.5132 112.848 55.218 112.666 55.0784 112.372L40.3187 81.2733C40.1201 80.8608 40.2972 80.3626 40.7159 80.1697C41.1291 79.9769 41.6283 80.1483 41.8215 80.5662L56.3343 111.134L108.627 106.173C109.088 106.13 109.491 106.463 109.534 106.923C109.577 107.379 109.244 107.786 108.782 107.829L55.9103 112.848C55.8835 112.848 55.8567 112.848 55.8298 112.848Z" fill="#C1CAD4"/>
<path d="M55.835 112.848C55.7652 112.848 55.7008 112.837 55.6311 112.821L34.7742 107.593C34.5488 107.534 34.361 107.389 34.2482 107.186L16.0213 73.9445C15.8013 73.5427 15.9516 73.0391 16.3541 72.8195C16.7566 72.5998 17.2611 72.7498 17.4812 73.1516L35.531 106.077L56.0336 111.214C56.4791 111.327 56.7474 111.777 56.6347 112.221C56.5435 112.602 56.2053 112.848 55.835 112.848Z" fill="#C1CAD4"/>
<path d="M46.4426 93.0642C46.3621 93.0642 46.287 93.0534 46.2064 93.032L23.2994 86.3302C22.8592 86.2017 22.607 85.7409 22.7358 85.3017C22.8646 84.8624 23.3262 84.6106 23.7663 84.7392L46.5231 91.3981L114.166 85.5106C114.633 85.4624 115.024 85.8106 115.067 86.2659C115.105 86.7213 114.767 87.1231 114.31 87.1659L46.5124 93.0642C46.4909 93.0642 46.4641 93.0642 46.4426 93.0642Z" fill="#C1CAD4"/>
<path d="M52.0348 104.855C51.9596 104.855 51.8845 104.845 51.8094 104.823L29.863 98.6892C29.4229 98.566 29.1653 98.1053 29.2887 97.666C29.4122 97.2267 29.8737 96.9642 30.3138 97.0928L52.1153 103.184L110.854 98.0571C111.31 98.0089 111.712 98.3571 111.755 98.8124C111.793 99.2678 111.455 99.6696 110.999 99.7124L52.1099 104.855C52.0831 104.855 52.0616 104.855 52.0348 104.855Z" fill="#C1CAD4"/>
<path d="M66.6282 111.825C66.2686 111.825 65.9412 111.595 65.8339 111.231L56.4198 79.7091C56.291 79.2698 56.5379 78.8091 56.978 78.6752C57.4181 78.5412 57.8797 78.793 58.0139 79.2323L67.4279 110.754C67.5567 111.193 67.3098 111.654 66.8697 111.788C66.7892 111.814 66.7087 111.825 66.6282 111.825Z" fill="#C1CAD4"/>
<path d="M77.0405 110.839C76.6434 110.839 76.2945 110.555 76.2247 110.153L70.5785 78.2141C70.498 77.7641 70.7985 77.3302 71.2547 77.2552C71.7056 77.1748 72.1403 77.4748 72.2155 77.9302L77.8617 109.869C77.9422 110.319 77.6417 110.753 77.1855 110.828C77.1371 110.834 77.0888 110.839 77.0405 110.839Z" fill="#C1CAD4"/>
<path d="M88.7842 109.505C88.3441 109.505 87.9791 109.163 87.9523 108.723L86.1704 77.009C86.1435 76.5537 86.4978 76.1572 86.954 76.1358C87.4156 76.1197 87.8074 76.4626 87.8288 76.9179L89.6107 108.632C89.6376 109.088 89.2833 109.484 88.8271 109.505C88.8164 109.505 88.8003 109.505 88.7842 109.505Z" fill="#C1CAD4"/>
<path d="M99.9158 108.262C99.8997 108.262 99.8836 108.262 99.8729 108.262C99.4167 108.241 99.0625 107.85 99.0839 107.389L100.775 75.1712C100.796 74.7159 101.188 74.3623 101.649 74.3837C102.106 74.4052 102.46 74.7962 102.438 75.257L100.748 107.475C100.721 107.914 100.351 108.262 99.9158 108.262Z" fill="#C1CAD4"/>
<path d="M49.5235 111.268C49.2122 111.268 48.917 111.097 48.7721 110.797L33.5562 79.2323C33.3576 78.8198 33.5293 78.3216 33.9426 78.1234C34.3559 77.9252 34.855 78.0966 35.0536 78.5091L50.2695 110.073C50.4681 110.486 50.2964 110.984 49.8831 111.182C49.7704 111.241 49.647 111.268 49.5235 111.268Z" fill="#C1CAD4"/>
<path d="M41.0699 109.152C40.764 109.152 40.4688 108.986 40.3239 108.691L24.1741 76.398C23.9701 75.9855 24.1365 75.4873 24.5444 75.2838C24.9577 75.0802 25.4568 75.2463 25.6608 75.6534L41.8106 107.946C42.0145 108.359 41.8482 108.857 41.4402 109.061C41.3222 109.125 41.1987 109.152 41.0699 109.152Z" fill="#C1CAD4"/>
<path d="M59.3448 142.034C59.2375 142.034 59.1355 142.013 59.0389 141.975L28.9506 130.055C28.5212 129.884 28.3172 129.402 28.4836 128.979C28.6554 128.55 29.1384 128.346 29.5624 128.513L59.4522 140.352L95.7504 135.927C98.332 135.611 100.452 133.789 101.139 131.288L121.035 59.1911C121.942 55.9018 124.846 53.5233 128.254 53.2768L138.811 52.5108C139.262 52.484 139.665 52.8215 139.702 53.2768C139.734 53.7322 139.391 54.1286 138.935 54.1661L128.377 54.9322C125.667 55.1304 123.359 57.0161 122.64 59.6304L102.744 131.732C101.874 134.888 99.2068 137.186 95.9489 137.582L59.4415 142.034C59.4092 142.034 59.377 142.034 59.3448 142.034Z" fill="#C1CAD4"/>
<path d="M107.064 5.07865L34.3768 1.17329C28.3924 0.851863 23.5137 5.25008 23.5137 10.9983V50.7536C23.5137 56.5019 28.3924 61.2858 34.3822 61.4304L58.1427 62.0144L69.2312 75.0965C69.9021 75.884 71.0722 76.0126 71.8934 75.3912L82.5579 62.6197L107.064 63.2197C112.603 63.3536 117.074 59.0144 117.074 53.5233V15.5572C117.074 10.0661 112.603 5.37865 107.064 5.07865Z" fill="url(#paint29_linear_4010_32796)"/>
<path d="M108.508 3.92142L35.8256 0.0160651C29.8358 -0.305363 24.957 4.09285 24.957 9.84642V49.6018C24.957 55.35 29.8358 60.1339 35.8256 60.2786L59.586 60.8625L70.4062 73.6232C71.1737 74.5339 72.5746 74.5393 73.3582 73.6446L84.0066 61.4625L108.513 62.0625C114.052 62.1964 118.523 57.8571 118.523 52.3661V14.4053C118.523 8.91428 114.052 4.22142 108.508 3.92142Z" fill="url(#paint30_linear_4010_32796)"/>
<path d="M96.7108 27.5571C96.3136 20.0357 91.1879 13.7142 84.8117 12.9107C79.7397 12.2732 75.2206 15.1392 72.8215 19.7678C70.4116 14.9089 65.8549 11.5928 60.6863 11.7375C54.1115 11.9142 48.7712 17.8767 48.3472 25.5428C48.0681 30.6107 49.909 35.266 52.9361 38.4053L71.4904 53.4964C72.2901 54.15 73.3367 54.1767 74.1364 53.5714L92.315 39.8035C95.2187 36.9428 96.9791 32.5285 96.7108 27.5571Z" fill="white"/>
<path d="M1.86261 145.955L1.03607 145.216C-0.284257 144.043 -0.348663 142.029 0.891153 140.727L49.5553 89.6733L54.7776 94.7251L6.47301 145.72C5.23856 147.022 3.17757 147.129 1.86261 145.955Z" fill="url(#paint31_linear_4010_32796)"/>
<path d="M98.6702 40.291C84.1359 25.1035 60.472 24.3642 45.8894 39.1982C31.0385 54.3053 31.7523 79.2214 47.3815 94.2642C62.6457 108.954 86.0949 108.295 99.851 93.3428C113.366 78.6428 112.877 55.1303 98.6702 40.291ZM51.6108 89.8124C38.5847 77.191 37.9997 56.3678 50.3764 43.7035C62.5652 31.2321 82.4238 31.7624 94.677 44.4857C106.699 56.9624 107.123 76.7999 95.686 89.1696C84.0876 101.721 64.3847 102.182 51.6108 89.8124Z" fill="url(#paint32_linear_4010_32796)"/>
<path opacity="0.3" d="M49.5553 89.6787L43.3508 96.1876C44.1881 98.8662 43.9627 100.795 43.426 102.198C41.4133 107.47 34.4252 106.902 29.4499 114.557C26.9541 118.398 28.2906 119.191 25.7036 122.352C21.426 127.575 17.2449 126.043 13.4879 130.72C9.68795 135.45 11.5987 139.95 8.72722 141.37C7.49814 141.975 5.47472 141.975 1.91092 139.661L0.891153 140.727C-0.348663 142.029 -0.284257 144.038 1.03607 145.216L1.86261 145.955C3.17757 147.129 5.24393 147.022 6.47301 145.72L54.7776 94.7251L49.5553 89.6787Z" fill="url(#paint33_linear_4010_32796)"/>
<path d="M73.8041 34.3926V34.5747C78.0979 34.5747 82.3004 35.4319 86.2936 37.1247C90.4156 38.8712 94.1135 41.4265 97.2802 44.7211C103.254 50.9301 106.646 59.1104 106.839 67.7515C107.032 76.3872 104.005 84.5354 98.316 90.6908C95.3265 93.9265 91.7842 96.4337 87.7856 98.1479C83.9105 99.8087 79.7886 100.65 75.5324 100.65C67.1596 100.65 59.1464 97.3551 52.9634 91.3712C49.625 88.1408 47.0166 84.3426 45.2132 80.089C43.4743 75.9801 42.5565 71.6408 42.4974 67.189C42.374 58.3444 45.6426 50.0729 51.686 43.8908C57.5631 37.8854 65.4153 34.5801 73.7988 34.5747L73.8041 34.3926ZM73.8041 34.3926C65.7266 34.3926 57.7026 37.4837 51.5626 43.7622C38.735 56.8712 39.3415 78.439 52.84 91.5051C59.3021 97.7569 67.4709 100.837 75.5377 100.837C83.9857 100.837 92.3155 97.4622 98.4556 90.8194C110.274 78.0265 109.834 57.514 97.4143 44.5979C90.9093 37.8319 82.3272 34.3926 73.8041 34.3926Z" fill="#9FA8AD"/>
<path d="M100.672 41.1641C86.1378 25.9766 62.474 25.2373 47.8914 40.0712C33.0404 55.1783 33.7542 80.0944 49.3834 95.1373C64.6477 109.827 88.0968 109.168 101.853 94.2159C115.367 79.5212 114.874 56.0087 100.672 41.1641ZM53.6128 90.6909C40.5867 78.0694 40.0016 57.2462 52.3783 44.5819C64.5672 32.1105 84.4257 32.6408 96.679 45.3641C108.701 57.8408 109.125 77.6784 97.688 90.048C86.0895 102.6 66.3813 103.06 53.6128 90.6909Z" fill="url(#paint34_linear_4010_32796)"/>
<path opacity="0.3" d="M99.2609 42.6482C85.5317 28.3339 63.2097 27.675 49.4804 41.6732C35.5097 55.9125 36.1752 79.3821 50.8813 93.5625C65.2653 107.432 87.3834 106.848 100.383 92.7428C113.167 78.8732 112.7 56.6571 99.2609 42.6482ZM53.6131 90.691C40.587 78.0696 40.002 57.2464 52.3787 44.5821C64.5675 32.1107 84.4261 32.641 96.6793 45.3643C108.702 57.841 109.126 77.6786 97.6884 90.0482C86.0899 102.6 66.3816 103.061 53.6131 90.691Z" fill="url(#paint35_linear_4010_32796)"/>
<path d="M95.5198 69.8892C95.3802 69.9267 95.2675 70.0178 95.1978 70.1464C95.128 70.2696 95.1173 70.4196 95.1602 70.5535L98.1604 80.0946C98.2463 80.3678 98.5361 80.5231 98.8099 80.4428L105.782 78.4124C106.061 78.3321 106.222 78.0428 106.141 77.7642L103.436 68.2714C103.356 67.9928 103.071 67.8321 102.792 67.9071L95.5198 69.8892Z" fill="#26264F"/>
<path d="M96.0722 70.3498C95.9488 70.3819 95.8468 70.4677 95.7824 70.5748C95.7233 70.6873 95.7073 70.8159 95.7448 70.9391L98.423 79.4462C98.4982 79.6873 98.7558 79.8266 99.0027 79.757L105.223 77.9462C105.47 77.8766 105.615 77.6141 105.545 77.3677L103.135 68.9034C103.066 68.6569 102.808 68.5123 102.561 68.5819L96.0722 70.3498Z" fill="url(#paint36_linear_4010_32796)"/>
<path opacity="0.75" d="M97.0007 70.8267C96.904 70.8535 96.8235 70.9177 96.7806 71.0035C96.7323 71.0892 96.7216 71.191 96.7538 71.282L97.6018 74.057C97.6608 74.2445 97.854 74.3517 98.0419 74.3035L103.001 72.9749C103.092 72.9481 103.173 72.8892 103.221 72.8035C103.27 72.7177 103.28 72.6213 103.253 72.5249L102.464 69.707C102.411 69.5142 102.212 69.4017 102.019 69.4552L97.0007 70.8267Z" fill="#F4F7FA"/>
<path opacity="0.75" d="M98.2627 75.2519C98.1661 75.2787 98.0802 75.343 98.0319 75.4341C97.9836 75.5251 97.9729 75.6269 97.9997 75.7233L98.8746 78.5841C98.9336 78.7769 99.1376 78.8894 99.3308 78.8358L104.451 77.4644C104.548 77.4376 104.628 77.3733 104.682 77.2876C104.73 77.2019 104.746 77.1001 104.719 77.0037L103.909 74.1001C103.855 73.9019 103.646 73.7841 103.447 73.8376L98.2627 75.2519Z" fill="#F4F7FA"/>
<path d="M136.09 74.7803C136.482 74.9303 142.466 77.3035 143.695 83.5338C143.797 84.0374 144.758 89.3946 141.119 93.1767C137.04 97.4196 129.182 97.3124 126.064 93.766C125.339 92.941 124.953 92.0249 124.738 91.2535L125.559 89.0731C126.563 87.8678 127.926 87.5785 128.656 87.4017C130.454 86.9571 131.812 87.7606 132.837 86.8928C133.406 86.416 133.519 85.7249 133.621 85.1088C133.964 83.0142 132.778 81.7231 132.692 80.4321C132.628 79.4678 132.29 77.3463 133.551 75.9696C134.356 75.0963 135.462 74.8606 136.09 74.7803Z" fill="url(#paint37_linear_4010_32796)"/>
<path d="M138.42 144.241C138.49 143.855 139.73 143.512 140.347 144.021C140.653 144.278 140.862 144.793 140.685 145.028C140.621 145.114 140.884 145.264 140.631 145.264C139.799 145.28 138.356 144.621 138.42 144.241Z" fill="url(#paint38_linear_4010_32796)"/>
<path d="M139.724 144.38L141.001 144.198C140.411 143.486 140.518 141.225 140.518 141.225L139.16 141.525C139.16 141.525 139.316 142.147 139.579 143.063C139.67 143.379 139.708 143.872 139.724 144.38Z" fill="url(#paint39_linear_4010_32796)"/>
<path d="M139.611 144.225C139.611 144.225 141.146 143.872 141.312 144.177C141.478 144.482 141.607 145.297 140.63 145.27C139.659 145.243 139.525 144.482 139.611 144.225Z" fill="url(#paint40_linear_4010_32796)"/>
<path d="M120.906 145.682C121.03 145.313 122.307 145.141 122.844 145.736C123.112 146.031 123.247 146.572 123.037 146.781C122.962 146.856 123.204 147.043 122.951 147.006C122.119 146.898 120.783 146.047 120.906 145.682Z" fill="url(#paint41_linear_4010_32796)"/>
<path d="M98.8049 80.743L97.6402 80.1858C97.4577 80.0412 97.184 79.784 96.9693 79.393C96.6258 78.7448 96.6312 78.043 96.6312 78.043C96.6365 78.043 96.5775 77.1001 96.98 76.9394C97.0337 76.918 97.0927 76.9126 97.1625 76.9233L97.5758 78.0162C97.5758 78.0162 97.6402 78.493 98.3916 78.9858C99.1376 79.634 99.4328 80.2233 99.4328 80.2233L98.8049 80.743Z" fill="url(#paint42_linear_4010_32796)"/>
<path d="M122.173 145.998H123.461C122.973 145.211 123.402 142.987 123.402 142.987L122.018 143.1C122.018 143.1 122.082 143.737 122.216 144.68C122.259 145.002 122.232 145.494 122.173 145.998Z" fill="url(#paint43_linear_4010_32796)"/>
<path d="M118.829 97.334C118.234 99.3054 117.38 102.482 116.827 106.468C115.26 117.841 118.588 118.2 117.971 130.805C117.772 134.829 121.459 144.102 121.787 144.305C121.942 144.321 122.114 144.332 122.296 144.327C122.618 144.316 123.069 144.268 123.595 144.113C124.18 144.011 126.29 138.316 125.801 134.93C125.458 132.536 125.554 129.959 125.758 124.816C125.79 123.98 127.927 108.595 127.927 108.595C128.576 114.289 129.322 119.132 129.972 122.882C132.054 134.936 138.827 142.232 139.176 142.35C139.246 142.377 139.879 142.607 140.4 142.264C140.631 142.114 140.711 141.916 140.711 141.916C140.894 141.777 140.658 129.879 138.591 120.932C135.591 107.941 136.901 104.898 135.951 99.0965C135.129 94.0661 118.829 97.334 118.829 97.334Z" fill="url(#paint44_linear_4010_32796)"/>
<path d="M130.938 73.7677C128.947 73.7088 125.093 73.0606 122.576 75.3213C122.533 75.3588 122.329 75.5838 122.077 75.8784C121.841 76.157 121.03 77.1213 120.3 78.4284C119.769 79.3766 119.291 80.4749 118.803 82.1195C117.95 85.0177 117.703 87.4874 117.622 88.5588C117.161 94.607 117.617 97.3927 118.03 99.2891C119.828 100.211 124.465 101.861 129.994 101.041C132.516 100.666 134.534 99.8302 135.957 99.0802C134.524 94.7463 135.645 92.432 136.177 90.2945C136.933 87.2463 136.944 87.4766 137.567 85.0552C138.597 81.0641 138.764 76.982 138.055 76.1463C136.155 73.9016 132.72 73.8213 130.938 73.7677Z" fill="url(#paint45_linear_4010_32796)"/>
<path d="M122.082 145.832C122.082 145.832 123.654 145.698 123.778 146.02C123.901 146.347 123.912 147.172 122.951 147.006C121.99 146.845 121.958 146.073 122.082 145.832Z" fill="url(#paint46_linear_4010_32796)"/>
<path d="M125.672 74.4908C123.493 73.0766 117.804 77.5069 116.081 78.7283C109.399 83.4641 110.199 86.4212 107.166 84.9426C105.116 83.9462 104.837 80.9408 101.327 79.8105C100.704 79.6123 100.173 79.5319 99.8293 79.4944C99.8239 79.4944 98.67 80.1105 98.6646 80.1105C98.2567 80.2444 97.8434 80.373 97.4999 80.7266C97.1618 81.423 96.8558 82.2748 96.7002 83.2712C96.7324 83.6248 96.8022 84.2087 96.9632 84.9158C97.0974 85.4998 98.6377 91.8908 103.989 93.8623C104.971 94.2266 105.792 94.3283 106.2 94.3765C107.961 94.5908 109.555 94.3283 112.281 93.3908C116.902 91.7998 120.428 90.3105 123.541 86.6676C123.692 86.4962 123.81 86.3248 123.928 86.1426C126.257 82.5908 127.776 75.8569 125.672 74.4908Z" fill="url(#paint47_linear_4010_32796)"/>
<path d="M125.339 71.4911C124.722 70.4518 124.996 69.2626 125.06 69.0054C125.318 67.9286 125.415 67.7679 125.619 67.5376L125.903 67.2376C125.903 67.2376 125.919 67.2268 125.941 67.2108C126.139 67.0768 126.869 66.8572 127.03 66.8465C127.535 66.8197 128.565 68.6304 129.156 71.4268C129.204 71.5286 129.252 71.6251 129.3 71.7268C129.596 72.359 129.843 72.9858 130.057 73.5911C133.476 73.8804 133.954 74.2822 133.97 74.5126C134.002 75.0001 132.054 75.5626 130.589 75.7768C127.39 76.2429 124.105 75.4018 124.121 74.8072C124.127 74.5501 124.765 74.2126 127.476 73.859C127.411 73.409 127.347 72.9643 127.288 72.5143C127.052 72.4715 125.79 72.2572 125.339 71.4911Z" fill="url(#paint48_linear_4010_32796)"/>
<path d="M124.695 66.7232C124.926 67.575 125.57 68.3786 125.817 68.4697C125.849 68.4804 126.031 68.5607 126.214 68.7268C126.241 68.7482 126.262 68.775 126.289 68.8125C126.622 69.3 125.935 70.1625 126.16 70.3554C126.327 70.5 126.847 70.1089 126.955 70.2429C127.057 70.3661 126.654 70.7893 126.772 70.9393C126.863 71.0518 127.126 70.8536 127.368 71.0036C127.486 71.0786 127.481 71.1589 127.658 71.4322C127.76 71.5875 127.888 71.7482 127.974 71.8393C128.404 72.2625 129.289 72.2197 129.397 71.9786C129.429 71.9089 129.375 71.8714 129.37 71.6732C129.37 71.6732 129.364 71.4857 129.434 71.2554C129.531 70.9232 129.896 70.6072 130.234 70.1893C130.867 69.4232 130.948 68.8875 130.969 68.7054C130.975 68.6411 130.98 68.5929 130.98 68.5607C131.018 67.8804 130.771 66.9536 130.336 66.4607C129.606 65.6357 128.656 66.3697 127.529 65.6625C126.23 64.8429 126.434 63.1982 125.838 63.1768C125.2 63.1661 124.266 65.1482 124.695 66.7232Z" fill="#26264F"/>
<path d="M126.418 70.077C126.552 69.7342 126.993 69.9056 127.095 70.2752C127.197 70.6449 126.939 71.127 126.569 71.1485C126.198 71.1699 126.241 70.5377 126.418 70.077Z" fill="url(#paint49_linear_4010_32796)"/>
<path d="M126.424 69.4072L126.107 70.1679C126.107 70.1679 125.791 71.0787 125.372 70.7358C125.029 70.4572 124.97 70.4787 124.953 70.5001C124.953 70.5054 124.953 70.5054 124.953 70.5054C124.948 70.5054 124.943 70.3233 124.943 70.1626C124.862 70.3822 124.766 70.7304 124.766 71.1644C124.766 71.5876 124.766 72.0376 125.093 72.3804C125.114 72.4019 125.474 72.7662 125.957 72.7501C125.957 72.7501 126.15 72.7447 126.87 72.4072C126.87 72.4072 125.882 72.0269 125.828 71.8876C125.689 71.5072 126.172 71.1537 126.36 70.2537C126.429 69.9108 126.435 69.6108 126.424 69.4072Z" fill="#26264F"/>
</g>
<defs>
<linearGradient id="paint0_linear_4010_32796" x1="26.3014" y1="131.142" x2="28.0525" y2="132.618" gradientUnits="userSpaceOnUse">
<stop stop-color="#AA80F9"/>
<stop offset="0.9964" stop-color="#6165D7"/>
</linearGradient>
<linearGradient id="paint1_linear_4010_32796" x1="27.4389" y1="134.486" x2="33.7789" y2="134.486" gradientUnits="userSpaceOnUse">
<stop stop-color="#AA80F9"/>
<stop offset="0.9964" stop-color="#6165D7"/>
</linearGradient>
<linearGradient id="paint2_linear_4010_32796" x1="29.2797" y1="134.57" x2="31.9363" y2="134.57" gradientUnits="userSpaceOnUse">
<stop stop-color="#40447E"/>
<stop offset="0.9964" stop-color="#3C3B6B"/>
</linearGradient>
<linearGradient id="paint3_linear_4010_32796" x1="60.24" y1="127.492" x2="61.9911" y2="128.967" gradientUnits="userSpaceOnUse">
<stop stop-color="#AA80F9"/>
<stop offset="0.9964" stop-color="#6165D7"/>
</linearGradient>
<linearGradient id="paint4_linear_4010_32796" x1="61.3776" y1="130.836" x2="67.7176" y2="130.836" gradientUnits="userSpaceOnUse">
<stop stop-color="#AA80F9"/>
<stop offset="0.9964" stop-color="#6165D7"/>
</linearGradient>
<linearGradient id="paint5_linear_4010_32796" x1="63.2188" y1="130.92" x2="65.8754" y2="130.92" gradientUnits="userSpaceOnUse">
<stop stop-color="#40447E"/>
<stop offset="0.9964" stop-color="#3C3B6B"/>
</linearGradient>
<linearGradient id="paint6_linear_4010_32796" x1="109.859" y1="52.2175" x2="140.536" y2="52.2175" gradientUnits="userSpaceOnUse">
<stop stop-color="#40447E"/>
<stop offset="0.9964" stop-color="#3C3B6B"/>
</linearGradient>
<linearGradient id="paint7_linear_4010_32796" x1="56.0778" y1="142.494" x2="57.8289" y2="143.969" gradientUnits="userSpaceOnUse">
<stop stop-color="#AA80F9"/>
<stop offset="0.9964" stop-color="#6165D7"/>
</linearGradient>
<linearGradient id="paint8_linear_4010_32796" x1="57.2149" y1="145.838" x2="63.5548" y2="145.838" gradientUnits="userSpaceOnUse">
<stop stop-color="#AA80F9"/>
<stop offset="0.9964" stop-color="#6165D7"/>
</linearGradient>
<linearGradient id="paint9_linear_4010_32796" x1="59.0561" y1="145.922" x2="61.7128" y2="145.922" gradientUnits="userSpaceOnUse">
<stop stop-color="#40447E"/>
<stop offset="0.9964" stop-color="#3C3B6B"/>
</linearGradient>
<linearGradient id="paint10_linear_4010_32796" x1="85.461" y1="139.558" x2="87.2121" y2="141.033" gradientUnits="userSpaceOnUse">
<stop stop-color="#AA80F9"/>
<stop offset="0.9964" stop-color="#6165D7"/>
</linearGradient>
<linearGradient id="paint11_linear_4010_32796" x1="86.5981" y1="142.902" x2="92.9381" y2="142.902" gradientUnits="userSpaceOnUse">
<stop stop-color="#AA80F9"/>
<stop offset="0.9964" stop-color="#6165D7"/>
</linearGradient>
<linearGradient id="paint12_linear_4010_32796" x1="88.4393" y1="142.986" x2="91.0959" y2="142.986" gradientUnits="userSpaceOnUse">
<stop stop-color="#40447E"/>
<stop offset="0.9964" stop-color="#3C3B6B"/>
</linearGradient>
<linearGradient id="paint13_linear_4010_32796" x1="44.3681" y1="103.792" x2="99.4119" y2="103.792" gradientUnits="userSpaceOnUse">
<stop stop-color="#FCB148"/>
<stop offset="0.0520724" stop-color="#FDBA46"/>
<stop offset="0.1424" stop-color="#FFC244"/>
<stop offset="0.3183" stop-color="#FFC444"/>
<stop offset="0.4849" stop-color="#FDB946"/>
<stop offset="0.7754" stop-color="#F99C4D"/>
<stop offset="0.8658" stop-color="#F8924F"/>
<stop offset="1" stop-color="#F8924F"/>
</linearGradient>
<linearGradient id="paint14_linear_4010_32796" x1="72.1432" y1="97.6148" x2="75.031" y2="121.835" gradientUnits="userSpaceOnUse">
<stop stop-color="#FFDB44"/>
<stop offset="1" stop-color="#FEEF06"/>
</linearGradient>
<linearGradient id="paint15_linear_4010_32796" x1="72.0173" y1="96.5317" x2="72.9045" y2="103.973" gradientUnits="userSpaceOnUse">
<stop stop-color="#FFDB44"/>
<stop offset="1" stop-color="#FEEF06"/>
</linearGradient>
<linearGradient id="paint16_linear_4010_32796" x1="72.8552" y1="103.196" x2="71.9711" y2="95.7805" gradientUnits="userSpaceOnUse">
<stop offset="0.00359712" stop-color="#F36F56"/>
<stop offset="0.3059" stop-color="#F99C4C"/>
<stop offset="0.545" stop-color="#FDB946"/>
<stop offset="0.6817" stop-color="#FFC444"/>
<stop offset="0.8038" stop-color="#FFC244"/>
<stop offset="0.8667" stop-color="#FEBA46"/>
<stop offset="0.916" stop-color="#FCAD49"/>
<stop offset="0.958" stop-color="#F99A4D"/>
<stop offset="0.9955" stop-color="#F58152"/>
<stop offset="1" stop-color="#F57E53"/>
</linearGradient>
<linearGradient id="paint17_linear_4010_32796" x1="37.7177" y1="98.2416" x2="92.7615" y2="98.2416" gradientUnits="userSpaceOnUse">
<stop stop-color="#FCB148"/>
<stop offset="0.0520724" stop-color="#FDBA46"/>
<stop offset="0.1424" stop-color="#FFC244"/>
<stop offset="0.3183" stop-color="#FFC444"/>
<stop offset="0.4849" stop-color="#FDB946"/>
<stop offset="0.7754" stop-color="#F99C4D"/>
<stop offset="0.8658" stop-color="#F8924F"/>
<stop offset="1" stop-color="#F8924F"/>
</linearGradient>
<linearGradient id="paint18_linear_4010_32796" x1="65.4923" y1="92.0641" x2="68.3801" y2="116.284" gradientUnits="userSpaceOnUse">
<stop stop-color="#FFDB44"/>
<stop offset="1" stop-color="#FEEF06"/>
</linearGradient>
<linearGradient id="paint19_linear_4010_32796" x1="65.3664" y1="90.981" x2="66.2536" y2="98.4221" gradientUnits="userSpaceOnUse">
<stop stop-color="#FFDB44"/>
<stop offset="1" stop-color="#FEEF06"/>
</linearGradient>
<linearGradient id="paint20_linear_4010_32796" x1="66.2043" y1="97.6452" x2="65.3201" y2="90.2297" gradientUnits="userSpaceOnUse">
<stop offset="0.00359712" stop-color="#F36F56"/>
<stop offset="0.3059" stop-color="#F99C4C"/>
<stop offset="0.545" stop-color="#FDB946"/>
<stop offset="0.6817" stop-color="#FFC444"/>
<stop offset="0.8038" stop-color="#FFC244"/>
<stop offset="0.8667" stop-color="#FEBA46"/>
<stop offset="0.916" stop-color="#FCAD49"/>
<stop offset="0.958" stop-color="#F99A4D"/>
<stop offset="0.9955" stop-color="#F58152"/>
<stop offset="1" stop-color="#F57E53"/>
</linearGradient>
<linearGradient id="paint21_linear_4010_32796" x1="43.4554" y1="92.7067" x2="98.4992" y2="92.7067" gradientUnits="userSpaceOnUse">
<stop stop-color="#FCB148"/>
<stop offset="0.0520724" stop-color="#FDBA46"/>
<stop offset="0.1424" stop-color="#FFC244"/>
<stop offset="0.3183" stop-color="#FFC444"/>
<stop offset="0.4849" stop-color="#FDB946"/>
<stop offset="0.7754" stop-color="#F99C4D"/>
<stop offset="0.8658" stop-color="#F8924F"/>
<stop offset="1" stop-color="#F8924F"/>
</linearGradient>
<linearGradient id="paint22_linear_4010_32796" x1="71.2306" y1="86.5291" x2="74.1183" y2="110.749" gradientUnits="userSpaceOnUse">
<stop stop-color="#FFDB44"/>
<stop offset="1" stop-color="#FEEF06"/>
</linearGradient>
<linearGradient id="paint23_linear_4010_32796" x1="71.1046" y1="85.446" x2="71.9918" y2="92.8871" gradientUnits="userSpaceOnUse">
<stop stop-color="#FFDB44"/>
<stop offset="1" stop-color="#FEEF06"/>
</linearGradient>
<linearGradient id="paint24_linear_4010_32796" x1="71.9425" y1="92.1103" x2="71.0584" y2="84.6948" gradientUnits="userSpaceOnUse">
<stop offset="0.00359712" stop-color="#F36F56"/>
<stop offset="0.3059" stop-color="#F99C4C"/>
<stop offset="0.545" stop-color="#FDB946"/>
<stop offset="0.6817" stop-color="#FFC444"/>
<stop offset="0.8038" stop-color="#FFC244"/>
<stop offset="0.8667" stop-color="#FEBA46"/>
<stop offset="0.916" stop-color="#FCAD49"/>
<stop offset="0.958" stop-color="#F99A4D"/>
<stop offset="0.9955" stop-color="#F58152"/>
<stop offset="1" stop-color="#F57E53"/>
</linearGradient>
<linearGradient id="paint25_linear_4010_32796" x1="46.9382" y1="87.1559" x2="101.982" y2="87.1559" gradientUnits="userSpaceOnUse">
<stop stop-color="#FCB148"/>
<stop offset="0.0520724" stop-color="#FDBA46"/>
<stop offset="0.1424" stop-color="#FFC244"/>
<stop offset="0.3183" stop-color="#FFC444"/>
<stop offset="0.4849" stop-color="#FDB946"/>
<stop offset="0.7754" stop-color="#F99C4D"/>
<stop offset="0.8658" stop-color="#F8924F"/>
<stop offset="1" stop-color="#F8924F"/>
</linearGradient>
<linearGradient id="paint26_linear_4010_32796" x1="74.7129" y1="80.9783" x2="77.6007" y2="105.198" gradientUnits="userSpaceOnUse">
<stop stop-color="#FFDB44"/>
<stop offset="1" stop-color="#FEEF06"/>
</linearGradient>
<linearGradient id="paint27_linear_4010_32796" x1="74.587" y1="79.8952" x2="75.4742" y2="87.3364" gradientUnits="userSpaceOnUse">
<stop stop-color="#FFDB44"/>
<stop offset="1" stop-color="#FEEF06"/>
</linearGradient>
<linearGradient id="paint28_linear_4010_32796" x1="75.4249" y1="86.5596" x2="74.5407" y2="79.1441" gradientUnits="userSpaceOnUse">
<stop offset="0.00359712" stop-color="#F36F56"/>
<stop offset="0.3059" stop-color="#F99C4C"/>
<stop offset="0.545" stop-color="#FDB946"/>
<stop offset="0.6817" stop-color="#FFC444"/>
<stop offset="0.8038" stop-color="#FFC244"/>
<stop offset="0.8667" stop-color="#FEBA46"/>
<stop offset="0.916" stop-color="#FCAD49"/>
<stop offset="0.958" stop-color="#F99A4D"/>
<stop offset="0.9955" stop-color="#F58152"/>
<stop offset="1" stop-color="#F57E53"/>
</linearGradient>
<linearGradient id="paint29_linear_4010_32796" x1="45.997" y1="-5.83684" x2="84.7261" y2="56.5459" gradientUnits="userSpaceOnUse">
<stop stop-color="#311944"/>
<stop offset="1" stop-color="#893976"/>
</linearGradient>
<linearGradient id="paint30_linear_4010_32796" x1="47.4433" y1="-6.99214" x2="86.1724" y2="55.3906" gradientUnits="userSpaceOnUse">
<stop stop-color="#FF9085"/>
<stop offset="1" stop-color="#FB6FBB"/>
</linearGradient>
<linearGradient id="paint31_linear_4010_32796" x1="0.000208133" y1="118.223" x2="54.7771" y2="118.223" gradientUnits="userSpaceOnUse">
<stop offset="0.00359712" stop-color="#E38DDD"/>
<stop offset="1" stop-color="#9571F6"/>
</linearGradient>
<linearGradient id="paint32_linear_4010_32796" x1="35.188" y1="66.7001" x2="109.665" y2="66.7001" gradientUnits="userSpaceOnUse">
<stop offset="0.00359712" stop-color="#E38DDD"/>
<stop offset="1" stop-color="#9571F6"/>
</linearGradient>
<linearGradient id="paint33_linear_4010_32796" x1="0.000202686" y1="118.223" x2="54.7771" y2="118.223" gradientUnits="userSpaceOnUse">
<stop offset="0.00359712" stop-color="#E38DDD"/>
<stop offset="1" stop-color="#9571F6"/>
</linearGradient>
<linearGradient id="paint34_linear_4010_32796" x1="104.297" y1="95.2663" x2="63.4256" y2="57.207" gradientUnits="userSpaceOnUse">
<stop stop-color="#AA80F9"/>
<stop offset="0.9964" stop-color="#6165D7"/>
</linearGradient>
<linearGradient id="paint35_linear_4010_32796" x1="44.1504" y1="39.8546" x2="99.4934" y2="90.526" gradientUnits="userSpaceOnUse">
<stop offset="0.00359712" stop-color="#E38DDD"/>
<stop offset="1" stop-color="#9571F6"/>
</linearGradient>
<linearGradient id="paint36_linear_4010_32796" x1="93.8103" y1="62.8703" x2="108.988" y2="87.5875" gradientUnits="userSpaceOnUse">
<stop stop-color="#FF9085"/>
<stop offset="1" stop-color="#FB6FBB"/>
</linearGradient>
<linearGradient id="paint37_linear_4010_32796" x1="132.797" y1="95.3259" x2="137.948" y2="74.6833" gradientUnits="userSpaceOnUse">
<stop stop-color="#FFC444"/>
<stop offset="0.9964" stop-color="#F36F56"/>
</linearGradient>
<linearGradient id="paint38_linear_4010_32796" x1="137.733" y1="143.135" x2="140.464" y2="144.952" gradientUnits="userSpaceOnUse">
<stop stop-color="#444B8C"/>
<stop offset="0.9964" stop-color="#26264F"/>
</linearGradient>
<linearGradient id="paint39_linear_4010_32796" x1="140.378" y1="144.965" x2="139.782" y2="140.742" gradientUnits="userSpaceOnUse">
<stop stop-color="#FFC444"/>
<stop offset="0.9964" stop-color="#F36F56"/>
</linearGradient>
<linearGradient id="paint40_linear_4010_32796" x1="137.938" y1="142.827" x2="140.668" y2="144.644" gradientUnits="userSpaceOnUse">
<stop stop-color="#444B8C"/>
<stop offset="0.9964" stop-color="#26264F"/>
</linearGradient>
<linearGradient id="paint41_linear_4010_32796" x1="120.377" y1="144.488" x2="122.825" y2="146.67" gradientUnits="userSpaceOnUse">
<stop stop-color="#444B8C"/>
<stop offset="0.9964" stop-color="#26264F"/>
</linearGradient>
<linearGradient id="paint42_linear_4010_32796" x1="96.5191" y1="77.7718" x2="99.1562" y2="80.1323" gradientUnits="userSpaceOnUse">
<stop stop-color="#FFC444"/>
<stop offset="0.9964" stop-color="#F36F56"/>
</linearGradient>
<linearGradient id="paint43_linear_4010_32796" x1="122.739" y1="146.669" x2="122.739" y2="142.405" gradientUnits="userSpaceOnUse">
<stop stop-color="#FFC444"/>
<stop offset="0.9964" stop-color="#F36F56"/>
</linearGradient>
<linearGradient id="paint44_linear_4010_32796" x1="122.538" y1="148.625" x2="138.471" y2="84.1721" gradientUnits="userSpaceOnUse">
<stop stop-color="#444B8C"/>
<stop offset="0.9964" stop-color="#26264F"/>
</linearGradient>
<linearGradient id="paint45_linear_4010_32796" x1="112.855" y1="75.6275" x2="143.825" y2="100.253" gradientUnits="userSpaceOnUse">
<stop stop-color="#FFC444"/>
<stop offset="0.9964" stop-color="#F36F56"/>
</linearGradient>
<linearGradient id="paint46_linear_4010_32796" x1="120.623" y1="144.212" x2="123.071" y2="146.393" gradientUnits="userSpaceOnUse">
<stop stop-color="#444B8C"/>
<stop offset="0.9964" stop-color="#26264F"/>
</linearGradient>
<linearGradient id="paint47_linear_4010_32796" x1="109.31" y1="80.0843" x2="140.281" y2="104.71" gradientUnits="userSpaceOnUse">
<stop stop-color="#FFC444"/>
<stop offset="0.9964" stop-color="#F36F56"/>
</linearGradient>
<linearGradient id="paint48_linear_4010_32796" x1="122.788" y1="66.8302" x2="136.038" y2="83.5307" gradientUnits="userSpaceOnUse">
<stop stop-color="#FFC444"/>
<stop offset="0.9964" stop-color="#F36F56"/>
</linearGradient>
<linearGradient id="paint49_linear_4010_32796" x1="123.348" y1="66.386" x2="136.598" y2="83.087" gradientUnits="userSpaceOnUse">
<stop stop-color="#FFC444"/>
<stop offset="0.9964" stop-color="#F36F56"/>
</linearGradient>
<clipPath id="clip0_4010_32796">
<rect width="151" height="150" fill="white"/>
</clipPath>
</defs>
</svg>
