<svg width="187" height="69" viewBox="0 0 187 69" fill="none" xmlns="http://www.w3.org/2000/svg">
<rect y="0.5" width="186.847" height="67.9996" rx="10.2641" fill="#F4F4F4"/>
<path d="M42.8273 35.5306C42.8641 32.6576 44.4011 29.9391 46.8392 28.4344C45.3011 26.2291 42.7248 24.8309 40.0445 24.7467C37.1857 24.4455 34.4142 26.464 32.9574 26.464C31.4724 26.464 29.2294 24.7766 26.8141 24.8265C23.6659 24.9286 20.7309 26.7255 19.1993 29.4887C15.9067 35.2114 18.3627 43.6219 21.5166 48.2477C23.0946 50.5128 24.9388 53.0431 27.3519 52.9533C29.7133 52.855 30.5953 51.4417 33.4457 51.4417C36.2696 51.4417 37.097 52.9533 39.5591 52.8963C42.093 52.855 43.6895 50.6211 45.2121 48.3345C46.3459 46.7205 47.2183 44.9367 47.7971 43.0491C44.8193 41.7848 42.8308 38.7764 42.8273 35.5306Z" fill="#090909"/>
<path d="M38.1768 21.7045C39.5584 20.0395 40.239 17.8994 40.0742 15.7388C37.9634 15.9613 36.0137 16.9741 34.6135 18.5752C33.2442 20.1396 32.5317 22.242 32.6664 24.3201C34.7779 24.3419 36.8537 23.3566 38.1768 21.7045Z" fill="#090909"/>
<path d="M127.051 32.5634V36.0448H124.878V38.3279H127.051V46.0854C127.051 48.7343 128.245 49.7938 131.248 49.7938C131.776 49.7938 132.278 49.7308 132.718 49.6551V47.3972C132.341 47.435 132.102 47.4603 131.688 47.4603C130.343 47.4603 129.753 46.8296 129.753 45.3916V38.3279H132.718V36.0448H129.753V32.5634H127.051Z" fill="#090909"/>
<path d="M140.368 49.983C144.364 49.983 146.814 47.2963 146.814 42.8436C146.814 38.4162 144.351 35.7168 140.368 35.7168C136.372 35.7168 133.91 38.4162 133.91 42.8436C133.91 47.2963 136.36 49.983 140.368 49.983ZM140.368 47.5738C138.018 47.5738 136.699 45.8457 136.699 42.8436C136.699 39.8668 138.018 38.1261 140.368 38.1261C142.705 38.1261 144.037 39.8668 144.037 42.8436C144.037 45.8331 142.705 47.5738 140.368 47.5738Z" fill="#090909"/>
<path d="M148.91 49.7181H151.611V41.6075C151.611 39.6776 153.056 38.3783 155.104 38.3783C155.582 38.3783 156.386 38.4666 156.612 38.5423V35.8682C156.323 35.7925 155.808 35.7547 155.406 35.7547C153.622 35.7547 152.101 36.7385 151.712 38.0882H151.511V35.9817H148.91V49.7181Z" fill="#090909"/>
<path d="M163.32 38.0252C165.318 38.0252 166.624 39.4253 166.687 41.5822H159.776C159.927 39.4379 161.322 38.0252 163.32 38.0252ZM166.675 46.0097C166.172 47.0819 165.054 47.6747 163.42 47.6747C161.259 47.6747 159.864 46.1484 159.776 43.7392V43.5878H169.439V42.6418C169.439 38.3279 167.139 35.7168 163.332 35.7168C159.475 35.7168 157.025 38.5045 157.025 42.8941C157.025 47.2837 159.425 49.983 163.345 49.983C166.474 49.983 168.66 48.4694 169.275 46.0097H166.675Z" fill="#090909"/>
<path d="M109.336 44.6455C109.544 48.0185 112.344 50.1757 116.511 50.1757C120.965 50.1757 123.752 47.914 123.752 44.3056C123.752 41.4686 122.163 39.8997 118.309 38.9976L116.238 38.4877C113.79 37.9125 112.8 37.1411 112.8 35.7945C112.8 34.0949 114.337 32.9836 116.642 32.9836C118.83 32.9836 120.34 34.0688 120.614 35.8076H123.453C123.283 32.6306 120.497 30.395 116.681 30.395C112.579 30.395 109.844 32.6306 109.844 35.9906C109.844 38.7623 111.393 40.4096 114.792 41.2071L117.215 41.7954C119.702 42.3837 120.796 43.2466 120.796 44.6847C120.796 46.3582 119.077 47.574 116.733 47.574C114.219 47.574 112.474 46.4366 112.227 44.6455H109.336Z" fill="#090909"/>
<path d="M81.3518 35.7547C79.4922 35.7547 77.8839 36.6881 77.0547 38.2522H76.8536V35.9817H74.2527V54.2843H76.9542V47.6369H77.1678C77.8839 49.0875 79.4294 49.9452 81.377 49.9452C84.8323 49.9452 87.0311 47.208 87.0311 42.8436C87.0311 38.4792 84.8323 35.7547 81.3518 35.7547ZM80.5854 47.5107C78.3237 47.5107 76.9039 45.7196 76.9039 42.8562C76.9039 39.9803 78.3237 38.1891 80.5979 38.1891C82.8847 38.1891 84.2543 39.9424 84.2543 42.8436C84.2543 45.7574 82.8847 47.5107 80.5854 47.5107Z" fill="#090909"/>
<path d="M96.4838 35.7547C94.6242 35.7547 93.0159 36.6881 92.1867 38.2522H91.9856V35.9817H89.3847V54.2843H92.0861V47.6369H92.2997C93.0159 49.0875 94.5614 49.9452 96.5089 49.9452C99.9643 49.9452 102.163 47.208 102.163 42.8436C102.163 38.4792 99.9643 35.7547 96.4838 35.7547ZM95.7174 47.5107C93.4557 47.5107 92.0359 45.7196 92.0359 42.8562C92.0359 39.9803 93.4557 38.1891 95.7299 38.1891C98.0167 38.1891 99.3863 39.9424 99.3863 42.8436C99.3863 45.7574 98.0167 47.5107 95.7174 47.5107Z" fill="#090909"/>
<path d="M69.4059 49.7181H72.5054L65.7204 30.8526H62.5819L55.7969 49.7181H58.7922L60.5242 44.7109H67.6869L69.4059 49.7181ZM64.0014 34.2779H64.2228L66.9446 42.253H61.2665L64.0014 34.2779Z" fill="#090909"/>
<path d="M55.7197 17.5461V25.0032H58.4017C60.6152 25.0032 61.8969 23.6337 61.8969 21.2514C61.8969 18.9052 60.6049 17.5461 58.4017 17.5461H55.7197ZM56.8728 18.6003H58.273C59.8121 18.6003 60.7233 19.5822 60.7233 21.2669C60.7233 22.9774 59.8276 23.949 58.273 23.949H56.8728V18.6003Z" fill="#090909"/>
<path d="M65.8225 25.1117C67.4595 25.1117 68.4633 24.011 68.4633 22.1867C68.4633 20.3729 67.4543 19.267 65.8225 19.267C64.1856 19.267 63.1766 20.3729 63.1766 22.1867C63.1766 24.011 64.1804 25.1117 65.8225 25.1117ZM65.8225 24.1247C64.8599 24.1247 64.3194 23.4167 64.3194 22.1867C64.3194 20.9672 64.8599 20.254 65.8225 20.254C66.78 20.254 67.3256 20.9672 67.3256 22.1867C67.3256 23.4115 66.78 24.1247 65.8225 24.1247Z" fill="#090909"/>
<path d="M77.0115 19.3755H75.9047L74.9061 23.6699H74.8186L73.6655 19.3755H72.6051L71.452 23.6699H71.3696L70.3658 19.3755H69.2437L70.788 25.0032H71.9256L73.0787 20.8586H73.1662L74.3244 25.0032H75.4723L77.0115 19.3755Z" fill="#090909"/>
<path d="M78.286 25.0032H79.3928V21.7113C79.3928 20.8328 79.9127 20.285 80.7312 20.285C81.5496 20.285 81.9409 20.7346 81.9409 21.639V25.0032H83.0476V21.3599C83.0476 20.0215 82.3578 19.267 81.1069 19.267C80.2627 19.267 79.7068 19.6442 79.434 20.2695H79.3516V19.3755H78.286V25.0032Z" fill="#090909"/>
<path d="M84.7906 25.0032H85.8974V17.1792H84.7906V25.0032Z" fill="#090909"/>
<path d="M90.0598 25.1117C91.6967 25.1117 92.7005 24.011 92.7005 22.1867C92.7005 20.3729 91.6916 19.267 90.0598 19.267C88.4228 19.267 87.4139 20.3729 87.4139 22.1867C87.4139 24.011 88.4177 25.1117 90.0598 25.1117ZM90.0598 24.1247C89.0971 24.1247 88.5566 23.4167 88.5566 22.1867C88.5566 20.9672 89.0971 20.254 90.0598 20.254C91.0172 20.254 91.5629 20.9672 91.5629 22.1867C91.5629 23.4115 91.0172 24.1247 90.0598 24.1247Z" fill="#090909"/>
<path d="M95.9981 24.1608C95.3958 24.1608 94.9583 23.8663 94.9583 23.3598C94.9583 22.8637 95.3083 22.6002 96.0805 22.5485L97.4497 22.4606V22.9309C97.4497 23.6286 96.832 24.1608 95.9981 24.1608ZM95.715 25.0962C96.4511 25.0962 97.0637 24.7758 97.3983 24.2125H97.4858V25.0032H98.5513V21.1584C98.5513 19.9698 97.7586 19.267 96.3533 19.267C95.0818 19.267 94.1758 19.8871 94.0626 20.8535H95.1333C95.2568 20.4556 95.6841 20.2282 96.3018 20.2282C97.0585 20.2282 97.4497 20.5641 97.4497 21.1584V21.6441L95.9312 21.732C94.5979 21.8147 93.8464 22.3986 93.8464 23.4115C93.8464 24.4399 94.634 25.0962 95.715 25.0962Z" fill="#090909"/>
<path d="M102.307 25.0962C103.079 25.0962 103.733 24.7293 104.068 24.1143H104.155V25.0032H105.215V17.1792H104.109V20.2695H104.026C103.723 19.6494 103.074 19.2825 102.307 19.2825C100.891 19.2825 99.9803 20.409 99.9803 22.1867C99.9803 23.9696 100.881 25.0962 102.307 25.0962ZM102.621 20.2798C103.548 20.2798 104.129 21.0188 104.129 22.1919C104.129 23.3702 103.553 24.0988 102.621 24.0988C101.684 24.0988 101.123 23.3805 101.123 22.1867C101.123 21.0033 101.689 20.2798 102.621 20.2798Z" fill="#090909"/>
<path d="M112.392 25.1117C114.029 25.1117 115.033 24.011 115.033 22.1867C115.033 20.3729 114.024 19.267 112.392 19.267C110.755 19.267 109.746 20.3729 109.746 22.1867C109.746 24.011 110.75 25.1117 112.392 25.1117ZM112.392 24.1247C111.43 24.1247 110.889 23.4167 110.889 22.1867C110.889 20.9672 111.43 20.254 112.392 20.254C113.35 20.254 113.895 20.9672 113.895 22.1867C113.895 23.4115 113.35 24.1247 112.392 24.1247Z" fill="#090909"/>
<path d="M116.498 25.0032H117.605V21.7113C117.605 20.8328 118.125 20.285 118.943 20.285C119.762 20.285 120.153 20.7346 120.153 21.639V25.0032H121.26V21.3599C121.26 20.0215 120.57 19.267 119.319 19.267C118.475 19.267 117.919 19.6442 117.646 20.2695H117.564V19.3755H116.498V25.0032Z" fill="#090909"/>
<path d="M126.357 17.975V19.4013H125.466V20.3367H126.357V23.5149C126.357 24.6001 126.846 25.0342 128.076 25.0342C128.292 25.0342 128.498 25.0083 128.679 24.9773V24.0523C128.524 24.0678 128.426 24.0781 128.256 24.0781C127.706 24.0781 127.464 23.8198 127.464 23.2306V20.3367H128.679V19.4013H127.464V17.975H126.357Z" fill="#090909"/>
<path d="M130.164 25.0032H131.271V21.7165C131.271 20.8638 131.775 20.2902 132.681 20.2902C133.464 20.2902 133.881 20.7449 133.881 21.6441V25.0032H134.987V21.3702C134.987 20.0318 134.251 19.2721 133.057 19.2721C132.213 19.2721 131.621 19.6494 131.348 20.2798H131.261V17.1792H130.164V25.0032Z" fill="#090909"/>
<path d="M138.98 20.2127C139.798 20.2127 140.334 20.7863 140.36 21.67H137.528C137.59 20.7915 138.162 20.2127 138.98 20.2127ZM140.354 23.4839C140.149 23.9231 139.69 24.166 139.021 24.166C138.136 24.166 137.564 23.5407 137.528 22.5537V22.4916H141.487V22.1041C141.487 20.3367 140.545 19.267 138.985 19.267C137.405 19.267 136.401 20.409 136.401 22.2074C136.401 24.0058 137.384 25.1117 138.99 25.1117C140.272 25.1117 141.168 24.4916 141.42 23.4839H140.354Z" fill="#090909"/>
</svg>
