<svg width="36" height="37" viewBox="0 0 36 37" fill="none" xmlns="http://www.w3.org/2000/svg">
<path d="M28.125 15.125C28.125 12.4397 27.0583 9.86435 25.1595 7.96554C23.2606 6.06674 20.6853 5 18 5C15.3147 5 12.7393 6.06674 10.8405 7.96554C8.94174 9.86435 7.875 12.4397 7.875 15.125C7.875 19.2785 11.1982 24.692 18 31.1765C24.8018 24.692 28.125 19.2785 28.125 15.125ZM18 34.25C9.74925 26.7507 5.625 20.3743 5.625 15.125C5.625 11.8429 6.92879 8.69532 9.24955 6.37455C11.5703 4.05379 14.7179 2.75 18 2.75C21.2821 2.75 24.4297 4.05379 26.7504 6.37455C29.0712 8.69532 30.375 11.8429 30.375 15.125C30.375 20.3743 26.2507 26.7507 18 34.25Z" fill="#F86A2E"/>
<path d="M18 18.5C18.8951 18.5 19.7536 18.1444 20.3865 17.5115C21.0194 16.8786 21.375 16.0201 21.375 15.125C21.375 14.2299 21.0194 13.3714 20.3865 12.7385C19.7536 12.1056 18.8951 11.75 18 11.75C17.1049 11.75 16.2464 12.1056 15.6135 12.7385C14.9806 13.3714 14.625 14.2299 14.625 15.125C14.625 16.0201 14.9806 16.8786 15.6135 17.5115C16.2464 18.1444 17.1049 18.5 18 18.5ZM18 20.75C16.5082 20.75 15.0774 20.1574 14.0225 19.1025C12.9676 18.0476 12.375 16.6168 12.375 15.125C12.375 13.6332 12.9676 12.2024 14.0225 11.1475C15.0774 10.0926 16.5082 9.5 18 9.5C19.4918 9.5 20.9226 10.0926 21.9775 11.1475C23.0324 12.2024 23.625 13.6332 23.625 15.125C23.625 16.6168 23.0324 18.0476 21.9775 19.1025C20.9226 20.1574 19.4918 20.75 18 20.75Z" fill="#F86A2E"/>
</svg>
