<svg width="67" height="24" viewBox="0 0 67 24" fill="none" xmlns="http://www.w3.org/2000/svg">
<path d="M3.568 23V18.584H9.168C10.5333 18.584 11.728 18.3173 12.752 17.784C13.776 17.2293 14.5653 16.4293 15.12 15.384C15.6747 14.3387 15.952 13.1013 15.952 11.672C15.952 10.2427 15.664 9.016 15.088 7.992C14.5333 6.968 13.744 6.17867 12.72 5.624C11.7173 5.06933 10.5333 4.792 9.168 4.792H3.408V0.407999H9.232C10.9387 0.407999 12.5067 0.685333 13.936 1.24C15.3867 1.77333 16.6453 2.552 17.712 3.576C18.8 4.57867 19.632 5.77333 20.208 7.16C20.8053 8.52533 21.104 10.04 21.104 11.704C21.104 13.3467 20.8053 14.8613 20.208 16.248C19.632 17.6347 18.8107 18.8293 17.744 19.832C16.6773 20.8347 15.4187 21.6133 13.968 22.168C12.5387 22.7227 10.9813 23 9.296 23H3.568ZM0.176 23V0.407999H5.2V23H0.176ZM38.413 23L28.045 11.608C27.2343 10.712 26.6477 9.86933 26.285 9.08C25.9223 8.26933 25.741 7.384 25.741 6.424C25.741 5.272 26.029 4.216 26.605 3.256C27.2023 2.27467 28.0023 1.496 29.005 0.919998C30.029 0.322665 31.213 0.0239983 32.557 0.0239983C33.6023 0.0239983 34.5303 0.183999 35.341 0.504C36.1517 0.802666 36.8557 1.19733 37.453 1.688C38.0503 2.15733 38.509 2.65867 38.829 3.192L35.565 6.296C35.1383 5.72 34.6903 5.28267 34.221 4.984C33.773 4.68533 33.2397 4.536 32.621 4.536C31.981 4.536 31.4477 4.728 31.021 5.112C30.6157 5.47467 30.413 5.93333 30.413 6.488C30.413 6.95733 30.509 7.37333 30.701 7.736C30.9143 8.09867 31.213 8.504 31.597 8.952L44.141 23H38.413ZM30.989 23.352C29.453 23.352 28.109 23.0533 26.957 22.456C25.8263 21.8373 24.941 21.0053 24.301 19.96C23.6823 18.8933 23.373 17.7093 23.373 16.408C23.373 15 23.7463 13.752 24.493 12.664C25.2397 11.5547 26.3597 10.6587 27.853 9.976L29.933 13.144C29.293 13.4427 28.813 13.8373 28.493 14.328C28.173 14.8187 28.013 15.4053 28.013 16.088C28.013 16.6427 28.1303 17.1333 28.365 17.56C28.621 17.9653 28.9837 18.2853 29.453 18.52C29.9223 18.7547 30.477 18.872 31.117 18.872C31.8423 18.872 32.461 18.7227 32.973 18.424C33.5063 18.104 33.9543 17.6667 34.317 17.112L37.613 20.504C37.2503 20.9733 36.7277 21.432 36.045 21.88C35.3837 22.3067 34.6157 22.6587 33.741 22.936C32.8877 23.2133 31.9703 23.352 30.989 23.352ZM48.5993 23V18.584H54.1993C55.5646 18.584 56.7593 18.3173 57.7833 17.784C58.8073 17.2293 59.5966 16.4293 60.1513 15.384C60.7059 14.3387 60.9833 13.1013 60.9833 11.672C60.9833 10.2427 60.6953 9.016 60.1193 7.992C59.5646 6.968 58.7753 6.17867 57.7513 5.624C56.7486 5.06933 55.5646 4.792 54.1993 4.792H48.4393V0.407999H54.2633C55.9699 0.407999 57.5379 0.685333 58.9673 1.24C60.4179 1.77333 61.6766 2.552 62.7433 3.576C63.8313 4.57867 64.6633 5.77333 65.2393 7.16C65.8366 8.52533 66.1353 10.04 66.1353 11.704C66.1353 13.3467 65.8366 14.8613 65.2393 16.248C64.6633 17.6347 63.8419 18.8293 62.7753 19.832C61.7086 20.8347 60.4499 21.6133 58.9993 22.168C57.5699 22.7227 56.0126 23 54.3273 23H48.5993ZM45.2073 23V0.407999H50.2313V23H45.2073Z" fill="#FF9F29"/>
</svg>
