<svg width="33" height="25" viewBox="0 0 33 25" fill="none" xmlns="http://www.w3.org/2000/svg">
<path d="M25.9704 25C24.0178 25 22.358 24.3243 20.9911 22.973C19.6243 21.6216 18.9408 19.9807 18.9408 18.0502C18.9408 17.7284 18.9734 16.9884 19.0385 15.8301C19.1035 14.6075 19.3965 13.1596 19.9172 11.4865C20.503 9.81339 21.4142 7.97941 22.6509 5.98456C23.9527 3.92535 25.8077 1.9305 28.216 0H32.8047C31.503 1.287 30.3965 2.574 29.4852 3.861C28.6391 5.14801 27.9231 6.33848 27.3373 7.43243C26.6864 8.65508 26.2308 9.87774 25.9704 11.1004C27.9231 11.1004 29.5828 11.7761 30.9497 13.1274C32.3166 14.4788 33 16.1197 33 18.0502C33 19.9807 32.3166 21.6216 30.9497 22.973C29.5828 24.3243 27.9231 25 25.9704 25ZM7.02959 25C5.07692 25 3.41716 24.3243 2.0503 22.973C0.683432 21.6216 0 19.9807 0 18.0502C0 17.7284 0.0325444 16.9884 0.0976331 15.8301C0.162722 14.6075 0.455621 13.1596 0.976331 11.4865C1.49704 9.81339 2.37574 7.97941 3.61243 5.98456C4.9142 3.92535 6.76923 1.9305 9.17752 0H13.7663C12.4645 1.287 11.358 2.574 10.4467 3.861C9.60059 5.14801 8.91716 6.33848 8.39645 7.43243C7.74556 8.65508 7.28994 9.87774 7.02959 11.1004C8.98225 11.1004 10.6095 11.7761 11.9112 13.1274C13.2781 14.4788 13.9615 16.1197 13.9615 18.0502C13.9615 19.9807 13.2781 21.6216 11.9112 22.973C10.6095 24.3243 8.98225 25 7.02959 25Z" fill="#FFD3C0"/>
</svg>
