<svg width="30" height="30" viewBox="0 0 30 30" fill="none" xmlns="http://www.w3.org/2000/svg">
<path d="M25.3125 12.5001C24.455 12.4999 23.6284 12.1793 22.995 11.6012C22.3616 11.0231 21.967 10.2291 21.8888 9.3751H21.86C21.7839 10.2311 21.3898 11.0276 20.7554 11.6073C20.1209 12.1871 19.2923 12.5081 18.4329 12.507C17.5735 12.5059 16.7457 12.1828 16.1128 11.6014C15.4798 11.02 15.0877 10.2226 15.0138 9.36635H14.9863C14.9127 10.2252 14.519 11.0249 13.8833 11.6071C13.2476 12.1892 12.4164 12.5112 11.5544 12.5092C10.6925 12.5071 9.86277 12.1812 9.22986 11.596C8.59695 11.0109 8.20707 10.2092 8.13754 9.3501H8.11254C8.06871 9.85961 7.91184 10.3529 7.65334 10.7942C7.39484 11.2354 7.04121 11.6135 6.6182 11.9008C6.19518 12.1882 5.71341 12.3776 5.20796 12.4554C4.70251 12.5331 4.18609 12.4971 3.69629 12.3501V26.2501C3.69629 26.5816 3.82799 26.8996 4.06241 27.134C4.29683 27.3684 4.61477 27.5001 4.94629 27.5001H24.9463C25.2778 27.5001 25.5958 27.3684 25.8302 27.134C26.0646 26.8996 26.1963 26.5816 26.1963 26.2501V12.3851C25.9079 12.4616 25.6109 12.5002 25.3125 12.5001Z" fill="white" stroke="#00303E" stroke-linecap="round" stroke-linejoin="round"/>
<path d="M17.4463 27.5V16.875C17.4463 16.7092 17.5121 16.5503 17.6293 16.4331C17.7466 16.3158 17.9055 16.25 18.0713 16.25H23.0713C23.2371 16.25 23.396 16.3158 23.5132 16.4331C23.6304 16.5503 23.6963 16.7092 23.6963 16.875V27.5H17.4463Z" fill="#FFE6C6" stroke="#00303E" stroke-linecap="round" stroke-linejoin="round"/>
<path d="M4.61099 2.5C4.35775 2.50012 4.11052 2.57716 3.90204 2.72091C3.69355 2.86467 3.53365 3.06835 3.44349 3.305L1.46724 8.49C1.25539 9.04658 1.24918 9.6605 1.44974 10.2213C1.72338 10.983 2.25692 11.6237 2.95646 12.0308C3.656 12.4379 4.47671 12.5851 5.27415 12.4467C6.07158 12.3083 6.79464 11.893 7.31605 11.274C7.83747 10.655 8.12383 9.87186 8.12474 9.0625C8.12474 9.97418 8.48691 10.8485 9.13156 11.4932C9.77622 12.1378 10.6506 12.5 11.5622 12.5C12.4739 12.5 13.3483 12.1378 13.9929 11.4932C14.6376 10.8485 14.9997 9.97418 14.9997 9.0625C14.9997 9.97418 15.3619 10.8485 16.0066 11.4932C16.6512 12.1378 17.5256 12.5 18.4372 12.5C19.3489 12.5 20.2233 12.1378 20.8679 11.4932C21.5126 10.8485 21.8747 9.97418 21.8747 9.0625C21.8757 9.87186 22.162 10.655 22.6834 11.274C23.2048 11.893 23.9279 12.3083 24.7253 12.4467C25.5228 12.5851 26.3435 12.4379 27.043 12.0308C27.7426 11.6237 28.2761 10.983 28.5497 10.2213C28.7506 9.66047 28.7439 9.0463 28.531 8.49L26.556 3.305C26.4658 3.06835 26.3059 2.86467 26.0974 2.72091C25.889 2.57716 25.6417 2.50012 25.3885 2.5H4.61099Z" fill="#FFE6C6"/>
<path d="M2.85523 6.935H27.1452C27.486 6.93843 27.8146 7.06243 28.0727 7.285L26.5565 3.305C26.4663 3.06835 26.3064 2.86466 26.0979 2.72091C25.8895 2.57716 25.6422 2.50012 25.389 2.5H4.61148C4.35824 2.50012 4.11101 2.57716 3.90253 2.72091C3.69404 2.86466 3.53414 3.06835 3.44398 3.305L1.92773 7.285C2.18585 7.06243 2.51443 6.93843 2.85523 6.935Z" fill="#FFF8EE"/>
<path d="M4.61099 2.5C4.35775 2.50012 4.11052 2.57716 3.90204 2.72091C3.69355 2.86466 3.53365 3.06835 3.44349 3.305L1.46724 8.49C1.25539 9.04658 1.24918 9.6605 1.44974 10.2213C1.72338 10.983 2.25692 11.6237 2.95646 12.0308C3.656 12.4379 4.47671 12.5851 5.27415 12.4467C6.07158 12.3083 6.79464 11.893 7.31605 11.274C7.83747 10.655 8.12383 9.87186 8.12474 9.0625C8.12474 9.97418 8.48691 10.8485 9.13156 11.4932C9.77622 12.1378 10.6506 12.5 11.5622 12.5C12.4739 12.5 13.3483 12.1378 13.9929 11.4932C14.6376 10.8485 14.9997 9.97418 14.9997 9.0625C14.9997 9.97418 15.3619 10.8485 16.0066 11.4932C16.6512 12.1378 17.5256 12.5 18.4372 12.5C19.3489 12.5 20.2233 12.1378 20.8679 11.4932C21.5126 10.8485 21.8747 9.97418 21.8747 9.0625C21.8757 9.87186 22.162 10.655 22.6834 11.274C23.2048 11.893 23.9279 12.3083 24.7253 12.4467C25.5228 12.5851 26.3435 12.4379 27.043 12.0308C27.7426 11.6237 28.2761 10.983 28.5497 10.2213C28.7506 9.66047 28.7439 9.0463 28.531 8.49L26.556 3.305C26.4658 3.06835 26.3059 2.86466 26.0974 2.72091C25.889 2.57716 25.6417 2.50012 25.3885 2.5H4.61099Z" stroke="#00303E" stroke-linecap="round" stroke-linejoin="round"/>
<path d="M6.82129 16.25H14.3213C14.3213 16.25 14.9463 16.25 14.9463 16.875V23.125C14.9463 23.125 14.9463 23.75 14.3213 23.75H6.82129C6.82129 23.75 6.19629 23.75 6.19629 23.125V16.875C6.19629 16.875 6.19629 16.25 6.82129 16.25Z" fill="#FFE6C6"/>
<path d="M6.82129 16.25C6.65553 16.25 6.49656 16.3158 6.37935 16.4331C6.26214 16.5503 6.19629 16.7092 6.19629 16.875V23.125C6.19665 23.2888 6.26128 23.4459 6.37629 23.5625L13.6875 16.25H6.82129Z" fill="#FFF8EE"/>
<path d="M6.82129 16.25H14.3213C14.3213 16.25 14.9463 16.25 14.9463 16.875V23.125C14.9463 23.125 14.9463 23.75 14.3213 23.75H6.82129C6.82129 23.75 6.19629 23.75 6.19629 23.125V16.875C6.19629 16.875 6.19629 16.25 6.82129 16.25Z" stroke="#00303E" stroke-linecap="round" stroke-linejoin="round"/>
</svg>
