<svg width="30" height="30" viewBox="0 0 30 30" fill="none" xmlns="http://www.w3.org/2000/svg">
<path d="M5.625 3.75098H24.375C24.375 3.75098 25.625 3.75098 25.625 5.00098V17.501C25.625 17.501 25.625 18.751 24.375 18.751H5.625C5.625 18.751 4.375 18.751 4.375 17.501V5.00098C4.375 5.00098 4.375 3.75098 5.625 3.75098Z" fill="#FFE6C6"/>
<path d="M5.625 3.75C5.29348 3.75 4.97554 3.8817 4.74112 4.11612C4.5067 4.35054 4.375 4.66848 4.375 5V17.5C4.38104 17.731 4.45256 17.9556 4.58125 18.1475L18.9787 3.75H5.625Z" fill="#FFF8EE"/>
<path d="M5.51136 18.75C5.28896 18.7494 5.07025 18.8068 4.87672 18.9163C4.68319 19.0259 4.52152 19.184 4.40761 19.375L1.42636 24.375C1.31571 24.5666 1.25788 24.7841 1.2588 25.0054C1.25972 25.2266 1.31934 25.4436 1.43157 25.6343C1.54381 25.825 1.70464 25.9824 1.89764 26.0906C2.09065 26.1988 2.3089 26.2538 2.53011 26.25H27.4701C27.6913 26.2538 27.9096 26.1988 28.1026 26.0906C28.2956 25.9824 28.4564 25.825 28.5686 25.6343C28.6809 25.4436 28.7405 25.2266 28.7414 25.0054C28.7423 24.7841 28.6845 24.5666 28.5739 24.375L25.5926 19.375C25.4787 19.184 25.317 19.0259 25.1235 18.9163C24.93 18.8068 24.7113 18.7494 24.4889 18.75H5.51136Z" fill="#FFF8EE" stroke="#00303E" stroke-linecap="round" stroke-linejoin="round"/>
<path d="M11.875 23.751H18.125" stroke="#00303E" stroke-linecap="round" stroke-linejoin="round"/>
<path d="M15 8.37509C15 8.37509 16.15 6.76134 19.9788 6.59509C20.0626 6.59224 20.1462 6.60629 20.2245 6.63642C20.3028 6.66655 20.3742 6.71214 20.4345 6.77046C20.4948 6.82878 20.5427 6.89865 20.5755 6.9759C20.6082 7.05315 20.625 7.13619 20.625 7.22009V13.8451C20.625 14.0091 20.5605 14.1666 20.4455 14.2835C20.3304 14.4005 20.174 14.4675 20.01 14.4701C16.1562 14.6251 15 16.2501 15 16.2501V8.37509C15 8.37509 13.85 6.76134 10.0213 6.59509C9.9374 6.59224 9.85384 6.60629 9.77554 6.63642C9.69724 6.66655 9.62581 6.71214 9.56551 6.77046C9.5052 6.82878 9.45725 6.89865 9.42452 6.9759C9.39179 7.05315 9.37495 7.13619 9.375 7.22009V13.8451C9.37498 14.0091 9.43945 14.1666 9.55451 14.2835C9.66957 14.4005 9.82598 14.4675 9.99 14.4701C13.8438 14.6251 15 16.2501 15 16.2501" fill="white"/>
<path d="M15 8.37509C15 8.37509 16.15 6.76134 19.9787 6.59509C20.0626 6.59224 20.1462 6.60629 20.2245 6.63642C20.3028 6.66655 20.3742 6.71214 20.4345 6.77046C20.4948 6.82878 20.5427 6.89865 20.5755 6.9759C20.6082 7.05315 20.625 7.13619 20.625 7.22009V13.8451C20.625 14.0091 20.5605 14.1666 20.4455 14.2835C20.3304 14.4005 20.174 14.4675 20.01 14.4701C16.1562 14.6251 15 16.2501 15 16.2501M15 8.37509V16.2501M15 8.37509C15 8.37509 13.85 6.76134 10.0213 6.59509C9.9374 6.59224 9.85384 6.60629 9.77554 6.63642C9.69724 6.66655 9.62581 6.71214 9.56551 6.77046C9.5052 6.82878 9.45725 6.89865 9.42452 6.9759C9.39179 7.05315 9.37495 7.13619 9.375 7.22009V13.8451C9.37498 14.0091 9.43945 14.1666 9.55451 14.2835C9.66957 14.4005 9.82598 14.4675 9.99 14.4701C13.8438 14.6251 15 16.2501 15 16.2501" stroke="#00303E" stroke-linecap="round" stroke-linejoin="round"/>
<path d="M5.625 3.75098H24.375C24.375 3.75098 25.625 3.75098 25.625 5.00098V17.501C25.625 17.501 25.625 18.751 24.375 18.751H5.625C5.625 18.751 4.375 18.751 4.375 17.501V5.00098C4.375 5.00098 4.375 3.75098 5.625 3.75098Z" stroke="#00303E" stroke-linecap="round" stroke-linejoin="round"/>
</svg>
