<svg width="170" height="150" viewBox="0 0 170 150" fill="none" xmlns="http://www.w3.org/2000/svg">
<g clip-path="url(#clip0_4010_32234)">
<g opacity="0.4">
<path d="M65.1504 95.978C65.1318 95.9499 65.1038 95.9219 65.0851 95.8939C64.5625 95.2122 63.9465 94.5025 63.2466 93.7648C60.9042 91.3088 58.1697 89.5252 55.482 88.3486C55.454 88.3393 55.426 88.3206 55.398 88.3113C50.3491 86.1168 45.5149 86.0701 43.8071 87.7043C43.7511 87.7603 43.6858 87.8257 43.6298 87.891L43.5738 87.9564C41.9499 90.0855 42.1739 96.9211 45.7296 103.094L45.7949 103.206C46.6535 104.672 47.6987 106.101 48.9493 107.417C55.0807 113.842 59.5323 113.291 63.2466 110.34C63.2839 110.312 63.3119 110.284 63.3493 110.256C63.3679 110.237 63.3959 110.219 63.4146 110.2C63.4986 110.135 63.5826 110.06 63.6666 109.995C63.9185 109.78 64.1705 109.546 64.4225 109.313C65.0664 108.697 65.6544 108.052 66.149 107.38C68.0715 104.775 68.6688 101.721 66.373 97.7989C66.037 97.2106 65.6264 96.6036 65.1504 95.978Z" fill="#C8E69A"/>
<path d="M59.8407 104.737C57.9835 102.011 56.0237 99.3585 53.8679 96.8838C53.8493 96.8652 53.8306 96.8465 53.8119 96.8185C52.1601 94.9135 50.3869 93.1205 48.4644 91.4677C46.9432 90.1603 45.3287 88.9557 43.6302 87.8911L43.5742 87.9565C49.4163 91.6264 54.0359 96.8091 58.0675 102.375C58.0862 102.393 58.0955 102.421 58.1142 102.44C59.0101 103.682 59.8874 104.952 60.7273 106.222C61.5019 107.38 62.2578 108.547 63.0044 109.724C63.1164 109.901 63.2377 110.079 63.3497 110.266C63.3684 110.247 63.3964 110.228 63.415 110.209C63.2284 109.911 63.0324 109.602 62.8364 109.304C61.8752 107.791 60.8953 106.287 59.878 104.812C59.878 104.784 59.8594 104.756 59.8407 104.737Z" fill="white"/>
<path d="M53.7836 96.8649C53.7463 96.9022 53.8116 96.9582 53.8489 96.9209C53.8583 96.9115 53.8676 96.9022 53.8769 96.8835C54.9408 95.5762 55.2395 93.7646 55.4261 92.1397C55.5754 90.879 55.5941 89.609 55.4914 88.3484C55.4634 88.339 55.4355 88.3204 55.4075 88.311C55.5101 89.5157 55.5008 90.7296 55.3701 91.9343C55.1928 93.6058 54.9035 95.4735 53.8209 96.8182C53.8023 96.8368 53.7929 96.8462 53.7836 96.8649Z" fill="white"/>
<path d="M58.1234 102.347C58.1048 102.356 58.0954 102.365 58.0768 102.375C54.3531 104.364 49.6589 104.709 45.7393 103.084L45.8046 103.197C49.7335 104.775 54.4091 104.42 58.1234 102.431C58.1328 102.421 58.1421 102.421 58.1514 102.412C58.1981 102.403 58.1701 102.328 58.1234 102.347Z" fill="white"/>
<path d="M59.8028 104.765C59.7655 104.803 59.8121 104.868 59.8494 104.831C59.8588 104.821 59.8774 104.812 59.8868 104.793C62.4905 102.506 64.3477 99.3586 65.1503 95.9688C65.1316 95.9408 65.1036 95.9128 65.085 95.8848C64.2917 99.2745 62.4439 102.431 59.8401 104.728C59.8308 104.747 59.8215 104.756 59.8028 104.765Z" fill="white"/>
</g>
<g opacity="0.4">
<path d="M87.6887 93.4661C87.726 93.4194 87.754 93.3727 87.7913 93.3354C88.6219 92.2521 89.5832 91.1409 90.6937 89.9736C94.3987 86.0982 98.7103 83.2781 102.938 81.4291C102.985 81.4104 103.031 81.3918 103.078 81.3731C111.038 77.9179 118.672 77.8432 121.36 80.4112C121.453 80.5046 121.547 80.598 121.631 80.7101L121.715 80.8128C124.272 84.1652 123.927 94.9509 118.318 104.681L118.215 104.868C116.871 107.184 115.219 109.434 113.241 111.508C103.563 121.649 96.5452 120.771 90.6844 116.121C90.6284 116.074 90.5724 116.037 90.5257 115.99C90.4884 115.962 90.4604 115.934 90.4231 115.906C90.2924 115.794 90.1618 115.691 90.0311 115.579C89.6298 115.234 89.2379 114.879 88.8459 114.505C87.8287 113.534 86.9047 112.516 86.1208 111.452C83.0878 107.352 82.1452 102.524 85.7662 96.3329C86.2981 95.4084 86.9421 94.4559 87.6887 93.4661Z" fill="#C8E69A"/>
<path d="M96.0597 107.277C98.99 102.982 102.088 98.7982 105.485 94.8855C105.513 94.8481 105.541 94.8201 105.569 94.7827C108.183 91.7852 110.973 88.9463 114.006 86.341C116.414 84.2772 118.952 82.3816 121.64 80.7007L121.724 80.8034C112.513 86.5838 105.215 94.7734 98.8594 103.551C98.8314 103.589 98.8127 103.626 98.7847 103.654C97.3662 105.615 95.9943 107.613 94.6598 109.612C93.4466 111.442 92.252 113.282 91.0668 115.131C90.8895 115.411 90.7028 115.7 90.5255 115.981C90.4882 115.953 90.4602 115.924 90.4229 115.896C90.7215 115.42 91.0295 114.944 91.3281 114.468C92.8493 112.086 94.3985 109.715 95.9943 107.38C96.013 107.343 96.0317 107.315 96.0597 107.277Z" fill="white"/>
<path d="M105.626 94.8574C105.682 94.9228 105.579 95.0069 105.523 94.9415C105.505 94.9228 105.495 94.9041 105.477 94.8855C103.797 92.8217 103.33 89.9736 103.032 87.4055C102.798 85.4165 102.77 83.4181 102.938 81.4291C102.985 81.4104 103.032 81.3917 103.078 81.373C102.91 83.278 102.929 85.1924 103.134 87.0974C103.414 89.7308 103.862 92.6816 105.57 94.8014C105.589 94.8108 105.607 94.8388 105.626 94.8574Z" fill="white"/>
<path d="M98.7758 103.514C98.8038 103.523 98.8224 103.542 98.8504 103.551C104.721 106.689 112.131 107.231 118.318 104.681L118.215 104.868C112.019 107.361 104.637 106.801 98.7851 103.663C98.7664 103.654 98.7571 103.645 98.7384 103.635C98.6638 103.598 98.7105 103.477 98.7758 103.514Z" fill="white"/>
<path d="M96.1254 107.333C96.1908 107.389 96.1161 107.492 96.0508 107.436C96.0321 107.418 96.0135 107.399 95.9948 107.38C91.8885 103.766 88.9581 98.7983 87.6982 93.4662C87.7356 93.4195 87.7636 93.3728 87.8009 93.3354C89.0421 98.6769 91.9632 103.664 96.0695 107.277C96.0788 107.296 96.0975 107.315 96.1254 107.333Z" fill="white"/>
</g>
<path d="M117.188 57.5889C117.188 57.5889 113.949 58.3359 113.371 59.2511C112.792 60.1756 112.802 65.6197 114.341 65.8345C115.872 66.0493 120.454 63.3319 120.809 62.9023C121.173 62.4821 117.188 57.5889 117.188 57.5889Z" fill="#F8B499"/>
<path d="M117.953 49.5576C117.953 49.5576 114.127 50.4354 113.436 51.528C112.755 52.6206 112.764 59.0639 114.575 59.3067C116.385 59.5589 121.798 56.3465 122.227 55.8422C122.657 55.3473 117.953 49.5576 117.953 49.5576Z" fill="#F8B499"/>
<path d="M117.953 38.707C117.953 38.707 114.127 39.5848 113.436 40.6774C112.746 41.77 112.764 48.2134 114.575 48.4561C116.385 48.7083 120.996 46.1496 121.416 45.6453C121.845 45.1504 117.953 38.707 117.953 38.707Z" fill="#F8B499"/>
<path d="M97.0583 51.2855C97.1609 50.5758 94.3052 42.1807 95.0051 42.05C99.0461 41.3123 112.653 31.0962 117.888 28.0613C121.612 25.9042 124.272 28.8644 122.396 31.3764C117.823 37.5116 96.181 57.1499 97.0583 51.2855Z" fill="#FBC7B1"/>
<g opacity="0.3">
<path d="M141.536 139.364C140.556 140.344 139.465 141.222 138.195 141.773C135.694 142.865 132.838 142.557 130.104 142.781C129.992 142.791 129.88 142.8 129.768 142.809C128.788 142.912 127.827 143.09 126.912 143.435C126.24 143.687 125.55 144.089 125.307 144.77C125.018 145.583 125.494 146.489 126.11 147.096C126.726 147.703 127.5 148.151 128.042 148.823C128.322 149.169 128.518 149.57 128.648 149.99H106.064L97.9631 147.908C97.4124 147.544 96.8712 147.17 96.3392 146.787C95.8913 146.47 95.4526 146.134 95.0233 145.798C95.0233 145.798 94.5474 144.901 93.8288 143.519C93.7541 143.37 93.6701 143.22 93.5955 143.071C93.5302 142.949 93.4742 142.828 93.4088 142.707C90.9264 137.954 86.4935 129.381 86.7361 129.138C86.9414 128.933 90.8611 128.111 95.6673 127.149C97.1885 126.85 98.7937 126.533 100.399 126.215C104.85 125.338 109.302 124.478 111.85 123.946C113.11 123.685 113.903 123.507 114.015 123.442C114.482 123.18 114.976 122.956 115.489 122.788C116.04 122.601 116.609 122.461 117.188 122.377C117.505 122.331 117.832 122.303 118.159 122.284C118.457 122.275 118.765 122.275 119.064 122.293C119.428 122.321 119.792 122.368 120.156 122.433C120.613 122.527 121.061 122.658 121.5 122.826C121.761 122.928 122.031 123.05 122.283 123.199C122.433 123.283 122.573 123.367 122.722 123.47C123.758 124.17 124.561 125.197 124.579 126.421C124.579 126.514 124.579 126.608 124.57 126.701C124.514 127.485 124.234 128.288 124.486 129.026C124.887 130.221 126.334 130.548 127.64 130.558C127.799 130.558 127.958 130.558 128.107 130.548C130.515 130.427 132.922 130.081 135.33 130.193C137.738 130.306 140.22 130.95 142.022 132.565C142.768 133.238 143.393 134.097 143.543 135.087C143.543 135.105 143.552 135.124 143.552 135.143C143.552 135.161 143.552 135.18 143.561 135.199C143.701 136.777 142.656 138.234 141.536 139.364Z" fill="#C8E69A"/>
</g>
<path d="M134.136 121.798C133.874 122.807 133.398 123.806 132.866 124.702C131.924 126.309 130.785 127.821 129.32 128.97C125.27 132.136 119.39 131.958 115.181 134.928C114.388 135.488 113.623 136.235 113.539 137.206C113.436 138.364 114.351 139.382 115.359 139.961C116.367 140.54 117.524 140.867 118.448 141.567C120.342 142.996 120.865 145.788 120.025 148.011C119.745 148.739 119.344 149.402 118.858 150.009H77.7022C76.601 149.607 75.5091 149.169 74.4265 148.702C74.0252 148.253 57.7214 130.315 58.0388 129.782C58.2161 129.484 62.3223 127.457 62.4717 127.382C62.481 127.373 66.8859 125.197 80.586 118.651C86.5214 115.822 91.3743 113.487 91.6542 113.216C92.6902 112.226 93.9034 111.423 95.2192 110.844C97.0391 110.041 99.1295 109.658 101.183 109.92C102.676 110.107 104.281 110.704 105.345 111.788C106.605 113.067 106.512 114.272 106.67 115.486C106.736 116.027 106.857 116.541 107.146 116.989C108.173 118.586 110.562 118.315 112.372 117.755C116.161 116.578 119.857 114.935 123.786 114.542C124.309 114.542 127.846 113.982 131.177 115.719C132.39 116.345 133.585 117.334 134.052 118.633C134.061 118.689 134.649 119.8 134.136 121.798Z" fill="#C8E69A"/>
<path d="M132.279 119.287C132.157 119.305 132.027 119.315 131.905 119.333C128.938 119.688 126.045 120.239 123.236 120.977C123.226 120.977 123.226 120.977 123.217 120.986C122.89 121.07 122.564 121.164 122.237 121.248C118.196 122.378 114.342 123.909 110.721 125.823C109.517 126.458 108.341 127.131 107.193 127.85C106.549 128.251 105.915 128.662 105.289 129.092C102.163 131.212 99.2419 133.649 96.5634 136.376C94.4916 138.477 92.7745 140.55 91.3746 142.427C91.0386 142.884 90.712 143.323 90.4134 143.762C90.3294 143.884 90.236 144.005 90.1521 144.136C88.2482 146.9 87.1283 149.076 86.671 150.019H86.2324C86.7177 149.001 88.2762 145.901 91.1786 142.035C92.5598 140.186 94.249 138.159 96.2741 136.105C96.3488 136.03 96.4235 135.955 96.4981 135.881C96.7594 135.619 97.0207 135.358 97.2914 135.096C101.248 131.258 105.7 128.027 110.534 125.469C112.214 124.581 113.94 123.778 115.704 123.059C116.078 122.91 116.451 122.76 116.824 122.611C118.756 121.873 120.735 121.229 122.76 120.678C125.597 119.912 128.536 119.343 131.541 118.96C131.775 118.932 131.999 118.904 132.232 118.876C132.344 118.866 132.447 118.941 132.456 119.053C132.475 119.175 132.391 119.277 132.279 119.287Z" fill="#99C251"/>
<path d="M93.5774 127.56C93.5214 126.701 93.5494 125.917 93.6241 125.188C94.0347 121.36 98.365 121.117 99.1022 124.88C99.2609 125.674 99.3542 126.533 99.3729 127.467C99.4569 133.051 96.6011 135.965 96.6011 135.965C96.6011 135.965 93.9507 133.565 93.5774 127.56Z" fill="#99C251"/>
<path d="M136.627 117.344C137.141 117.326 137.617 117.363 138.055 117.419C140.351 117.746 140.407 120.351 138.13 120.715C137.654 120.79 137.131 120.837 136.571 120.827C133.212 120.771 131.522 118.997 131.522 118.997C131.522 118.997 133.016 117.447 136.627 117.344Z" fill="#99C251"/>
<path d="M115.966 116.831C116.153 116.242 116.377 115.719 116.619 115.252C117.898 112.787 120.875 113.758 120.38 116.485C120.278 117.055 120.119 117.662 119.886 118.297C118.476 122.069 115.798 123.283 115.798 123.283C115.798 123.283 114.641 120.958 115.966 116.831Z" fill="#99C251"/>
<path d="M112.522 127.429C113.24 127.504 113.903 127.626 114.5 127.794C117.654 128.662 117.262 132.323 114.005 132.425C113.324 132.444 112.587 132.416 111.803 132.295C107.118 131.604 105.074 128.821 105.074 128.821C105.074 128.821 107.454 126.935 112.522 127.429Z" fill="#99C251"/>
<path d="M127.548 121.789C128.024 121.985 128.444 122.21 128.817 122.452C130.767 123.694 129.741 126.094 127.52 125.487C127.053 125.357 126.558 125.179 126.054 124.936C123.021 123.489 122.219 121.173 122.219 121.173C122.219 121.173 124.216 120.389 127.548 121.789Z" fill="#99C251"/>
<path d="M99.522 140.839C100.474 140.792 101.361 140.839 102.163 140.942C106.428 141.483 106.605 146.311 102.396 147.058C101.51 147.217 100.549 147.31 99.5034 147.301C93.2786 147.282 90.0869 144.042 90.0869 144.042C90.0869 144.042 92.8307 141.138 99.522 140.839Z" fill="#99C251"/>
<path d="M105.466 143.958C105.102 143.762 104.673 143.65 104.272 143.547C103.534 143.361 102.788 143.23 102.032 143.127C99.7174 142.81 97.3563 142.791 95.0232 143.024C93.3714 143.193 91.7288 143.482 90.1143 143.902C90.049 143.921 90.077 144.014 90.1423 143.996C94.5659 142.838 99.4655 142.511 103.954 143.575C104.44 143.687 104.962 143.809 105.401 144.042C105.466 144.07 105.522 143.986 105.466 143.958Z" fill="#C8E69A"/>
<path d="M95.7984 122.032C96.6009 124.114 96.6663 126.365 96.6943 128.569C96.7316 130.903 96.7596 133.229 96.6383 135.563C96.6383 135.628 96.7316 135.628 96.7409 135.563C96.8716 133.182 96.8343 130.801 96.7969 128.419C96.7689 126.253 96.6849 124.049 95.8917 122.004C95.873 121.939 95.7797 121.967 95.7984 122.032Z" fill="#C8E69A"/>
<path d="M105.252 128.905C107.333 128.438 109.489 128.41 111.579 128.839C113.306 129.194 115.368 129.829 116.18 131.547C116.208 131.603 116.292 131.557 116.264 131.501C115.452 129.801 113.446 129.148 111.738 128.774C109.591 128.307 107.361 128.326 105.214 128.802C105.168 128.821 105.186 128.923 105.252 128.905Z" fill="#C8E69A"/>
<path d="M129.405 125.282C128.182 122.695 125.382 121.033 122.527 121.192C122.461 121.192 122.461 121.294 122.527 121.294C125.354 121.136 128.107 122.77 129.321 125.328C129.349 125.394 129.433 125.338 129.405 125.282Z" fill="#C8E69A"/>
<path d="M115.928 123.237C117.664 120.473 118.634 117.279 118.718 114.01C118.718 113.945 118.616 113.945 118.616 114.01C118.532 117.26 117.571 120.435 115.835 123.181C115.807 123.246 115.891 123.293 115.928 123.237Z" fill="#C8E69A"/>
<path d="M131.644 119.137C134.192 118.213 137.393 117.382 139.661 119.389C139.708 119.436 139.782 119.361 139.736 119.315C137.43 117.288 134.201 118.101 131.616 119.034C131.551 119.062 131.579 119.165 131.644 119.137Z" fill="#C8E69A"/>
<path d="M69.4804 148.786C68.4818 149.215 67.4646 149.626 66.438 150H28.1749C27.7176 149.439 27.3443 148.823 27.0924 148.151C26.3084 146.087 26.7937 143.491 28.5576 142.165C29.4255 141.511 30.4987 141.212 31.432 140.671C32.3652 140.129 33.2238 139.186 33.1211 138.112C33.0371 137.216 32.3279 136.515 31.5906 136.002C27.6803 133.247 22.2208 133.406 18.4505 130.464C17.088 129.4 16.0334 127.99 15.1562 126.505C14.1483 124.787 13.3363 122.695 14.0549 120.846C14.0549 120.836 14.1016 120.724 14.1109 120.715C14.5962 119.566 15.6228 118.717 16.7333 118.138C19.4118 116.746 22.6128 116.746 25.5712 117.353C28.5296 117.96 31.3293 119.146 34.2037 120.033C35.8929 120.556 38.0953 120.799 39.0566 119.324C39.6165 118.455 39.4859 117.316 39.7005 116.354C40.1578 114.206 42.4256 113.011 44.6001 112.74C46.3546 112.525 48.2024 112.787 49.9382 113.515C49.9476 113.515 49.9942 113.534 50.0222 113.553C52.6913 114.683 54.9871 116.868 56.0416 119.66C56.051 119.66 66.998 143.407 69.4804 148.786Z" fill="#C8E69A"/>
<path d="M55.2393 137.636C55.2393 137.636 63.7411 80.701 63.8624 78.189C64.0491 74.1362 90.3666 79.8605 88.8268 85.6969C86.0737 96.1184 91.3932 137.636 91.3932 137.636H55.2393Z" fill="#FBC7B1"/>
<path d="M66.3265 81.4664C66.3265 81.4664 61.1937 78.0206 61.9683 70.5407C62.7429 63.0608 67.3251 57.4952 71.562 54.5537C78.5147 49.7258 80.3812 49.511 78.9347 52.5179C78.1321 54.1895 79.9613 61.6414 86.606 61.3239C92.1121 61.0531 80.3906 88.8623 66.3265 81.4664Z" fill="#FBC7B1"/>
<path d="M63.3869 78.301C64.1615 79.6644 65.7574 80.5049 67.1292 81.1399C67.2412 81.1865 67.3346 81.0278 67.2226 80.9811C65.8694 80.3648 64.3015 79.543 63.5456 78.2076C63.4896 78.1049 63.3216 78.1983 63.3869 78.301Z" fill="#F18E7B"/>
<path d="M81.2398 87.5829C83.265 88.8062 85.9994 88.8342 88.2859 88.6568C88.4072 88.6475 88.4072 88.4607 88.2859 88.4701C86.0181 88.6475 83.3396 88.6381 81.3332 87.4242C81.2305 87.3588 81.1372 87.5176 81.2398 87.5829Z" fill="#F18E7B"/>
<path d="M71.9351 45.3184C72.7937 51.1268 70.3486 55.8799 70.7126 57.0752C71.0859 58.2612 72.9244 63.5373 72.9244 63.5373C72.9244 63.5373 62.2107 75.9571 61.9027 72.6514C61.5014 68.3838 62.0054 56.5429 63.5266 52.873C64.7958 49.8007 65.3277 46.7191 65.6077 44.1978C65.9344 41.3029 65.9344 39.1551 66.3823 38.5855C66.4196 38.5388 66.457 38.5015 66.4943 38.4828C67.5115 37.8665 71.0579 39.426 71.9351 45.3184Z" fill="#FBC7B1"/>
<path d="M68.1092 41.6857C67.8852 44.3097 67.0547 44.2163 65.6081 44.1976C65.4775 41.3401 65.6735 39.1737 66.3827 38.5854C66.7094 38.5387 67.4093 38.7815 67.5959 39.0896C67.9692 39.6966 68.1652 41.0226 68.1092 41.6857Z" fill="#FFD5C2"/>
<path d="M48.1093 37.082L52.4769 36.1389C52.9622 36.0361 53.3355 36.5031 53.1115 36.9326L51.077 40.7893C50.9837 40.9574 50.993 41.1628 51.077 41.3216L53.1768 44.9728C53.4101 45.3837 53.0462 45.888 52.5515 45.8319L48.1746 45.337C47.9786 45.3183 47.7827 45.3837 47.652 45.5331L44.5816 48.7268C44.2363 49.0817 43.639 48.9229 43.5644 48.4653L42.8924 44.3005C42.8644 44.1137 42.7431 43.9643 42.5658 43.8896L38.5715 42.2181C38.1236 42.0313 38.1236 41.4243 38.5622 41.1909L42.5191 39.1084C42.6965 39.015 42.8178 38.847 42.8458 38.6602L43.4524 34.43C43.5177 33.9537 44.1243 33.7389 44.4696 34.0564L47.5867 36.9326C47.7173 37.0727 47.9133 37.1194 48.1093 37.082Z" fill="#FFB041"/>
<path d="M45.254 35.8118C45.6646 35.9425 46.9618 37.2872 47.5964 37.446C48.4643 37.6701 51.2734 36.7456 51.516 37.0444C51.9547 37.5674 48.511 39.1642 47.0458 38.8467C45.6739 38.5479 44.0407 35.4196 45.254 35.8118Z" fill="#FFC06E"/>
<path d="M142.311 27.2209L145.997 29.6208C146.408 29.8916 146.343 30.4799 145.885 30.62L141.779 31.8806C141.602 31.9367 141.462 32.0767 141.415 32.2542L140.323 36.2509C140.202 36.6992 139.595 36.7926 139.287 36.4097L136.59 33.0106C136.469 32.8612 136.282 32.7678 136.086 32.7771L131.728 32.8518C131.243 32.8612 130.935 32.3289 131.205 31.9554L133.65 28.5936C133.762 28.4442 133.781 28.2481 133.706 28.08L132.101 24.1299C131.924 23.691 132.344 23.2615 132.81 23.4109L137.01 24.7369C137.197 24.7929 137.393 24.7649 137.542 24.6529L140.911 22.1409C141.284 21.8607 141.854 22.1315 141.872 22.5984L142.031 26.782C142.05 26.9407 142.152 27.1088 142.311 27.2209Z" fill="#FFB041"/>
<path d="M141.219 24.3539C141.415 24.7367 141.378 26.5764 141.704 27.1273C142.152 27.8931 144.747 29.2098 144.71 29.5926C144.644 30.265 141.145 28.9576 140.351 27.7156C139.595 26.539 140.65 23.2239 141.219 24.3539Z" fill="#FFC06E"/>
<path d="M124.99 7.11541C124.01 7.37688 123.04 7.7971 122.704 7.67571C121.78 7.33019 121.631 2.21284 120.567 2.45564C119.913 2.60505 119.829 2.7638 119.559 6.51777C119.428 8.27335 117.394 9.00174 117.291 10.1317C117.291 10.1317 118.327 15.0062 119.185 15.9681C119.801 16.6591 126.026 15.305 127.09 14.5767C128.126 13.8576 127.501 13.0732 127.398 12.9705C128.378 12.5409 128.005 11.0842 127.323 10.9441C127.323 10.9441 128.247 9.17916 126.791 8.61887C127.407 8.06791 127.043 6.57379 124.99 7.11541Z" fill="#FFBF61"/>
<path d="M117.935 8.85209L114.958 9.4404C114.519 9.52444 114.239 9.96334 114.332 10.4022L115.723 16.4627C115.826 16.911 116.283 17.1818 116.722 17.0511L119.596 16.2106C119.727 16.1733 119.801 16.0425 119.773 15.9118L118.205 9.02951C118.187 8.90812 118.065 8.82407 117.935 8.85209Z" fill="#C1B2FF"/>
<path d="M101.133 13.0517C103.717 10.4661 103.717 6.2741 101.133 3.68854C98.5487 1.10298 94.3593 1.10298 91.7754 3.68854C89.1914 6.2741 89.1914 10.4661 91.7754 13.0517C94.3593 15.6372 98.5487 15.6372 101.133 13.0517Z" fill="#FFBF61"/>
<path d="M92.9521 9.95418C92.9521 9.95418 97.1331 9.4686 100.213 7.54492C100.213 7.54492 100.651 10.7479 97.581 11.7658C94.492 12.793 92.9521 9.95418 92.9521 9.95418Z" fill="white"/>
<path d="M93.0082 7.36755C92.8402 6.85395 93.0082 6.34034 93.4002 6.20961C93.7828 6.07887 94.2308 6.39637 94.3988 6.90998C94.5667 7.42358 94.3988 7.93718 94.0068 8.06792C93.6242 8.18931 93.1762 7.88115 93.0082 7.36755Z" fill="#353659"/>
<path d="M98.2369 6.66741C98.6185 6.5407 98.7896 6.02133 98.6191 5.50737C98.4487 4.99341 98.0012 4.67949 97.6196 4.8062C97.238 4.93292 97.0669 5.45229 97.2374 5.96625C97.4079 6.48021 97.8554 6.79413 98.2369 6.66741Z" fill="#353659"/>
<path d="M115.051 26.4831V91.0383C115.051 93.2514 113.259 95.035 111.057 95.035H75.3044C73.3913 95.035 71.7861 93.681 71.3941 91.8787C71.3381 91.6079 71.3008 91.3278 71.3008 91.0383V26.4831C71.3008 26.0909 71.3568 25.7174 71.4594 25.3625C71.9447 23.7003 73.4752 22.4863 75.2951 22.4863H111.057C113.269 22.4863 115.051 24.2699 115.051 26.4831Z" fill="#FFEBD9"/>
<path d="M111.057 95.5115H75.3042C72.8405 95.5115 70.834 93.5037 70.834 91.0385V26.4833C70.834 24.018 72.8405 22.0103 75.3042 22.0103H111.057C113.521 22.0103 115.527 24.018 115.527 26.4833V91.0385C115.527 93.5037 113.521 95.5115 111.057 95.5115ZM75.3042 22.9534C73.3631 22.9534 71.7859 24.5316 71.7859 26.4739V91.0291C71.7859 92.9715 73.3631 94.5496 75.3042 94.5496H111.057C112.998 94.5496 114.575 92.9715 114.575 91.0291V26.4833C114.575 24.5409 112.998 22.9628 111.057 22.9628H75.3042V22.9534Z" fill="#353659"/>
<path d="M109.583 50.9398C108.201 55.665 103.134 61.1465 93.3535 64.9845V65.0219C93.3348 65.0126 93.3162 65.0126 93.3068 65.0032C93.2882 65.0126 93.2788 65.0126 93.2602 65.0219V64.9939C75.5565 58.0462 73.2514 45.561 80.3814 42.1713C80.764 41.9938 81.1746 41.8351 81.6039 41.7043C87.7634 39.9021 93.2602 48.2037 93.2602 48.2037C93.2602 48.2037 93.5868 47.7182 94.1654 47.0178C94.5014 46.6069 94.9307 46.112 95.4346 45.589C97.6371 43.3012 101.258 40.5184 105.019 41.7043C109.051 42.9743 110.833 46.6536 109.583 50.9398Z" fill="#FF6A51"/>
<path d="M117.384 38.9027C117.384 38.9027 113.231 40.1073 113.903 44.4683C114.575 48.8292 120.827 46.8962 121.845 45.15C122.862 43.4131 120.295 37.5767 117.384 38.9027Z" fill="#FBC7B1"/>
<path d="M118.159 40.3971C117.468 40.4251 115.564 40.9107 115.564 41.3776C115.564 41.8445 117.674 43.5721 117.944 44.9261C118.215 46.2802 120.445 43.7682 120.604 43.2265C120.865 42.3114 119.979 40.3224 118.159 40.3971Z" fill="#FFCFBC"/>
<path d="M119.418 49.0815C119.418 49.0815 112.773 50.6877 113.903 55.3195C114.957 59.6057 121.919 56.4774 123.338 55.0393C124.822 53.5265 123.599 48.101 119.418 49.0815Z" fill="#FBC7B1"/>
<path d="M119.045 50.9023C118.354 50.9304 115.573 51.7615 115.573 52.2284C115.573 52.6953 117.682 54.4229 117.953 55.7769C118.233 57.1309 120.949 54.3668 121.098 53.8252C121.35 52.9101 120.855 50.8276 119.045 50.9023Z" fill="#FFCFBC"/>
<path d="M118.429 57.1874C118.429 57.1874 112.802 58.5508 113.763 62.4635C114.649 66.0867 120.548 63.444 121.742 62.2207C123.002 60.9414 121.966 56.3563 118.429 57.1874Z" fill="#FBC7B1"/>
<path d="M118.112 58.7278C117.524 58.7559 115.172 59.4562 115.172 59.8484C115.172 60.2406 116.954 61.7067 117.188 62.846C117.421 63.9946 119.717 61.6507 119.847 61.1931C120.062 60.4274 119.651 58.6625 118.112 58.7278Z" fill="#FFCFBC"/>
<path d="M95.3125 150H47.7637C48.0996 143.818 49.5648 118.894 50.8714 112.88C52.3459 106.101 59.2613 106.185 59.2613 106.185L61.3331 96.0435C61.3331 96.0435 72.2707 101.114 87.9959 97.108L88.6492 106.717C88.6492 106.717 92.3821 104.868 96.0871 108.155C99.7828 111.442 95.3125 150 95.3125 150Z" fill="#FFBF61"/>
<path d="M59.2617 105.653C59.2617 105.653 63.3213 105.195 65.0012 107.231C66.681 109.276 74.5203 105.541 78.5612 107.716C82.6022 109.892 88.6403 106.194 88.6403 106.194L88.5283 104.607C88.5283 104.607 83.5074 107.035 81.193 106.222C78.8785 105.41 69.6674 107.277 68.0529 106.502C66.4384 105.727 59.607 103.962 59.607 103.962L59.2617 105.653Z" fill="#FFA051"/>
<path d="M71.0108 107.408C68.687 107.277 66.5125 108.323 64.786 109.827C62.8169 111.545 61.4917 113.823 60.2784 116.111C59.5318 117.512 58.8132 118.922 57.9827 120.276C57.9453 120.341 58.048 120.397 58.0853 120.332C59.8398 117.475 61.081 114.281 63.1995 111.648C65.094 109.294 67.8751 107.352 71.0108 107.52C71.0854 107.529 71.0854 107.408 71.0108 107.408Z" fill="white"/>
<path d="M78.542 107.614C80.7165 109.5 81.5937 112.339 82.359 115.019C82.3777 115.075 82.4523 115.075 82.471 115.019C82.7136 114.347 83.0309 113.712 83.4229 113.105C83.4602 113.039 83.3669 112.983 83.3202 113.049C82.9283 113.656 82.611 114.3 82.359 114.991C82.3963 114.991 82.4337 114.991 82.471 114.991C81.7057 112.292 80.8098 109.435 78.6167 107.53C78.57 107.483 78.486 107.558 78.542 107.614Z" fill="white"/>
<path d="M88.6031 106.101C87.9965 106.512 87.7632 107.24 87.6045 107.931C87.3899 108.846 87.3525 109.78 87.4738 110.714C87.4832 110.788 87.6045 110.788 87.5858 110.714C87.4832 109.911 87.4925 109.098 87.6418 108.295C87.7818 107.548 87.9965 106.652 88.6591 106.213C88.7244 106.157 88.6684 106.054 88.6031 106.101Z" fill="white"/>
<path d="M63.9555 117.699C64.9914 115.262 66.0646 112.787 67.9124 110.835C67.8751 110.826 67.8471 110.807 67.8098 110.798C67.9311 111.956 68.2017 113.086 68.631 114.178C68.659 114.244 68.771 114.216 68.743 114.15C68.3231 113.077 68.0431 111.956 67.9311 110.807C67.9218 110.761 67.8658 110.723 67.8284 110.77C65.9806 112.731 64.8981 115.215 63.8528 117.662C63.8248 117.708 63.9181 117.764 63.9555 117.699Z" fill="white"/>
<path d="M61.4828 108.501C62.332 108.464 63.1719 108.492 64.0119 108.604C64.0025 108.566 63.9932 108.529 63.9838 108.492C63.3212 108.884 62.6586 109.276 61.996 109.668C61.9307 109.706 61.9867 109.808 62.052 109.771C62.7146 109.379 63.3772 108.987 64.0398 108.594C64.0958 108.566 64.0678 108.492 64.0119 108.482C63.1719 108.37 62.332 108.333 61.4828 108.38C61.4081 108.389 61.4081 108.501 61.4828 108.501Z" fill="white"/>
<path d="M78.9249 110.396C78.7849 109.836 78.5236 109.351 78.1317 108.93C78.0943 108.893 78.029 108.921 78.029 108.968C78.0663 110.509 77.7677 112.012 77.1331 113.413C77.1051 113.478 77.1984 113.543 77.2357 113.469C77.8797 112.049 78.1877 110.527 78.141 108.968C78.1037 108.977 78.0757 108.996 78.0383 109.005C78.421 109.416 78.6729 109.883 78.8036 110.425C78.8223 110.499 78.9436 110.471 78.9249 110.396Z" fill="white"/>
<path d="M89.1349 108.734C89.4989 110.798 90.2641 112.768 91.412 114.524C91.4493 114.589 91.552 114.524 91.5147 114.468C90.3761 112.712 89.6109 110.76 89.2562 108.706C89.2282 108.631 89.1162 108.659 89.1349 108.734Z" fill="white"/>
<path opacity="0.8" d="M106.959 46.6161C106.679 45.234 104.981 41.8443 102.284 43.4971C99.5866 45.1593 107.538 49.5016 106.959 46.6161Z" fill="white"/>
<path d="M135.779 51.491L136.498 48.7549L129.713 49.9035L135.947 54.8247L138.541 52.8824L135.779 51.491Z" fill="#FFC290"/>
<path d="M138.308 50.7811L129.713 49.9033L145.989 57.4673L138.308 50.7811Z" fill="#FBE9DD"/>
<path d="M129.713 49.9034L136.498 48.7548L138.952 44.9541L129.713 49.9034Z" fill="#FBE9DD"/>
<path d="M139.045 49.4084C143.898 49.5018 148.154 53.4892 149.031 58.1864C149.964 63.2103 147.202 68.4678 142.937 71.0918C140.594 72.5299 137.851 73.2396 135.107 73.2676C133.735 73.2863 132.372 73.1369 131.038 72.8287C129.731 72.5299 128.397 72.1097 127.249 71.4093C126.148 70.737 125.233 69.6911 125.205 68.337C125.177 67.0017 126.073 65.8064 127.492 65.8998C128.873 65.9838 130.039 67.0577 130.87 68.0849C131.691 69.1028 132.316 70.2887 132.708 71.54C133.492 74.0147 133.38 76.7414 132.27 79.0947C131.215 81.3265 129.377 83.1755 127.146 84.2307C126.577 84.5015 125.98 84.7163 125.373 84.875C125.298 84.8937 125.336 85.0058 125.401 84.9871C127.912 84.3241 130.114 82.7272 131.561 80.5795C133.044 78.385 133.614 75.7142 133.194 73.0995C132.792 70.5595 131.411 67.7114 129.125 66.348C128.154 65.769 126.876 65.4982 125.933 66.2733C125.159 66.9176 124.953 68.0569 125.168 69.0001C125.746 71.6241 129.199 72.5859 131.458 73.0435C134.323 73.6225 137.347 73.4917 140.109 72.5486C145.233 70.8023 149.152 65.9931 149.32 60.5023C149.47 55.4596 145.858 50.5851 140.874 49.5018C140.277 49.3711 139.661 49.3057 139.045 49.2964C138.971 49.2964 138.971 49.4084 139.045 49.4084Z" fill="#FFC290"/>
<path d="M57.0684 26.6417L57.3763 29.135L63.4518 29.9848L60.4654 25.5771L59.3175 27.4448L57.0684 26.6417Z" fill="#FFC290"/>
<path d="M63.4518 29.985L58.3656 25.652L50.5264 24.9517L63.4518 29.985Z" fill="#FBE9DD"/>
<path d="M63.4522 29.985L61.2684 22.1782L60.4658 25.5773L63.4522 29.985Z" fill="#FBE9DD"/>
<path d="M52.141 13.7737C51.4224 15.9869 51.4131 18.4055 52.3464 20.5532C53.1956 22.4956 54.7355 24.1205 56.7233 24.8955C56.7886 24.9235 56.8073 24.8208 56.7513 24.7928C53.2143 23.4107 51.3571 19.5167 51.7864 15.8561C52.0384 13.7457 52.9436 11.738 54.2595 10.0851C55.4354 8.60965 56.9939 7.33031 58.8697 6.91943C59.1404 6.8634 59.411 6.82605 59.691 6.80737C59.7003 6.77002 59.719 6.73267 59.7283 6.69531C56.1073 6.87274 53.1956 10.552 52.141 13.7737Z" fill="#FFC290"/>
<path d="M63.6015 2.08243C67.3625 -0.504258 72.3273 -0.485581 76.2376 1.74626C76.2936 1.78361 76.3496 1.69023 76.2936 1.66221C72.4673 -0.522934 67.6144 -0.625654 63.8721 1.78361C62.2016 2.85751 60.7738 4.37964 59.9338 6.19125C59.8592 6.35 59.7938 6.51809 59.7285 6.68618C59.7658 6.68618 59.8032 6.68618 59.8405 6.68618C59.8872 6.55544 59.9432 6.43405 59.9898 6.31265C60.7644 4.60375 62.071 3.14699 63.6015 2.08243Z" fill="#FFC290"/>
<path d="M63.8997 8.63792C64.497 9.50637 64.6463 10.6363 63.8344 11.4207C63.1065 12.1211 61.9959 12.2798 61.1 11.8129C59.2522 10.8417 59.1682 8.56321 59.7935 6.80762C59.7561 6.80762 59.7188 6.80762 59.6815 6.81696C59.0935 8.47917 59.1402 10.4682 60.6427 11.6448C61.2867 12.1491 62.1079 12.3359 62.8918 12.0931C63.6664 11.8596 64.357 11.2433 64.4877 10.4122C64.7863 8.51652 62.6865 7.11578 61.0813 6.79828C60.652 6.71424 60.2321 6.68623 59.8215 6.69556C59.8121 6.73292 59.7935 6.77027 59.7841 6.80762C61.352 6.72358 62.9945 7.32123 63.8997 8.63792Z" fill="#FFC290"/>
<path d="M59.6816 6.79816C59.719 6.79816 59.7563 6.79815 59.7936 6.78882C59.803 6.75146 59.8216 6.71411 59.831 6.67676C59.7936 6.67676 59.7563 6.67676 59.719 6.67676C59.7096 6.72345 59.691 6.7608 59.6816 6.79816Z" fill="#FFC290"/>
<path d="M82.1608 14.2622C82.518 11.8335 80.84 9.57499 78.4129 9.21755C75.9858 8.86012 73.7286 10.5392 73.3714 12.9678C73.0142 15.3964 74.6922 17.655 77.1193 18.0124C79.5465 18.3699 81.8036 16.6908 82.1608 14.2622Z" fill="#FFBF61"/>
<path d="M76.5079 12.1772C76.5919 12.8122 76.2746 13.7273 75.3133 14.6892C75.3133 14.6892 75.3133 14.6892 75.304 14.6892C75.304 14.6892 75.304 14.6892 75.2947 14.6985C72.8309 14.8012 71.907 13.4378 72.5789 12.6628C72.6163 12.6254 72.6536 12.5787 72.7002 12.5414C73.3349 12.0091 74.4174 12.7001 74.4174 12.7001C74.4174 12.7001 74.4268 12.6254 74.4641 12.5134C74.4827 12.448 74.5107 12.364 74.5387 12.2799C74.6787 11.897 74.968 11.3741 75.472 11.3181C76.0319 11.262 76.4332 11.5982 76.5079 12.1772Z" fill="#F55A4B"/>
<path d="M81.4171 10.0105C81.5011 10.6455 81.1838 11.5607 80.2225 12.5225C80.2225 12.5225 80.2225 12.5225 80.2132 12.5225C80.2132 12.5225 80.2132 12.5225 80.2039 12.5319C77.7401 12.6346 76.8162 11.2712 77.4881 10.4961C77.5254 10.4588 77.5628 10.4121 77.6094 10.3747C78.244 9.84246 79.3266 10.5335 79.3266 10.5335C79.3266 10.5335 79.3359 10.4588 79.3733 10.3467C79.3919 10.2814 79.4199 10.1973 79.4479 10.1133C79.5879 9.7304 79.8772 9.20746 80.3812 9.15143C80.9318 9.0954 81.3424 9.44092 81.4171 10.0105Z" fill="#F55A4B"/>
<path d="M75.9941 14.9601C75.9941 14.9601 78.3179 14.4745 79.9418 13.2231C79.9418 13.2231 80.3804 15.0348 78.7099 15.7725C77.03 16.5102 75.9941 14.9601 75.9941 14.9601Z" fill="white"/>
<path d="M150.778 69.6382C152.49 67.4747 152.125 64.3325 149.963 62.6198C147.801 60.9072 144.66 61.2727 142.949 63.4362C141.237 65.5997 141.602 68.7419 143.765 70.4545C145.927 72.1671 149.067 71.8016 150.778 69.6382Z" fill="#FFBF61"/>
<path d="M146.969 64.3966C146.539 64.9756 145.569 65.4612 144.038 65.4892V65.4985C144.038 65.4985 144.038 65.4985 144.029 65.4892H144.019V65.4798C141.957 63.6309 142.274 61.8099 143.422 61.7072C143.488 61.6979 143.544 61.6979 143.609 61.7072C144.542 61.7726 144.869 63.1826 144.869 63.1826C144.869 63.1826 144.934 63.136 145.055 63.0706C145.121 63.0332 145.205 62.9865 145.298 62.9398C145.718 62.7437 146.353 62.5476 146.801 62.8932C147.305 63.2854 147.361 63.8737 146.969 64.3966Z" fill="#F55A4B"/>
<path d="M152.615 66.4977C152.186 67.0767 151.215 67.5622 149.685 67.5903V67.5996C149.685 67.5996 149.685 67.5996 149.675 67.5903H149.666V67.5809C147.603 65.732 147.921 63.911 149.069 63.8083C149.134 63.7989 149.19 63.7989 149.255 63.8083C150.189 63.8736 150.515 65.2837 150.515 65.2837C150.515 65.2837 150.581 65.237 150.702 65.1717C150.767 65.1343 150.851 65.0876 150.945 65.0409C151.364 64.8448 151.999 64.6487 152.447 64.9942C152.951 65.3864 153.007 65.9747 152.615 66.4977Z" fill="#F55A4B"/>
<path d="M144.383 66.2456C144.383 66.2456 146.642 67.6744 148.928 67.9358C148.928 67.9358 147.855 69.7381 145.933 69.0284C144.001 68.3 144.383 66.2456 144.383 66.2456Z" fill="white"/>
<path d="M152.063 147.572C152.073 147.983 152.082 148.384 152.082 148.749C152.082 148.973 151.923 149.159 151.709 149.206C151.158 149.318 150.589 149.309 150.019 149.3C148.19 149.272 146.361 149.234 144.532 149.206C144.345 149.206 144.131 149.187 144.028 149.001C143.963 148.879 143.972 148.739 144.037 148.618C144.168 148.375 144.42 148.272 144.663 148.179C145.848 147.74 147.136 147.292 148.032 146.442C148.06 146.414 148.088 146.386 148.116 146.358C148.302 146.171 148.47 145.956 148.62 145.723C148.732 145.546 148.825 145.349 148.881 145.144C148.9 145.069 148.918 145.004 148.918 144.929C148.918 144.901 148.928 144.873 148.928 144.845L149.571 144.817L149.758 144.808L152.25 144.696C152.082 145.331 152.045 146.069 152.045 146.816C152.054 147.058 152.054 147.32 152.063 147.572Z" fill="#2A2C4B"/>
<path d="M155.115 123.517C155.115 123.517 152.595 129.185 152.53 132.014C152.465 134.9 152.959 144.696 152.959 144.696C152.959 144.696 152.511 145.293 150.682 145.452C149.096 145.592 148.452 145.265 148.452 145.265C148.452 145.265 146.623 134.947 146.333 131.118C146.025 126.934 147.948 114.571 147.948 114.571L155.89 113.627L155.115 123.517Z" fill="#7670E3"/>
<path d="M169.496 145.545C169.664 145.919 169.823 146.283 169.963 146.628C170.047 146.834 169.972 147.067 169.786 147.189C169.319 147.497 168.787 147.712 168.264 147.917C166.557 148.58 164.858 149.253 163.15 149.916C162.973 149.981 162.777 150.056 162.609 149.916C162.506 149.831 162.46 149.691 162.469 149.551C162.497 149.281 162.693 149.084 162.889 148.907C163.822 148.048 164.839 147.151 165.343 146.021C165.362 145.984 165.371 145.947 165.39 145.909C165.493 145.657 165.567 145.405 165.614 145.134C165.651 144.92 165.661 144.705 165.633 144.499C165.623 144.425 165.614 144.359 165.586 144.285C165.577 144.257 165.567 144.229 165.558 144.201L166.146 143.93L166.314 143.855L168.582 142.8C168.666 143.453 168.908 144.154 169.198 144.836C169.291 145.088 169.394 145.321 169.496 145.545Z" fill="#2A2C4B"/>
<path d="M161.564 113.618C161.564 113.618 162.992 128.345 164.009 130.987C165.045 133.677 169.636 142.987 169.636 142.987C169.636 142.987 169.254 143.939 167.751 144.696C166.473 145.34 165.465 145.107 165.465 145.107C165.465 145.107 159.651 135.946 157.934 132.509C156.058 128.755 153.137 116.597 153.137 116.597L156.058 111.442L161.564 113.618Z" fill="#7670E3"/>
<path d="M142.041 99.0409C142.041 99.0409 145.326 91.9252 148.051 90.9353C149.61 90.3657 153.716 93.4287 151.691 96.8838C148.49 102.337 142.041 99.0409 142.041 99.0409Z" fill="#FF6A51"/>
<path d="M162.133 113.786C162.133 113.786 162.264 114.57 155.208 115.009C150.187 115.317 147.929 114.505 147.929 114.505C147.528 112.619 147.145 109.229 146.38 104.588C145.857 101.422 145.754 97.6308 145.661 93.3912C145.661 93.2325 147.322 93.2605 147.36 93.1297C147.752 91.6356 148.778 91.4956 151.886 92.0932C156.711 93.027 162.59 95.3149 162.59 95.3149C162.59 95.3149 161.62 101.105 161.545 107.343C161.517 109.388 161.9 111.834 162.133 113.786Z" fill="#FF6A51"/>
<path d="M149.086 105.905C149.31 107.557 150.841 108.715 152.492 108.491C152.492 108.491 154.76 108.996 157.513 107.94C166.239 104.588 170.747 102.067 160.677 91.6731C157.877 88.7782 150.206 89.4226 147.36 91.3369C145.978 92.2707 151.811 94.3158 153.015 95.4644L159.296 101.45L151.671 102.496C150.019 102.72 148.862 104.252 149.086 105.905Z" fill="#FF6A51"/>
<path d="M149.619 82.4094L148.517 81.4756C148.517 81.4756 147.743 84.165 148.2 84.8934C148.648 85.6218 149.619 82.4094 149.619 82.4094Z" fill="#262F36"/>
<path d="M152.708 88.1435C153.547 88.6198 154.481 87.6206 155.787 84.2495C156.945 81.2612 154.051 80.6636 154.051 80.6636C153.669 80.757 151.597 87.5178 152.708 88.1435Z" fill="#262F36"/>
<path d="M151.429 91.9065C153.492 91.9345 154.052 90.8887 153.903 90.2537C153.296 87.7417 153.109 86.4063 153.109 86.397L152.344 86.8265L152.157 86.9106L150.562 87.667C150.562 87.667 150.562 87.779 150.571 87.9565C150.571 88.0872 150.571 88.2646 150.571 88.4514C150.571 88.6195 150.562 88.8062 150.562 88.993C150.562 89.0117 150.562 89.021 150.562 89.0397C150.552 89.2825 150.543 89.5253 150.515 89.7401C150.496 89.9735 150.459 90.1883 150.422 90.3377C150.412 90.3657 150.403 90.3844 150.403 90.4124C150.244 90.842 149.451 91.8785 151.429 91.9065Z" fill="#E29171"/>
<path d="M150.402 90.3567C151.074 90.2072 152.381 89.152 152.465 87.7046C152.465 87.6859 152.241 87.8073 152.241 87.7886C152.241 87.7886 152.166 87.8447 152.054 87.9381C151.709 88.2089 150.972 88.7598 150.542 89.0119C150.542 89.0306 150.542 89.04 150.542 89.0586C150.533 89.3014 150.524 89.5442 150.496 89.759C150.477 89.9925 150.449 90.1979 150.402 90.3567Z" fill="#9B5846"/>
<path d="M149.693 89.2357C152.763 89.6746 153.332 86.0233 153.332 86.0233C154.378 80.2897 149.263 80.6725 148.386 83.502C147.425 86.6116 146.678 88.8061 149.693 89.2357Z" fill="#E29171"/>
<path d="M151.317 89.1427C152.026 88.7132 152.511 88.0782 152.922 87.3685C152.941 87.3405 152.894 87.3218 152.875 87.3498C152.465 88.0502 151.989 88.6758 151.289 89.1054C151.27 89.1241 151.289 89.1614 151.317 89.1427Z" fill="#9B5846"/>
<path d="M149.376 86.3877C149.339 86.4718 149.264 86.6025 149.32 86.6959C149.367 86.78 149.507 86.78 149.591 86.8173C149.628 86.836 149.656 86.7706 149.619 86.7519C149.563 86.7333 149.479 86.7239 149.432 86.6959C149.32 86.6212 149.423 86.4625 149.46 86.3784C149.525 86.2103 149.609 86.0516 149.684 85.8835C149.787 85.6407 149.889 85.3792 149.815 85.1177C149.805 85.0711 149.74 85.0991 149.749 85.1458C149.861 85.5566 149.516 86.0142 149.376 86.3877Z" fill="#9B5846"/>
<path d="M150.907 85.1923C151.252 85.3044 151.541 85.3698 151.597 85.1923C151.653 85.0242 151.439 84.7254 151.103 84.6134C150.758 84.5013 150.412 84.604 150.356 84.7721C150.3 84.9402 150.562 85.0709 150.907 85.1923Z" fill="#9B5846"/>
<path d="M148.993 84.8191C149.376 84.8751 149.693 84.8751 149.721 84.6977C149.749 84.5202 149.46 84.2681 149.077 84.2214C148.695 84.1654 148.35 84.3335 148.331 84.5109C148.303 84.6883 148.611 84.763 148.993 84.8191Z" fill="#9B5846"/>
<path d="M150.552 86.1914C150.664 86.2101 150.776 86.1074 150.804 85.9487C150.832 85.7899 150.776 85.6498 150.664 85.6218C150.552 85.6031 150.44 85.7059 150.412 85.8646C150.384 86.0234 150.449 86.1634 150.552 86.1914Z" fill="#262F36"/>
<path d="M149.106 85.7808C149.218 85.7995 149.33 85.6968 149.358 85.538C149.386 85.3793 149.33 85.2392 149.218 85.2112C149.106 85.1925 148.994 85.2952 148.966 85.454C148.928 85.6127 148.994 85.7621 149.106 85.7808Z" fill="#262F36"/>
<path d="M148.517 82.6431C148.648 82.7832 148.853 82.7925 149.04 82.8018C149.991 82.8485 150.943 82.9419 151.877 83.0913C152.073 83.1193 152.306 83.1754 152.39 83.3715C152.437 83.4649 152.437 83.5676 152.446 83.6703C152.465 84.352 152.306 85.3325 152.577 85.3979L153.071 85.9862C153.332 86.1076 153.668 85.8554 153.762 85.5473C153.855 85.2391 153.78 84.9123 153.696 84.6228C153.668 84.5388 153.64 84.4547 153.64 84.3707C153.64 84.2213 153.706 84.0718 153.771 83.9224C154.088 83.2127 154.34 82.4657 154.527 81.7186C154.583 81.4851 154.63 81.2237 154.536 81.0276C154.48 80.9062 154.378 80.8315 154.275 80.7568C153.967 80.542 153.622 80.4019 153.248 80.3552C153.006 80.3272 152.754 80.3272 152.549 80.1965C152.427 80.1218 152.343 80.0097 152.213 79.9443C151.933 79.8043 151.587 79.991 151.279 80.0938C150.999 80.1871 150.691 80.2152 150.449 80.0657C150.337 80.0004 150.253 79.8976 150.141 79.8416C149.851 79.6829 149.459 79.8043 149.198 80.0471C148.937 80.2992 148.778 80.6447 148.657 80.9996C148.554 81.3077 148.47 81.6159 148.414 81.9334C148.368 82.1762 148.349 82.475 148.517 82.6431Z" fill="#262F36"/>
<path d="M153.352 86.7891C153.837 86.5183 154.052 85.9954 153.837 85.6125C153.622 85.2296 153.063 85.1362 152.577 85.4071C152.092 85.6779 151.877 86.2008 152.092 86.5837C152.307 86.9665 152.867 87.0599 153.352 86.7891Z" fill="#E29171"/>
<path d="M152.437 86.901C152.4 86.8916 152.391 86.957 152.428 86.9663C152.773 87.0224 153.165 86.9477 153.473 86.7796C153.744 86.6302 153.875 86.35 153.949 86.0512C153.959 86.0138 153.893 86.0045 153.884 86.0418C153.809 86.3593 153.66 86.6302 153.352 86.7609C153.063 86.8823 152.745 86.9477 152.437 86.901Z" fill="#9B5846"/>
<path d="M152.772 85.8743C152.707 85.921 152.604 86.005 152.604 86.0984C152.604 86.1357 152.623 86.1544 152.632 86.1824C152.688 86.2758 152.698 86.3692 152.642 86.4719C152.623 86.5093 152.688 86.5373 152.707 86.4999C152.744 86.4252 152.763 86.3318 152.735 86.2478C152.726 86.2198 152.707 86.1918 152.698 86.1731C152.66 86.061 152.726 85.9957 152.8 85.9396C152.847 85.9023 152.81 85.8463 152.772 85.8743Z" fill="#9B5846"/>
<path d="M152.484 85.5098C152.549 85.4444 152.624 85.3977 152.717 85.3697C152.745 85.3604 152.726 85.3137 152.698 85.323C152.605 85.3604 152.521 85.4071 152.446 85.4818C152.428 85.5004 152.465 85.5284 152.484 85.5098Z" fill="#9B5846"/>
<path d="M150.421 87.2186C150.384 87.3307 150.328 87.4708 150.253 87.5548C150.151 87.6762 149.992 87.7789 149.759 87.7883C149.498 87.7976 149.32 87.7136 149.18 87.6015C149.106 87.5361 149.031 87.4241 148.975 87.3307C148.956 87.2934 148.956 87.256 148.975 87.2186C148.994 87.1813 149.04 87.1626 149.087 87.1626C149.096 87.1626 149.115 87.1626 149.124 87.172C149.134 87.172 149.134 87.172 149.143 87.172C149.162 87.172 149.18 87.1813 149.199 87.1813C149.208 87.1813 149.218 87.1813 149.218 87.1813C149.283 87.1906 149.348 87.1906 149.423 87.2C149.451 87.2 149.47 87.2 149.498 87.2C149.507 87.2 149.526 87.2 149.535 87.2C149.544 87.2 149.563 87.2 149.572 87.2C149.582 87.2 149.6 87.2 149.61 87.2C149.619 87.2 149.638 87.2 149.647 87.2C149.666 87.2 149.684 87.2 149.703 87.2C149.722 87.2 149.731 87.2 149.75 87.2C149.787 87.2 149.824 87.1906 149.852 87.1906C149.862 87.1906 149.88 87.1906 149.89 87.1813C149.936 87.172 149.983 87.1626 150.039 87.1533C150.057 87.1533 150.085 87.1439 150.104 87.1439C150.123 87.1439 150.141 87.1346 150.16 87.1346C150.169 87.1346 150.179 87.1346 150.179 87.1253C150.197 87.1253 150.207 87.1159 150.225 87.1159C150.244 87.1066 150.263 87.1066 150.291 87.0973C150.328 87.0879 150.365 87.0973 150.393 87.1253C150.421 87.1533 150.431 87.1906 150.421 87.2186Z" fill="#262F36"/>
<path d="M150.403 87.1256C150.207 87.275 149.899 87.4431 149.591 87.4057C149.348 87.3684 149.134 87.2936 148.984 87.2283C149.003 87.1909 149.05 87.1723 149.096 87.1723C149.106 87.1723 149.124 87.1723 149.134 87.1816C149.143 87.1816 149.143 87.1816 149.152 87.1816C149.171 87.1816 149.19 87.1909 149.208 87.1909C149.218 87.1909 149.227 87.1909 149.227 87.1909C149.292 87.2003 149.358 87.2003 149.432 87.2096C149.46 87.2096 149.479 87.2096 149.507 87.2096C149.516 87.2096 149.535 87.2096 149.544 87.2096C149.554 87.2096 149.572 87.2096 149.582 87.2096C149.591 87.2096 149.61 87.2096 149.619 87.2096C149.628 87.2096 149.647 87.2096 149.656 87.2096C149.675 87.2096 149.694 87.2096 149.712 87.2096C149.731 87.2096 149.74 87.2096 149.759 87.2096C149.796 87.2096 149.834 87.2003 149.862 87.2003C149.871 87.2003 149.89 87.2003 149.899 87.1909C149.946 87.1816 149.992 87.1723 150.048 87.1629C150.067 87.1629 150.095 87.1536 150.114 87.1536C150.132 87.1536 150.151 87.1442 150.17 87.1442C150.179 87.1442 150.188 87.1442 150.188 87.1349C150.207 87.1349 150.216 87.1256 150.235 87.1256C150.254 87.1162 150.272 87.1162 150.3 87.1069C150.338 87.0882 150.375 87.0975 150.403 87.1256Z" fill="white"/>
<path d="M150.253 87.5646C150.15 87.686 149.992 87.7887 149.758 87.798C149.497 87.8073 149.32 87.7233 149.18 87.6112C149.292 87.5552 149.506 87.4805 149.749 87.5085C149.758 87.5085 150.104 87.3591 150.253 87.5646Z" fill="#E55A4D"/>
<path d="M156.636 107.754C156.795 107.81 156.935 107.828 157.056 107.8C157.084 107.791 157.122 107.782 157.15 107.763C157.327 107.67 157.402 107.446 157.402 107.147C157.392 106.596 157.094 105.774 156.571 104.934C156.394 104.653 156.207 104.401 156.02 104.177C155.33 103.346 154.592 102.87 154.201 103.085C153.706 103.355 153.949 104.625 154.77 105.914C155.358 106.857 156.095 107.548 156.636 107.754Z" fill="#262F36"/>
<path d="M154.518 102.963C155.357 102.72 156.169 102.431 156.972 102.113C158.391 101.553 159.781 100.908 161.162 100.245C161.2 100.227 161.181 100.161 161.134 100.18C158.969 101.217 156.795 102.225 154.49 102.898C154.452 102.907 154.471 102.972 154.518 102.963Z" fill="white"/>
<path d="M160.537 100.451C160.565 100.488 160.621 100.442 160.593 100.414C160.202 99.9 159.81 99.3864 159.427 98.8728C159.399 98.8354 159.343 98.8821 159.371 98.9101C159.754 99.4237 160.146 99.9373 160.537 100.451Z" fill="white"/>
<path d="M148.2 94.6987L155.19 95.0255C155.974 95.0628 156.366 95.978 155.862 96.5756L151.354 101.926C151.158 102.16 151.084 102.487 151.168 102.786L153.016 109.537C153.221 110.294 152.474 110.957 151.756 110.658L145.279 108.024C144.99 107.903 144.663 107.94 144.411 108.108L138.569 111.956C137.916 112.385 137.057 111.881 137.113 111.097L137.617 104.112C137.636 103.803 137.505 103.505 137.262 103.309L131.803 98.9382C131.196 98.4526 131.411 97.4721 132.167 97.2854L138.961 95.6045C139.259 95.5298 139.511 95.315 139.614 95.0255L142.087 88.4794C142.367 87.751 143.356 87.6483 143.767 88.3113L147.463 94.2598C147.603 94.5212 147.883 94.6893 148.2 94.6987Z" fill="#FFB041"/>
<path d="M155.993 105.073C156.123 104.821 155.274 103.794 154.686 103.486C154.098 103.178 152.913 102.533 152.801 102.655C152.204 103.299 153.622 104.102 154.21 104.41C154.798 104.718 155.862 105.335 155.993 105.073Z" fill="#E29171"/>
<path d="M151.411 106.175C152.596 105.988 152.913 105.708 152.876 105.428C152.829 105.148 152.446 104.97 151.261 105.148C150.076 105.335 148.265 105.652 148.331 106.119C148.387 106.521 150.216 106.352 151.411 106.175Z" fill="#E29171"/>
<path d="M152.11 107.165C153.408 106.969 153.753 106.68 153.706 106.39C153.659 106.11 153.249 105.932 151.952 106.138C150.654 106.334 148.685 106.689 148.751 107.156C148.816 107.557 150.813 107.361 152.11 107.165Z" fill="#E29171"/>
<path d="M153.006 107.893C154.201 107.632 154.518 107.361 154.462 107.118C154.406 106.876 154.014 106.764 152.82 107.025C151.625 107.286 149.796 107.725 149.889 108.118C149.955 108.463 151.812 108.155 153.006 107.893Z" fill="#E29171"/>
<path d="M152.978 105.083C154.294 105.008 154.667 104.756 154.649 104.466C154.63 104.177 154.229 103.971 152.922 104.046C151.606 104.121 149.609 104.289 149.637 104.756C149.656 105.167 151.671 105.157 152.978 105.083Z" fill="#E29171"/>
<path d="M152.801 108.22L155.041 108.024C155.984 107.894 156.637 106.969 156.506 105.961L156.45 105.55C156.348 104.775 155.536 103.869 154.78 103.551L151.672 104.775C151.289 104.831 151.019 105.204 151.075 105.624L151.924 107.343C151.98 107.744 152.419 108.276 152.801 108.22Z" fill="#E29171"/>
<path d="M151.289 106.25C151.485 106.24 151.681 106.231 151.886 106.222C151.933 106.222 151.933 106.147 151.877 106.147C151.681 106.156 151.485 106.166 151.28 106.175C151.233 106.175 151.242 106.25 151.289 106.25Z" fill="#9B5846"/>
<path d="M151.672 107.305C151.793 107.286 151.905 107.268 152.026 107.249C152.073 107.249 152.073 107.174 152.017 107.174C151.896 107.184 151.775 107.202 151.663 107.23C151.616 107.24 151.625 107.305 151.672 107.305Z" fill="#9B5846"/>
<path d="M151.14 105.166C151.243 105.176 151.345 105.176 151.457 105.166C151.504 105.166 151.504 105.092 151.448 105.092C151.345 105.101 151.252 105.101 151.149 105.092C151.103 105.092 151.084 105.166 151.14 105.166Z" fill="#9B5846"/>
<path d="M155.013 107.987C155.695 107.781 154.407 107.426 154.36 107.268C154.313 107.109 153.931 107.52 153.24 107.725C152.549 107.931 151.514 108.276 151.598 108.547C151.663 108.771 154.323 108.192 155.013 107.987Z" fill="#E29171"/>
<path d="M152.213 108.127C152.307 108.108 152.409 108.108 152.503 108.136C152.549 108.145 152.559 108.08 152.521 108.061C152.419 108.033 152.316 108.033 152.213 108.052C152.157 108.061 152.167 108.136 152.213 108.127Z" fill="#9B5846"/>
<path d="M157.159 107.791C158.064 107.52 158.951 107.221 159.837 106.894C160.416 106.68 160.985 106.446 161.583 106.278C161.629 106.269 161.611 106.194 161.564 106.203C160.976 106.372 160.397 106.605 159.819 106.82C158.932 107.147 158.046 107.455 157.14 107.716C157.094 107.735 157.112 107.81 157.159 107.791Z" fill="white"/>
<path d="M153.211 118.941C153.575 119.744 153.967 120.538 154.275 121.359C154.574 122.163 154.788 122.994 154.984 123.825C154.994 123.881 155.078 123.853 155.059 123.806C154.863 122.947 154.639 122.088 154.322 121.266C154.014 120.463 153.641 119.688 153.277 118.904C153.258 118.848 153.183 118.894 153.211 118.941Z" fill="white"/>
<path d="M157.262 116.55C157.99 117.568 159.129 118.203 160.379 118.259C160.435 118.259 160.435 118.175 160.379 118.175C159.157 118.119 158.037 117.503 157.327 116.503C157.309 116.466 157.234 116.513 157.262 116.55Z" fill="white"/>
<path d="M160.248 118.259C160.584 120.071 160.92 121.882 161.256 123.685C161.582 125.421 161.881 127.168 162.282 128.886C163.048 132.173 164.373 135.283 165.913 138.271C166.799 139.989 167.751 141.679 168.703 143.36C168.731 143.407 168.796 143.36 168.778 143.323C167.098 140.353 165.418 137.384 164.112 134.227C163.468 132.677 162.917 131.09 162.516 129.456C162.086 127.728 161.778 125.963 161.452 124.207C161.078 122.218 160.705 120.229 160.341 118.231C160.313 118.184 160.239 118.212 160.248 118.259Z" fill="white"/>
<path d="M165.297 144.733C166.183 144.546 167.051 144.285 167.882 143.93C168.517 143.659 169.123 143.323 169.506 142.725C169.534 142.679 169.459 142.641 169.431 142.688C169.002 143.351 168.283 143.687 167.574 143.967C166.827 144.257 166.062 144.481 165.278 144.649C165.222 144.668 165.25 144.752 165.297 144.733Z" fill="white"/>
<path d="M135.303 96.884C134.976 96.193 135.172 96.0343 135.452 95.9035C135.732 95.7728 135.975 95.7074 136.302 96.4078C136.628 97.0988 136.927 97.9486 136.516 98.1447C136.134 98.3315 135.639 97.5844 135.303 96.884Z" fill="#E29171"/>
<path d="M136.18 96.3705C135.798 95.5581 135.994 95.3994 136.264 95.2686C136.544 95.1379 136.787 95.0819 137.179 95.9036C137.562 96.716 137.926 97.7059 137.515 97.902C137.132 98.0794 136.572 97.1923 136.18 96.3705Z" fill="#E29171"/>
<path d="M136.908 95.9785C136.525 95.166 136.721 95.0073 136.992 94.8765C137.272 94.7458 137.515 94.6898 137.907 95.5115C138.289 96.324 138.653 97.3138 138.243 97.5099C137.86 97.678 137.3 96.7909 136.908 95.9785Z" fill="#E29171"/>
<path d="M137.757 95.6607C137.393 94.895 137.589 94.7363 137.869 94.6055C138.149 94.4748 138.392 94.4188 138.756 95.1845C139.12 95.9502 139.456 96.8747 139.045 97.0708C138.653 97.2576 138.121 96.4265 137.757 95.6607Z" fill="#E29171"/>
<path d="M135.937 95.8942C136.189 96.2864 136.413 96.6879 136.628 97.0894C136.656 97.1455 136.74 97.0988 136.712 97.0428C136.497 96.6319 136.264 96.2303 136.021 95.8475C135.984 95.8008 135.9 95.8475 135.937 95.8942Z" fill="#9B5846"/>
<path d="M136.619 95.2312C137.039 95.8568 137.375 96.5292 137.636 97.2389C137.655 97.2949 137.748 97.2669 137.729 97.2109C137.468 96.4918 137.123 95.8195 136.703 95.1845C136.665 95.1284 136.581 95.1751 136.619 95.2312Z" fill="#9B5846"/>
<path d="M137.533 94.9602C137.906 95.5485 138.177 96.1835 138.345 96.8652C138.364 96.9212 138.448 96.9025 138.438 96.8371C138.27 96.1461 137.99 95.5111 137.617 94.9135C137.589 94.8574 137.505 94.9041 137.533 94.9602Z" fill="#9B5846"/>
<path d="M144.318 91.5892C144.897 91.9814 146.381 94.6802 147.286 95.2031C148.527 95.9315 153.137 95.6327 153.408 96.2117C153.884 97.2482 148.051 98.3501 145.942 97.2202C143.945 96.1556 142.61 90.4406 144.318 91.5892Z" fill="#FFC06E"/>
<path d="M56.0322 73.0997C52.5139 77.0124 45.1132 79.9447 33.9143 79.1136L33.8956 79.1509C33.8863 79.1416 33.8676 79.1229 33.8583 79.1136C33.8396 79.1136 33.821 79.1136 33.8023 79.1136L33.821 79.0762C19.9903 64.1911 23.5459 51.1175 31.9638 51.1456C32.4118 51.1456 32.8784 51.1829 33.3544 51.2669C40.1204 52.3782 41.5762 62.9211 41.5762 62.9211C41.5762 62.9211 42.1082 62.6036 42.9948 62.1927C43.5174 61.9499 44.152 61.6697 44.8706 61.4083C48.053 60.2223 52.8219 59.2231 55.8922 62.1086C59.2053 65.1902 59.2239 69.5512 56.0322 73.0997Z" fill="#FF6A51"/>
<path d="M25.5897 83.8853C25.0484 84.0628 24.4978 84.2589 23.9285 84.2215C21.4834 84.0815 19.6542 86.2292 20.0648 87.7234C20.1582 88.0502 19.9528 88.4051 19.7009 88.6572C19.5049 88.844 19.2529 88.9747 19.0476 89.1614C18.5343 89.619 18.4223 90.3848 18.7863 90.9357C18.9356 91.1692 19.1783 91.4026 19.1129 91.6641C19.0849 91.7948 18.9729 91.9069 18.8796 92.019C18.441 92.5512 18.2917 93.3356 18.7023 93.8773C18.9636 94.2134 19.3836 94.4095 19.8035 94.5589C21.334 95.1006 23.0512 95.1566 24.6844 94.9045C26.3176 94.6523 27.8761 94.1014 29.3786 93.457C30.3959 93.0181 31.4038 92.5326 32.2624 91.8789C32.6357 91.5987 32.9903 91.2719 33.1863 90.8797C33.3822 90.4781 33.3822 89.9832 33.0929 89.6377C32.8223 89.3202 32.3463 89.1615 32.1504 88.8066C31.9544 88.4704 32.0757 88.0502 31.9917 87.6767C31.9264 87.3405 31.6931 87.0417 31.3664 86.8642C30.9371 86.6215 30.3305 86.5841 30.0692 86.1919C29.7986 85.7997 30.0132 85.2301 29.6773 84.8845C29.1733 84.3803 28.0627 84.9219 27.5215 84.4456C27.3815 84.3242 27.3162 84.1562 27.1948 84.0254C26.8309 83.6519 26.1309 83.7079 25.5897 83.8853Z" fill="#262F36"/>
<path d="M19.1508 120.407C19.1508 120.407 15.3618 120.883 15.1845 121.789C15.0071 122.714 15.6791 124.544 19.888 124.367C24.4516 124.171 28.4086 124.899 33.5321 126.935L30.555 121.192L19.1508 120.407Z" fill="#FFA051"/>
<path d="M32.5522 123.517C32.2256 126.328 31.703 129.858 30.891 133.201C29.1552 140.354 29.4818 148.104 29.4818 148.104H25.9262C25.9262 148.104 24.1437 136.236 25.2449 131.576C25.8795 128.877 25.6555 125.581 26.1035 122.013C26.4115 119.408 32.9162 120.314 32.5522 123.517Z" fill="#FBC7B1"/>
<path d="M27.4847 119.034C27.4847 119.034 24.405 131.454 21.0733 133.667L17.667 128.419C17.667 128.419 18.9642 119.688 19.5055 118.68C20.0468 117.69 27.4661 117.148 27.4847 119.034Z" fill="#FBC7B1"/>
<path d="M34.0175 125.244C34.0175 125.272 34.0081 125.3 34.0081 125.328C33.9335 125.973 33.7841 126.524 33.5415 126.944C33.4202 127.149 32.8416 127.514 31.9736 127.756C30.4805 128.167 28.138 128.177 25.7769 126.318C25.6462 126.216 25.5063 126.103 25.3756 125.982C24.9463 125.609 24.5263 125.17 24.1064 124.656C24.0504 124.591 23.9944 124.525 23.9384 124.46C22.3239 122.574 20.4481 121.668 18.8522 121.313C17.0417 120.911 15.5859 121.22 15.2686 121.621C15.4179 121.406 16.4911 119.875 17.3497 118.203L17.415 118.082C17.7697 117.382 18.0963 116.663 18.2923 116.009C19.3002 112.666 20.1121 111.265 20.84 110.004C20.8494 109.995 20.8494 109.986 20.8587 109.967C21.288 109.22 21.68 108.52 22.0719 107.483C22.2399 107.025 22.4079 106.512 22.5852 105.896C23.4718 102.693 30.8071 101.824 31.0871 106.484C31.1151 106.904 31.1524 107.343 31.2084 107.791C31.451 109.79 31.9457 112.124 32.4589 114.468C32.4683 114.496 32.4683 114.524 32.4776 114.552C33.3455 118.596 34.2694 122.676 34.0175 125.244Z" fill="#FFBF61"/>
<path d="M30.3221 146.507C31.2926 147.507 32.7205 148.048 34.0364 148.599C34.307 148.711 34.5963 148.833 34.727 149.113C34.7923 149.253 34.8016 149.421 34.7176 149.552C34.5963 149.757 34.3537 149.766 34.1484 149.757C32.0859 149.72 30.2661 149.972 27.9703 149.645C27.345 149.552 26.6917 149.617 26.0758 149.477C25.8331 149.421 25.6652 149.197 25.6745 148.954C25.6838 148.534 25.7212 148.086 25.7398 147.628C25.7585 147.348 25.7772 147.058 25.7865 146.769C25.8145 145.928 25.6372 144.322 25.4785 143.295L28.4462 144.602L28.6516 144.621L29.3142 142.305C29.3142 142.333 29.3795 144.742 29.3888 144.78C29.3981 144.864 29.4075 144.948 29.4261 145.023C29.4821 145.256 29.5755 145.48 29.6968 145.686C29.8461 145.956 30.0328 146.199 30.2381 146.423C30.2567 146.442 30.2847 146.479 30.3221 146.507Z" fill="#FBC7B1"/>
<path d="M34.7079 149.402C34.8666 149.365 34.9599 149.599 34.8013 149.645C33.3361 150.019 31.8335 150.047 30.331 149.972C28.7818 149.888 27.242 149.757 25.6928 149.729C25.5248 149.729 25.5061 149.468 25.6648 149.477C27.1393 149.505 28.6045 149.617 30.079 149.711C31.6375 149.785 33.1961 149.785 34.7079 149.402Z" fill="#353659"/>
<path d="M25.8049 147.058C28.2873 148.281 28.5859 149.701 28.5859 149.701L25.9169 149.589C25.2356 148.823 25.8049 147.058 25.8049 147.058Z" fill="#353659"/>
<path d="M32.646 147.955C33.122 148.113 33.5419 148.394 34.3819 148.702C35.0445 148.945 35.4458 149.505 33.8313 149.72C32.2167 149.934 30.4902 149.794 30.4902 149.794C30.4902 149.794 31.8341 147.693 32.646 147.955Z" fill="#353659"/>
<path d="M6.7757 120.267C9.36079 121.247 16.6961 124.17 19.3465 126.533C22.5849 129.428 22.7249 136.151 18.5626 132.845C17.564 132.052 16.5654 131.211 15.6042 130.352C12.5432 127.579 8.9595 125.338 6.66371 124.03C6.4584 123.909 6.01044 123.806 5.11452 123.666C3.612 123.442 1.84817 123.461 0.728271 123.666C0.466962 123.713 2.45478 121.275 4.6199 120.239C5.14252 119.987 6.4584 119.884 6.84103 119.464C6.99035 119.286 6.62638 120.174 6.7757 120.267Z" fill="#FBC7B1"/>
<path d="M0.224461 123.647C0.131136 123.759 -0.0648456 123.629 0.028479 123.517C0.924395 122.48 2.03496 121.677 3.19218 120.949C4.38674 120.211 5.59995 119.511 6.77584 118.726C6.89717 118.642 7.05582 118.82 6.92516 118.904C5.8146 119.651 4.65738 120.323 3.51882 121.023C2.31493 121.761 1.14837 122.573 0.224461 123.647Z" fill="#353659"/>
<path d="M8.06379 120.762C5.58136 121.136 4.62012 120.23 4.62012 120.23L6.66392 118.922C7.58784 119.156 8.06379 120.762 8.06379 120.762Z" fill="#353659"/>
<path d="M2.51111 123.648C2.08182 123.778 1.61519 123.788 0.831268 123.993C0.215326 124.152 -0.381951 123.946 0.709946 122.947C1.80184 121.948 3.15505 121.164 3.15505 121.164C3.15505 121.164 3.24837 123.423 2.51111 123.648Z" fill="#353659"/>
<path d="M17.8625 125.44C18.8237 126.645 19.5423 128.027 19.9809 129.512C20.0089 129.614 20.1676 129.568 20.1396 129.465C19.6916 127.952 18.9637 126.551 17.9838 125.328C17.9091 125.244 17.7971 125.356 17.8625 125.44Z" fill="#FC9171"/>
<path d="M21.5399 94.8948C18.2922 96.529 14.9698 99.4799 12.7393 101.553C11.7128 102.505 8.25977 107.642 8.25977 107.642L10.5182 110.219C10.5182 110.219 14.1485 106.007 16.3697 104.345C18.2362 102.954 20.6346 101.852 23.201 100.881C25.9074 99.8628 26.6167 95.119 26.6167 95.119C26.6167 95.119 22.6784 94.3159 21.5399 94.8948Z" fill="#7670E3"/>
<path d="M10.5183 110.219C10.4717 110.303 10.3503 110.303 10.1917 110.229C10.145 110.21 10.0984 110.182 10.0424 110.144C9.7904 109.995 9.47309 109.715 9.15579 109.341C8.88515 109.033 8.65184 108.706 8.49319 108.426C8.42786 108.305 8.37186 108.193 8.3252 108.09C8.29721 108.034 8.27854 107.969 8.26921 107.922C8.25054 107.857 8.24121 107.791 8.24121 107.745C8.24121 107.717 8.24121 107.698 8.25054 107.679C8.25054 107.661 8.25988 107.651 8.26921 107.632C8.31587 107.548 8.41853 107.548 8.56785 107.604C8.6705 107.642 8.78249 107.717 8.91315 107.819C9.12779 107.978 9.37977 108.221 9.62241 108.501C9.75307 108.65 9.88372 108.809 9.98638 108.959C10.145 109.173 10.2757 109.379 10.369 109.566C10.4343 109.696 10.4903 109.818 10.5183 109.92C10.5557 110.06 10.5557 110.154 10.5183 110.219Z" fill="#262F36"/>
<path d="M28.5205 93.4569C28.5205 93.4569 32.8694 92.1309 34.9786 89.0306C35.7625 87.8726 36.9664 81.4759 36.9664 81.4759L40.3727 81.1211C40.3727 81.1211 40.4007 88.9465 38.4129 91.4959C35.4732 95.2872 31.7869 99.975 31.7869 99.975L28.5205 93.4569Z" fill="#7670E3"/>
<path d="M40.1209 80.9625C39.9809 80.9158 39.7942 80.8785 39.5796 80.8598C39.253 80.8318 38.861 80.8318 38.4504 80.8691C37.8624 80.9252 37.3865 81.0559 37.1345 81.2053C36.9852 81.2987 36.9105 81.3921 36.9572 81.4761C36.9852 81.5415 37.0692 81.5882 37.1905 81.6349C37.4331 81.7189 37.8251 81.7656 38.2824 81.7563C38.469 81.7563 38.665 81.7469 38.8703 81.7189C39.253 81.6816 39.5796 81.6162 39.8409 81.5322C39.9996 81.4855 40.1302 81.4294 40.2142 81.3734C40.3449 81.2894 40.4008 81.2053 40.3635 81.1213C40.3542 81.1119 40.3449 81.0933 40.3355 81.0839C40.2982 81.0372 40.2235 80.9999 40.1209 80.9625Z" fill="#262F36"/>
<path d="M39.2154 76.7882C39.1874 76.7882 39.1594 76.8069 39.1407 76.8162C38.9354 76.9656 38.8514 77.2271 38.8327 77.4792C38.8141 77.6847 38.8234 77.8995 38.8141 78.1049C38.8141 78.1142 38.8141 78.1142 38.8141 78.1236C38.6368 78.3197 38.4128 78.4691 38.1608 78.5718C38.0022 78.6372 37.8342 78.6745 37.6849 78.7492C37.4142 78.8706 37.2089 79.1041 37.0876 79.3749C37.0129 79.543 36.9756 79.7297 36.9756 79.9072C36.9756 80.0379 37.0036 80.1686 37.0596 80.2807C37.5262 81.0464 38.0955 80.9624 38.6834 80.7196C38.7021 80.7103 38.7114 80.7103 38.7301 80.7009C38.8981 80.6262 39.0661 80.5515 39.234 80.4768C39.5887 80.3087 39.9433 80.122 40.2886 79.9259C40.6246 79.7391 40.9605 79.5336 41.2219 79.2442C41.3058 79.1508 41.3805 79.0574 41.4458 78.9547C41.8471 78.3197 41.9311 77.4979 41.8751 76.7415C41.8751 76.6855 41.8565 76.6108 41.8005 76.6014C41.7725 76.5921 41.7538 76.6014 41.7258 76.6108C41.5112 76.7042 41.3805 76.9189 41.3058 77.1431C41.2312 77.3672 41.2032 77.6006 41.1192 77.8154C41.0819 77.9088 41.0445 77.9928 40.9885 78.0769C41.0445 77.5726 40.9979 77.0403 40.8952 76.5361C40.8859 76.4707 40.8579 76.396 40.7926 76.396C40.7646 76.396 40.7366 76.4053 40.7179 76.424C40.5033 76.5548 40.3913 76.8069 40.3446 77.059C40.3259 77.1617 40.3166 77.2645 40.2979 77.3672C40.2513 77.115 40.1859 76.8629 40.1113 76.6201C40.0926 76.5641 40.0553 76.4894 39.99 76.4894C39.962 76.4894 39.934 76.5081 39.9153 76.5174C39.71 76.6668 39.626 76.9283 39.6073 77.1804C39.5887 77.4325 39.6073 77.6847 39.5793 77.9368C39.5793 77.9461 39.5793 77.9648 39.57 77.9742C39.5327 77.6193 39.4487 77.2645 39.346 76.9283C39.3087 76.8536 39.2714 76.7882 39.2154 76.7882Z" fill="#FBC7B1"/>
<path d="M37.1902 81.6441C37.4329 81.7282 37.8248 81.7749 38.2821 81.7655C38.4688 81.7655 38.6648 81.7562 38.8701 81.7282C39.2527 81.6908 39.5793 81.6255 39.8406 81.5414L39.5887 80.8504L39.4114 80.3835L36.9756 79.9072L37.1436 81.2052L37.1902 81.6441Z" fill="#FBC7B1"/>
<path d="M38.2447 80.6261C38.2074 80.6354 38.2167 80.6915 38.2634 80.6821C38.674 80.6354 39.0846 80.5701 39.4579 80.402C39.4953 80.3833 39.4673 80.3366 39.4299 80.3459C39.0566 80.5234 38.6553 80.5794 38.2447 80.6261Z" fill="#FC9171"/>
<path d="M38.786 77.9276C38.7673 78.1144 38.8046 78.2918 38.8886 78.4505C38.9073 78.4879 38.9633 78.4599 38.9446 78.4225C38.8606 78.2731 38.8326 78.105 38.8513 77.9276C38.8513 77.8903 38.7953 77.8809 38.786 77.9276Z" fill="#FC9171"/>
<path d="M39.542 77.8713C39.5607 78.058 39.5887 78.2448 39.6446 78.4222C39.654 78.4596 39.7193 78.4409 39.7006 78.4036C39.6446 78.2261 39.6166 78.0487 39.598 77.8713C39.598 77.8339 39.542 77.8339 39.542 77.8713Z" fill="#FC9171"/>
<path d="M40.2607 77.2647C40.27 77.5915 40.3353 77.9183 40.438 78.2265C40.4473 78.2639 40.5127 78.2452 40.494 78.2078C40.3913 77.8997 40.326 77.5822 40.3167 77.2553C40.3167 77.2273 40.2513 77.2273 40.2607 77.2647Z" fill="#FC9171"/>
<path d="M10.3689 109.584C10.1356 109.789 10.1076 109.948 10.0423 110.153C9.99565 110.294 9.93966 110.452 9.79034 110.658C9.4637 111.115 7.94251 112.637 7.82119 112.497C7.72786 112.395 7.83052 112.012 8.0265 111.638C8.0825 111.526 8.09183 111.451 8.0825 111.405C7.31724 111.993 6.16934 112.778 6.00136 112.572C5.85204 112.385 6.48665 111.797 7.13059 111.265L7.10259 111.237C6.244 111.806 5.04012 112.507 4.87213 112.255C4.68548 111.984 5.65606 111.246 6.47731 110.676L6.44932 110.648C6.44932 110.648 6.43998 110.658 6.43065 110.658C5.64673 111.19 4.39618 111.928 4.21886 111.666C4.2002 111.648 4.2002 111.62 4.2002 111.592C4.2002 111.283 5.10544 110.592 5.82404 110.097C6.04802 109.873 5.96403 109.827 5.86137 109.836C5.81471 109.845 5.75872 109.855 5.71205 109.864C5.21743 109.957 4.81614 109.948 4.74148 109.799C4.56416 109.472 5.88937 109.136 6.79462 108.631C7.27057 108.37 7.69987 108.351 8.33447 108.09C8.51179 108.015 8.69844 107.931 8.91309 107.81C9.12773 107.968 9.37971 108.211 9.62235 108.491C9.75301 108.641 9.88366 108.799 9.98632 108.949C10.145 109.192 10.2756 109.397 10.3689 109.584Z" fill="#FBC7B1"/>
<path d="M20.0557 100.349C20.0557 100.349 22.4541 105.895 22.0621 106.96C21.6702 108.025 23.4247 107.959 25.1512 107.754C26.8777 107.548 30.6853 107.959 31.0773 107.885C31.4693 107.81 31.3479 106.148 31.5439 105.26C31.7399 104.373 32.7478 101.843 31.9919 100.498C31.2359 99.1533 33.1584 98.0981 33.1584 98.0981L29.3788 93.4663L20.9143 95.6701L20.0557 100.349Z" fill="#7670E3"/>
<path d="M26.9433 92.8222C26.878 92.5233 26.822 92.2339 26.7847 92.0004C26.766 91.907 26.7567 91.823 26.738 91.7483C26.71 91.5708 26.6913 91.4588 26.6913 91.4588L24.9648 90.9825L24.8902 90.9639L24.8529 90.9545L24.7689 90.9265L23.8076 90.665C23.8076 90.6744 23.9756 92.0097 23.8169 94.6151C23.7796 95.2781 24.6382 96.24 26.682 95.8478C28.6512 95.4649 27.5593 94.5591 27.3446 94.1575C27.242 93.9708 27.1486 93.6533 27.0553 93.3078C27.018 93.1583 26.9807 92.9903 26.9433 92.8222Z" fill="#FBC7B1"/>
<path d="M25.0672 91.0755C24.9925 91.0288 24.9272 90.9915 24.8899 90.9728C24.8712 90.9634 24.8525 90.9541 24.8525 90.9541V90.9634C24.8525 90.9821 24.8619 90.9915 24.8619 91.0101C25.1325 92.5229 26.551 93.1486 27.055 93.326C27.0177 93.1673 26.9803 92.9992 26.943 92.8404C26.8777 92.5416 26.8217 92.2521 26.7844 92.0187C26.3364 91.8132 25.4685 91.309 25.0672 91.0755Z" fill="#FC9171"/>
<path d="M23.0801 90.6554C23.0801 90.6554 25.4786 93.1767 27.9703 92.3176C30.4714 91.4585 28.4463 87.5178 26.7944 86.4345C25.1426 85.3513 19.9537 85.6501 23.0801 90.6554Z" fill="#FBC7B1"/>
<path d="M24.6571 91.7949C24.6198 91.7762 24.5918 91.8229 24.6198 91.8415C25.3664 92.2804 26.2156 92.5139 27.0742 92.5326C27.1115 92.5326 27.1209 92.4765 27.0835 92.4765C26.2343 92.4485 25.4037 92.2151 24.6571 91.7949Z" fill="#FC9171"/>
<path d="M27.0182 89.7027C26.9902 89.7307 27.0368 89.7681 27.0648 89.7401C27.1488 89.656 27.2888 89.6094 27.2328 89.4693C27.1768 89.3292 26.9902 89.1891 26.8782 89.0864C26.7289 88.937 26.5609 88.7969 26.4489 88.6102C26.3649 88.4701 26.3556 88.302 26.4209 88.1806C26.4302 88.1713 26.4209 88.1526 26.4116 88.1526C26.3929 88.1433 26.3742 88.1526 26.3649 88.1713C26.3089 88.2927 26.2996 88.4421 26.3649 88.5821C26.4582 88.7782 26.6262 88.9277 26.7849 89.0771C26.8595 89.1518 26.9435 89.2265 27.0182 89.3105C27.0462 89.3479 27.1115 89.3852 27.1302 89.4319C27.1955 89.6 27.0928 89.628 27.0182 89.7027Z" fill="#FC9171"/>
<path d="M25.1978 88.4516C25.0298 88.5917 24.9924 88.8158 25.0764 88.9092C25.1604 89.0026 25.3097 88.9092 25.4684 88.7691C25.627 88.629 25.7484 88.4983 25.6644 88.4049C25.5804 88.3115 25.3564 88.3115 25.1978 88.4516Z" fill="#FC9171"/>
<path d="M26.8032 87.4991C26.6166 87.6111 26.5419 87.8259 26.6072 87.9286C26.6725 88.0313 26.8312 87.966 27.0178 87.8539C27.2045 87.7419 27.3351 87.6298 27.2698 87.5271C27.2045 87.415 26.9805 87.387 26.8032 87.4991Z" fill="#FC9171"/>
<path d="M25.7302 89.0677C25.6462 89.1238 25.6462 89.2639 25.7209 89.3853C25.8049 89.5066 25.9355 89.5627 26.0195 89.5066C26.1035 89.4506 26.1035 89.3105 26.0289 89.1891C25.9542 89.0584 25.8142 89.0117 25.7302 89.0677Z" fill="#262F36"/>
<path d="M26.99 88.2181C26.906 88.2742 26.906 88.4142 26.9807 88.5356C27.0647 88.657 27.1953 88.7131 27.2793 88.657C27.3633 88.601 27.3633 88.4609 27.2886 88.3395C27.2046 88.2088 27.074 88.1621 26.99 88.2181Z" fill="#262F36"/>
<path d="M24.6852 88.7784C24.6945 88.6663 24.6385 88.5543 24.6292 88.4515C24.5918 88.162 24.8252 87.8912 25.0865 87.7418C25.3478 87.5924 25.6371 87.5084 25.8611 87.3123C26.309 86.9201 26.2717 86.117 25.7957 85.7621L24.5452 85.7528C23.6306 85.7061 22.6787 85.8835 21.9228 86.3971C21.1668 86.9107 20.6256 87.7792 20.6349 88.7037C20.6349 89.0772 20.7282 89.4414 20.8309 89.7962C20.9802 90.2818 21.1575 90.7674 21.4748 91.169C21.7828 91.5705 22.2494 91.8787 22.7534 91.9067C23.248 91.9347 23.9199 91.8226 23.8639 91.337C23.7799 90.59 24.2839 90.2818 24.0412 89.8523C24.0039 89.7776 23.9479 89.7029 23.9386 89.6188C23.9012 89.2079 24.6478 89.1706 24.6852 88.7784Z" fill="#262F36"/>
<path d="M23.0147 89.9269C22.8747 90.3285 23.164 90.8047 23.6773 90.9821C24.1812 91.1596 24.7132 90.9821 24.8532 90.5806C24.9932 90.1791 24.7038 89.7028 24.1906 89.5254C23.6866 89.3386 23.1547 89.5254 23.0147 89.9269Z" fill="#FBC7B1"/>
<path d="M23.5938 90.9261C23.3138 90.8327 23.1551 90.5992 23.0431 90.3377C23.0245 90.3004 22.9685 90.3191 22.9872 90.3564C23.0991 90.6179 23.2578 90.8607 23.5378 90.9634C23.8644 91.0848 24.275 91.1035 24.6017 90.9821C24.639 90.9727 24.6203 90.9074 24.583 90.9261C24.2657 91.0474 23.9017 91.0288 23.5938 90.9261Z" fill="#FC9171"/>
<path d="M24.2743 90.1885C24.2556 90.1045 24.1529 90.0484 24.0876 90.0111C24.0503 89.9924 24.0223 90.0484 24.0596 90.0671C24.1063 90.0951 24.1996 90.1418 24.2183 90.1885C24.2276 90.2352 24.1903 90.3006 24.1903 90.3566C24.1809 90.4406 24.2089 90.5247 24.2556 90.5994C24.2836 90.6274 24.3303 90.5994 24.3116 90.5714C24.2556 90.506 24.2369 90.422 24.2556 90.3379C24.2463 90.2819 24.2836 90.2445 24.2743 90.1885Z" fill="#FC9171"/>
<path d="M24.0595 89.4604C24.0222 89.451 24.0035 89.5164 24.0409 89.5164C24.1342 89.5351 24.2182 89.5631 24.2928 89.6191C24.3208 89.6378 24.3582 89.5911 24.3208 89.5631C24.2462 89.5071 24.1622 89.4697 24.0595 89.4604Z" fill="#FC9171"/>
<path d="M21.8103 89.6469C22.0529 89.2641 22.4542 89.0306 22.8555 88.8252C23.1728 88.6664 23.5928 88.5263 23.8074 88.2182C24.0407 87.882 23.7514 87.4991 23.9474 87.1536C24.1994 86.7241 24.7686 86.7054 25.1699 86.5279C25.4872 86.3972 25.7672 86.1077 25.7019 85.7342C25.7019 85.7062 25.6552 85.7155 25.6646 85.7435C25.7672 86.3225 25.0859 86.5186 24.6753 86.6494C24.386 86.7334 24.0687 86.8548 23.9101 87.1349C23.7047 87.4898 24.022 87.91 23.7327 88.2462C23.4714 88.5543 23.0235 88.6944 22.6782 88.8718C22.1182 89.1707 21.465 89.7123 21.5956 90.4407C21.6703 90.8142 21.9596 91.085 22.1276 91.4118C22.3515 91.8321 22.2302 92.2896 21.9596 92.6632C21.4463 93.3542 20.429 93.6997 20.2891 94.6429C20.2891 94.6709 20.3264 94.6802 20.3264 94.6522C20.4664 93.7371 21.4463 93.3915 21.9596 92.7285C22.1649 92.4671 22.3142 92.1402 22.2862 91.8134C22.2582 91.4399 21.9969 91.1597 21.8103 90.8516C21.5676 90.4593 21.5676 90.0391 21.8103 89.6469Z" fill="white"/>
<path d="M21.54 94.8951C21.6427 94.9511 24.8251 96.7347 27.3822 95.9129C29.1273 95.3526 28.8847 94.1106 28.5207 93.4663C27.6061 93.6624 26.6449 93.6998 25.6743 93.7091C24.1158 93.7184 22.7159 94.3534 21.54 94.8951Z" fill="#FBC7B1"/>
<path d="M26.9151 94.8201C26.6071 95.0536 26.1218 95.0349 25.7579 94.9975C25.0486 94.9228 24.3673 94.6147 23.8447 94.1291C23.826 94.1104 23.798 94.1384 23.8167 94.1571C24.414 94.7081 25.2072 95.0349 26.0192 95.0536C26.3645 95.0629 26.7564 95.0442 27.0177 94.7828C27.3164 94.4746 27.3164 94.0264 27.2417 93.6248C27.2417 93.5968 27.1951 93.6062 27.2044 93.6342C27.279 94.0357 27.279 94.5306 26.9151 94.8201Z" fill="white"/>
<path d="M26.6258 94.9789C26.5884 94.9976 26.5791 95.063 26.6071 95.119C26.6351 95.1844 26.6911 95.2124 26.7284 95.203C26.7658 95.1844 26.7751 95.119 26.7471 95.063C26.7191 94.9976 26.6631 94.9603 26.6258 94.9789Z" fill="white"/>
<path d="M27.9324 90.0578C27.9324 90.1699 27.9138 90.3193 27.8671 90.422C27.8018 90.5714 27.6805 90.7022 27.4658 90.7769C27.2232 90.8609 27.0272 90.8329 26.8685 90.7582C26.7752 90.7209 26.6819 90.6368 26.5979 90.5621C26.5699 90.5341 26.5606 90.4967 26.5699 90.4594C26.5792 90.422 26.6166 90.3847 26.6632 90.3753C26.6726 90.3753 26.6912 90.3753 26.7006 90.366C26.7099 90.366 26.7099 90.366 26.7192 90.366C26.7379 90.366 26.7566 90.3567 26.7752 90.3567C26.7846 90.3567 26.7939 90.3567 26.7939 90.3567C26.8592 90.3473 26.9245 90.3286 26.9899 90.31C27.0085 90.3006 27.0365 90.3006 27.0552 90.2913C27.0645 90.2913 27.0832 90.282 27.0925 90.282C27.1019 90.282 27.1205 90.2726 27.1299 90.2726C27.1392 90.2726 27.1579 90.2633 27.1672 90.2633C27.1765 90.2633 27.1952 90.2539 27.2045 90.2539C27.2232 90.2446 27.2418 90.2446 27.2605 90.2353C27.2792 90.2259 27.2885 90.2259 27.3072 90.2166C27.3352 90.2072 27.3725 90.1886 27.4005 90.1792C27.4098 90.1699 27.4285 90.1699 27.4378 90.1606C27.4845 90.1419 27.5218 90.1232 27.5685 90.0952C27.5871 90.0859 27.6058 90.0765 27.6245 90.0672C27.6431 90.0578 27.6525 90.0485 27.6711 90.0392C27.6805 90.0392 27.6805 90.0298 27.6898 90.0298C27.7085 90.0205 27.7178 90.0111 27.7271 90.0018C27.7458 89.9925 27.7645 89.9831 27.7831 89.9645C27.8205 89.9364 27.8578 89.9458 27.8858 89.9645C27.9138 89.9925 27.9324 90.0205 27.9324 90.0578Z" fill="#262F36"/>
<path d="M27.8862 89.974C27.7369 90.1701 27.4942 90.4129 27.1956 90.4596C26.9529 90.4969 26.7383 90.4876 26.5703 90.4596C26.5796 90.4222 26.617 90.3848 26.6636 90.3755C26.673 90.3755 26.6916 90.3755 26.701 90.3662C26.7103 90.3662 26.7103 90.3662 26.7196 90.3662C26.7383 90.3662 26.757 90.3568 26.7756 90.3568C26.785 90.3568 26.7943 90.3568 26.7943 90.3568C26.8596 90.3475 26.9249 90.3288 26.9903 90.3101C27.0089 90.3008 27.0369 90.3008 27.0556 90.2915C27.0649 90.2915 27.0836 90.2821 27.0929 90.2821C27.1023 90.2821 27.1209 90.2728 27.1303 90.2728C27.1396 90.2728 27.1583 90.2634 27.1676 90.2634C27.1769 90.2634 27.1956 90.2541 27.2049 90.2541C27.2236 90.2448 27.2422 90.2448 27.2609 90.2354C27.2796 90.2261 27.2889 90.2261 27.3076 90.2168C27.3356 90.2074 27.3729 90.1887 27.4009 90.1794C27.4102 90.1701 27.4289 90.1701 27.4382 90.1607C27.4849 90.1421 27.5222 90.1234 27.5689 90.0954C27.5875 90.086 27.6062 90.0767 27.6249 90.0673C27.6435 90.058 27.6529 90.0487 27.6715 90.0393C27.6809 90.0393 27.6809 90.03 27.6902 90.03C27.7089 90.0207 27.7182 90.0113 27.7275 90.002C27.7462 89.9926 27.7649 89.9833 27.7835 89.9646C27.8115 89.9553 27.8582 89.9553 27.8862 89.974Z" fill="white"/>
<path d="M27.8667 90.4223C27.8014 90.5717 27.6801 90.7024 27.4654 90.7771C27.2228 90.8612 27.0268 90.8331 26.8682 90.7584C26.9615 90.6744 27.1388 90.5437 27.3814 90.5063C27.3814 90.5156 27.6708 90.2728 27.8667 90.4223Z" fill="#E55A4D"/>
<path d="M27.8667 118.306C27.6521 118.184 27.4281 118.072 27.1948 117.97C27.5308 117.316 28.0441 116.774 28.632 116.345C29.7519 115.514 31.0958 114.944 32.4676 114.552C32.4583 114.524 32.4583 114.496 32.449 114.468C31.0304 114.869 29.6306 115.467 28.492 116.345C27.9321 116.774 27.4375 117.307 27.1201 117.932C25.6456 117.269 24.0311 116.942 22.4259 116.942C20.6994 116.942 18.9729 117.325 17.4237 118.072L17.3584 118.194C19.9902 116.896 23.1072 116.672 25.9069 117.559C26.3082 117.689 26.7002 117.839 27.0921 118.007C27.0455 118.1 26.9988 118.203 26.9615 118.296C26.9242 118.399 26.8868 118.493 26.8588 118.605C26.7375 119.025 26.6909 119.492 26.7655 119.921C26.8122 120.192 26.9242 120.342 27.1108 120.435C27.1948 120.482 27.2975 120.519 27.4095 120.547C27.4654 120.566 27.5308 120.575 27.5961 120.594C27.9974 120.678 28.492 120.715 28.8187 120.491C28.9586 120.388 29.0706 120.239 29.1266 120.024C29.3319 119.193 28.4827 118.651 27.8667 118.306ZM28.6227 120.491C28.4734 120.566 28.296 120.603 28.1094 120.594C28.0067 120.594 27.8947 120.584 27.7734 120.566C27.5494 120.538 27.3161 120.472 27.1388 120.36C27.0082 120.276 26.9055 120.164 26.8682 120.015C26.7375 119.538 26.8215 118.978 26.9708 118.521C26.9895 118.465 27.0082 118.409 27.0362 118.343C27.0735 118.24 27.1201 118.138 27.1668 118.044C27.4934 118.194 27.8107 118.362 28.1187 118.539C28.52 118.782 28.9493 119.1 29.0613 119.585C29.1453 120.024 28.9493 120.342 28.6227 120.491Z" fill="white"/>
<path d="M23.7045 124.068C24.3112 123.806 24.9644 123.722 25.6177 123.834C26.2056 123.927 26.7096 124.226 27.2322 124.506C28.0908 124.955 29.0334 125.16 29.9946 125.057C30.4519 125.011 30.8905 124.899 31.3105 124.721C31.5905 124.6 32.1131 124.413 32.2251 124.096C32.2904 123.918 32.1877 123.657 31.9638 123.694C31.7118 123.731 31.6558 124.068 31.6745 124.273C31.7865 125.412 33.177 125.459 34.0262 125.328C34.0822 125.319 34.0542 125.244 34.0076 125.254C33.429 125.338 32.7757 125.403 32.2717 125.048C32.0384 124.88 31.8424 124.628 31.7771 124.348C31.7491 124.245 31.7491 124.142 31.7958 124.04C31.8238 123.797 31.9078 123.862 32.0478 124.226C32.0104 124.292 31.7678 124.413 31.6931 124.46C30.8159 124.945 29.7706 125.113 28.7814 124.955C28.2961 124.88 27.8295 124.721 27.3909 124.497C26.9896 124.292 26.6069 124.049 26.1776 123.899C25.3564 123.61 24.4698 123.675 23.6765 124.012C23.6206 124.012 23.6579 124.086 23.7045 124.068Z" fill="white"/>
<path d="M20.8675 110.032C23.1633 110.387 24.7592 112.395 27.0363 112.853C27.5029 112.946 27.9975 112.974 28.4641 112.881C28.8188 112.815 29.3974 112.666 29.5747 112.311C29.668 112.124 29.5934 111.881 29.3601 111.844C29.0148 111.797 29.1547 112.264 29.2294 112.432C29.7147 113.544 31.1239 113.292 32.0478 113.049C32.0945 113.039 32.0758 112.955 32.0291 112.974C31.4412 113.133 30.7879 113.32 30.1813 113.133C29.9293 113.058 29.696 112.918 29.5187 112.722C29.3974 112.591 29.3134 112.451 29.2574 112.283C29.2294 112.208 29.2201 112.134 29.2201 112.059C29.472 112.227 29.5187 112.358 29.3414 112.451C29.0148 112.815 28.2215 112.871 27.7735 112.862C27.2323 112.853 26.7003 112.722 26.1964 112.535C24.3392 111.844 22.8927 110.275 20.8769 109.958C20.8395 109.939 20.8209 110.023 20.8675 110.032Z" fill="white"/>
<path d="M20.4387 102.141C21.0639 101.731 21.7732 101.516 22.5291 101.506C22.5851 101.506 22.5851 101.422 22.5291 101.422C21.7639 101.432 21.0453 101.656 20.4013 102.076C20.3547 102.095 20.392 102.169 20.4387 102.141Z" fill="white"/>
<path d="M31.88 97.7618C31.6001 98.5369 31.5907 99.2559 31.8334 100.04C31.852 100.087 31.9267 100.068 31.908 100.022C31.6654 99.2559 31.684 98.5462 31.9547 97.7898C31.9734 97.7338 31.8987 97.7151 31.88 97.7618Z" fill="white"/>
<path d="M24.2554 102.851C25.1886 103.654 26.7938 103.318 27.783 102.814C27.8297 102.786 27.7924 102.72 27.7457 102.739C26.7938 103.225 25.2166 103.561 24.3207 102.795C24.274 102.758 24.218 102.814 24.2554 102.851Z" fill="white"/>
<path opacity="0.8" d="M54.4367 70.0647C55.4166 69.0655 57.2738 65.7504 54.3901 64.443C51.5063 63.1357 52.3743 72.1658 54.4367 70.0647Z" fill="white"/>
<path opacity="0.4" d="M111.355 38.548V28.2946C111.355 26.9125 110.236 25.8013 108.864 25.8013H100.688C99.4659 25.8013 98.8406 27.2674 99.6899 28.1452C100.138 28.6027 100.782 29.0697 101.724 29.5085C105.037 31.04 109.788 40.0514 111.178 38.9402C111.299 38.8374 111.355 38.6974 111.355 38.548Z" fill="white"/>
<path d="M74.9404 68.1596V87.3684C74.9404 89.9551 77.0309 92.0468 79.616 92.0468H94.9399C97.2263 92.0468 98.4022 89.292 96.8064 87.6579C95.9665 86.7987 94.7532 85.9209 92.9894 85.1085C86.7647 82.2417 77.8708 65.3675 75.2577 67.4406C75.0431 67.6087 74.9404 67.8888 74.9404 68.1596Z" fill="#FFE0C6"/>
</g>
<defs>
<clipPath id="clip0_4010_32234">
<rect width="170" height="150" fill="white"/>
</clipPath>
</defs>
</svg>
