<?xml version="1.0" encoding="utf-8"?>
<!-- Generator: Adobe Illustrator 24.0.1, SVG Export Plug-In . SVG Version: 6.00 Build 0)  -->
<svg version="1.1" id="Layer_1" xmlns="http://www.w3.org/2000/svg" xmlns:xlink="http://www.w3.org/1999/xlink" x="0px" y="0px"
	 viewBox="0 0 24 24" style="enable-background:new 0 0 24 24;" xml:space="preserve">
<style type="text/css">
	.st0{fill:url(#SVGID_1_);}
	.st1{fill:url(#SVGID_2_);}
	.st2{fill:#FFFFFF;}
</style>
<g>
	<g>
		
			<linearGradient id="SVGID_1_" gradientUnits="userSpaceOnUse" x1="5.8885" y1="20.7542" x2="20.082" y2="6.5607" gradientTransform="matrix(1 0 0 -1 0 24)">
			<stop  offset="0" style="stop-color:#FF9F29"/>
			<stop  offset="1" style="stop-color:#FF6229"/>
		</linearGradient>
		<path class="st0" d="M23.3,11.3l-8-8c-0.4-0.4-1-0.7-1.6-0.7H7.5c-1.2,0-2.2,1-2.2,2.2v1.6c0.8-0.4,1.5-0.7,2-0.8
			c0-0.3,0.1-0.5,0.3-0.7c0.5-0.5,1.2-0.5,1.7,0c0.5,0.5,0.5,1.2,0,1.7C9.1,7,8.7,7.1,8.4,7.1C8.2,7,8,7,7.8,6.8
			c0,0-0.1-0.1-0.1-0.1C7.5,6.6,7.4,6.5,7.4,6.4c-0.3,0-1,0.2-2.1,0.9v3.9c0,0.3,0.1,0.6,0.2,0.9c0.1,0.2,0.2,0.4,0.4,0.6
			c0,0,0,0,0,0l8,8c0.9,0.9,2.3,0.9,3.1,0l6.3-6.3C24.2,13.6,24.2,12.2,23.3,11.3z"/>
		
			<linearGradient id="SVGID_2_" gradientUnits="userSpaceOnUse" x1="1.7485" y1="16.6143" x2="15.942" y2="2.4208" gradientTransform="matrix(1 0 0 -1 0 24)">
			<stop  offset="0" style="stop-color:#FF9F29"/>
			<stop  offset="1" style="stop-color:#FF6229"/>
		</linearGradient>
		<path class="st1" d="M2.6,14.7c-1.3,0-2.4-1-2.6-2.3c-0.2-2,2-3.7,4.3-5.2C7.1,5.5,7.9,5.9,8,6c0.1,0.1,0.7,0.7-0.8,3.8
			C6,12.4,4.6,14.7,2.6,14.7C2.6,14.7,2.6,14.7,2.6,14.7z M7.5,6.1c-0.4,0-1.3,0.2-3,1.3c-2.3,1.5-4.4,3.1-4.2,5
			c0.1,1.2,1.2,2.1,2.3,2.1c0,0,0,0,0,0l0,0c1.9,0,3.3-2.3,4.4-4.8c1.4-3,0.8-3.5,0.8-3.5l0,0l0,0C7.8,6.2,7.8,6.1,7.5,6.1z"/>
	</g>
	<path class="st2" d="M10.8,11.1H9.2v3.3h1.6c0.9,0,1.6-0.7,1.6-1.6C12.4,11.8,11.7,11.1,10.8,11.1z M10.8,13.8H9.7v-2.2h1.1
		c0.6,0,1.1,0.5,1.1,1.1C11.9,13.3,11.4,13.8,10.8,13.8z"/>
	<path class="st2" d="M19.7,11.1h-1.6v3.3h1.6c0.9,0,1.6-0.7,1.6-1.6C21.3,11.8,20.6,11.1,19.7,11.1z M19.7,13.8h-1.1v-2.2h1.1
		c0.6,0,1.1,0.5,1.1,1.1C20.8,13.3,20.3,13.8,19.7,13.8z"/>
	<g>
		<path class="st2" d="M16.6,13.2c0.1-0.2,0.2-0.3,0.3-0.4l0.6-1h-0.7l-0.5,0.8l-0.1,0.2l-1.5-1.5c-0.2-0.2-0.3-0.4-0.4-0.5
			c-0.1-0.1-0.1-0.3-0.1-0.4c0-0.2,0.1-0.3,0.2-0.4c0.1-0.1,0.3-0.2,0.5-0.2c0.2,0,0.3,0.1,0.4,0.2c0.1,0.1,0.2,0.3,0.2,0.5H16
			c0-0.2,0-0.4-0.1-0.6c-0.1-0.2-0.2-0.3-0.4-0.4c-0.2-0.1-0.4-0.1-0.7-0.1c-0.3,0-0.5,0-0.7,0.1c-0.2,0.1-0.4,0.2-0.5,0.4
			c-0.1,0.2-0.2,0.4-0.2,0.6c0,0.2,0,0.3,0.1,0.5c0.1,0.2,0.2,0.3,0.3,0.5c-0.4,0.2-0.7,0.4-0.9,0.6c-0.2,0.3-0.3,0.6-0.3,0.9
			c0,0.3,0.1,0.6,0.2,0.8c0.1,0.2,0.3,0.4,0.6,0.5c0.3,0.1,0.6,0.2,0.9,0.2c0.3,0,0.7-0.1,0.9-0.2c0.3-0.1,0.5-0.3,0.8-0.6l0.7,0.7
			h0.9L16.6,13.2z M15.2,13.7c-0.2,0.1-0.4,0.1-0.7,0.1c-0.3,0-0.6-0.1-0.8-0.3c-0.2-0.2-0.3-0.4-0.3-0.7c0-0.5,0.3-0.9,0.9-1.1
			l1.5,1.5C15.6,13.4,15.4,13.6,15.2,13.7z"/>
	</g>
</g>
</svg>
